<svg width="60" height="51" viewBox="0 0 60 51" fill="none" xmlns="http://www.w3.org/2000/svg">
<g clip-path="url(#clip0)">
<path d="M59.8896 12.8538C59.6831 12.2139 59.1792 11.6683 58.4899 11.3376C57.8001 11.0052 56.9799 10.9153 56.2105 11.0874C55.4421 11.2599 54.7874 11.6793 54.3905 12.2538L53.8906 12.9787C53.4156 12.7513 52.8087 12.8852 52.531 13.279L49.9914 16.8864L49.1214 16.4698C48.891 16.3587 48.6166 16.3286 48.3598 16.3864C48.1025 16.4445 47.8838 16.5853 47.7515 16.7781C47.4805 17.1764 47.6456 17.6825 48.1216 17.9112L48.9915 18.3278L40.493 30.6007L38.3932 35.2752L37.3934 36.8329C36.808 37.6816 36.8705 38.7365 37.5535 39.5326L35.3039 41.8321L34.6741 40.516C34.39 39.9293 33.7324 39.5274 32.9762 39.4781C32.2195 39.4285 31.4945 39.7401 31.1044 40.2824L30.7446 40.7906L30.4048 37.4578C30.3267 36.6694 29.5939 36.0355 28.6517 35.9403C27.709 35.8455 26.8166 36.3162 26.5154 37.0664L24.0558 43.2153C23.884 43.6502 24.1652 44.1189 24.6856 44.2653C24.7832 44.3032 24.8882 44.3259 24.9956 44.3316C25.4252 44.3329 25.808 44.1046 25.9456 43.7653L28.3949 37.6165L28.745 40.9989C28.8172 41.7206 29.4397 42.3207 30.2862 42.4842C31.1327 42.6478 32.0086 42.3369 32.4543 41.7157L32.8244 41.2072L33.4444 42.5155C33.7075 43.0668 34.3026 43.4602 35.0071 43.5477C35.7116 43.6351 36.4185 43.4037 36.8637 42.9403L39.1934 40.4826C39.4512 40.5387 39.7167 40.5668 39.9833 40.566C41.0549 40.5729 42.0498 40.1026 42.5927 39.3325L43.5925 37.9411L47.4019 34.0835L55.9903 21.6605L56.8603 22.0771C57.0922 22.1878 57.2611 22.3704 57.3299 22.5857C57.3993 22.7992 57.3631 23.0271 57.2304 23.2187L53.231 28.9929C53.0802 29.1824 53.0289 29.4151 53.0895 29.6373C53.15 29.859 53.3165 30.0506 53.5508 30.1674C53.7812 30.2789 54.0556 30.309 54.3124 30.2512C54.5697 30.193 54.7884 30.0522 54.9207 29.8594L58.92 24.0852C59.3189 23.5104 59.4268 22.8269 59.2198 22.1857C59.0128 21.5454 58.5094 20.9998 57.8201 20.6691L56.9501 20.2525L59.4497 16.6447C59.7226 16.2488 59.562 15.7436 59.0899 15.5117L59.5898 14.7867C59.9994 14.2029 60.1078 13.5056 59.8896 12.8538ZM56.1202 13.087C56.2525 12.8941 56.4722 12.7529 56.7304 12.6956C56.9872 12.6427 57.2587 12.6724 57.4901 12.779C57.722 12.8892 57.8909 13.0723 57.9602 13.2871C58.0237 13.5011 57.988 13.7273 57.8601 13.9201L57.3602 14.6451L55.6203 13.8119L56.1202 13.087ZM42.4926 36.35L41.9927 36.1083L40.513 35.3915L41.9327 32.2255L45.082 33.7418L42.4926 36.35ZM39.4931 38.7576C39.0708 38.5123 38.941 38.0404 39.1934 37.6661L39.6933 36.9415L41.4327 37.7747L40.9328 38.4912C40.7927 38.6938 40.5574 38.8378 40.2835 38.8886C40.0097 38.9391 39.7231 38.8919 39.4931 38.7576ZM46.222 32.3757L42.7626 30.7093L50.7612 19.161L54.2206 20.8273L46.222 32.3757ZM55.2204 19.3859L51.7611 17.7195L53.7607 14.8367L57.2201 16.5031L55.2204 19.3859Z" fill="#DEA033"/>
<path d="M15.7771 38.341L12.2381 41.2824L10.1184 39.5159C9.72829 39.1929 9.09852 39.1929 8.70845 39.5159C8.51902 39.6726 8.4126 39.8854 8.4126 40.1075C8.4126 40.3296 8.51902 40.5428 8.70845 40.699L10.8282 42.4655C11.2031 42.7755 11.7099 42.9492 12.2381 42.9488C12.7693 42.9512 13.2804 42.7775 13.6578 42.4655L17.187 39.5159C17.5268 39.1852 17.5038 38.6925 17.1347 38.385C16.7652 38.077 16.174 38.0579 15.7771 38.341Z" fill="#DEA033"/>
<path d="M3.99951 40.5823C3.99951 44.494 7.80453 47.6644 12.4981 47.6644C17.1916 47.6644 20.9966 44.494 20.9966 40.5823C20.9966 40.1221 20.5489 39.7491 19.9968 39.7491C19.4446 39.7491 18.997 40.1221 18.997 40.5823C18.997 43.5733 16.0873 45.998 12.4981 45.998C8.90883 45.998 5.99917 43.5733 5.99917 40.5823C5.99917 37.5912 8.90883 35.1665 12.4981 35.1665C13.9051 35.1633 15.2744 35.5437 16.3973 36.2499C16.8391 36.5262 17.466 36.4513 17.797 36.0831C18.1285 35.7149 18.0391 35.193 17.5973 34.9167C15.022 33.3073 11.5763 33.0486 8.69744 34.2479C5.81805 35.4476 3.99951 37.9 3.99951 40.5823Z" fill="#DEA033"/>
<path d="M35.9939 7.6712C36.5461 7.6712 36.9938 7.29855 36.9938 6.83801C36.9938 6.37789 36.5461 6.00482 35.9939 6.00482H9.99836C9.44621 6.00482 8.99854 6.37789 8.99854 6.83801V10.1708C8.99854 10.6313 9.44621 11.004 9.99836 11.004H35.9939C36.5461 11.004 36.9938 10.6313 36.9938 10.1708C36.9938 9.71065 36.5461 9.33759 35.9939 9.33759H10.9982V7.6712H35.9939Z" fill="#DEA033"/>
<path d="M12.9979 12.6703C12.4457 12.6703 11.998 13.0434 11.998 13.5035C11.998 13.9641 12.4457 14.3367 12.9979 14.3367H32.9945C33.5466 14.3367 33.9943 13.9641 33.9943 13.5035C33.9943 13.0434 33.5466 12.6703 32.9945 12.6703H12.9979Z" fill="#DEA033"/>
<path d="M38.9932 18.5027H16.9969C16.4447 18.5027 15.9971 18.8757 15.9971 19.3359C15.9971 19.7964 16.4447 20.1691 16.9969 20.1691H38.9932C39.5453 20.1691 39.993 19.7964 39.993 19.3359C39.993 18.8757 39.5453 18.5027 38.9932 18.5027Z" fill="#DEA033"/>
<path d="M28.9953 24.335C28.9953 23.8749 28.5476 23.5018 27.9954 23.5018H7.99885C7.4467 23.5018 6.99902 23.8749 6.99902 24.335C6.99902 24.7956 7.4467 25.1682 7.99885 25.1682H27.9954C28.5476 25.1682 28.9953 24.7956 28.9953 24.335Z" fill="#DEA033"/>
<path d="M38.9933 23.5018H31.9945C31.4423 23.5018 30.9946 23.8749 30.9946 24.335C30.9946 24.7956 31.4423 25.1682 31.9945 25.1682H38.9933C39.5454 25.1682 39.9931 24.7956 39.9931 24.335C39.9931 23.8749 39.5454 23.5018 38.9933 23.5018Z" fill="#DEA033"/>
<path d="M17.9971 29.3342C18.5493 29.3342 18.997 28.9615 18.997 28.501C18.997 28.0409 18.5493 27.6678 17.9971 27.6678H7.99885C7.4467 27.6678 6.99902 28.0409 6.99902 28.501C6.99902 28.9615 7.4467 29.3342 7.99885 29.3342H17.9971Z" fill="#DEA033"/>
<path d="M21.9964 29.3342H28.9952C29.5474 29.3342 29.995 28.9615 29.995 28.501C29.995 28.0409 29.5474 27.6678 28.9952 27.6678H21.9964C21.4443 27.6678 20.9966 28.0409 20.9966 28.501C20.9966 28.9615 21.4443 29.3342 21.9964 29.3342Z" fill="#DEA033"/>
<path d="M44.9923 39.3325C44.4402 39.3325 43.9925 39.7055 43.9925 40.1657V48.4976C43.9925 48.9581 43.5448 49.3308 42.9927 49.3308H2.99949C2.44734 49.3308 1.99966 48.9581 1.99966 48.4976V3.50525C1.99966 3.04512 2.44734 2.67206 2.99949 2.67206H42.9927C43.5448 2.67206 43.9925 3.04512 43.9925 3.50525V19.1528C43.9925 19.6129 44.4402 19.986 44.9923 19.986C45.5445 19.986 45.9922 19.6129 45.9922 19.1528V3.50525C45.9922 2.12487 44.6491 1.00568 42.9927 1.00568H2.99949C1.34303 1.00568 0 2.12487 0 3.50525V48.4976C0 49.8784 1.34303 50.9972 2.99949 50.9972H42.9927C44.6491 50.9972 45.9922 49.8784 45.9922 48.4976V40.1657C45.9922 39.7055 45.5445 39.3325 44.9923 39.3325Z" fill="#DEA033"/>
</g>
<defs>
<clipPath id="clip0">
<rect y="0.997314" width="60" height="50" rx="8" fill="white"/>
</clipPath>
</defs>
</svg>
