<svg width="54" height="51" viewBox="0 0 54 51" fill="none" xmlns="http://www.w3.org/2000/svg">
<path d="M36.2522 14.4547H7.51913C7.03163 14.4547 6.63647 14.784 6.63647 15.1903C6.63647 15.5965 7.03163 15.9258 7.51913 15.9258H36.2523C36.7398 15.9258 37.135 15.5965 37.135 15.1903C37.135 14.784 36.7397 14.4547 36.2522 14.4547Z" fill="#DEA033"/>
<path d="M7.51913 10.8236H21.8856C22.3731 10.8236 22.7683 10.4943 22.7683 10.088C22.7683 9.68177 22.3731 9.35248 21.8856 9.35248H7.51913C7.03163 9.35248 6.63647 9.68177 6.63647 10.088C6.63647 10.4944 7.03163 10.8236 7.51913 10.8236Z" fill="#DEA033"/>
<path d="M36.2522 18.9755H7.51913C7.03163 18.9755 6.63647 19.3048 6.63647 19.711C6.63647 20.1173 7.03163 20.4466 7.51913 20.4466H36.2523C36.7398 20.4466 37.135 20.1173 37.135 19.711C37.1349 19.3048 36.7397 18.9755 36.2522 18.9755Z" fill="#DEA033"/>
<path d="M14.0645 45.8868H4.86916C3.3599 45.8868 2.13189 44.8635 2.13189 43.6058V4.74937C2.13189 3.49165 3.3599 2.46831 4.86916 2.46831H31.3601C31.4456 2.46831 31.5299 2.47485 31.6132 2.48423V7.07153C31.6132 9.14048 33.6331 10.8236 36.1157 10.8236H41.6203C41.6317 10.8931 41.6394 10.9633 41.6394 11.0346V23.5601C41.6394 23.9664 42.0346 24.2957 42.5221 24.2957C43.0096 24.2957 43.4047 23.9664 43.4047 23.5601V11.0347C43.4047 10.2279 43.0276 9.46929 42.343 8.89868L33.9231 1.88208C33.2385 1.31157 32.3283 0.997314 31.3601 0.997314H4.86916C2.38643 0.997314 0.366699 2.68052 0.366699 4.74937V43.6058C0.366699 45.6747 2.38654 47.3578 4.86916 47.3578H14.0645C14.552 47.3578 14.9472 47.0285 14.9472 46.6222C14.9472 46.216 14.552 45.8868 14.0645 45.8868ZM40.3913 9.35259H36.1158C34.6065 9.35259 33.3785 8.32925 33.3785 7.07153V3.50864L40.3913 9.35259Z" fill="#DEA033"/>
<path d="M53.3623 37.006L45.8836 26.4865C45.3386 25.7195 44.1524 25.466 43.2315 25.9205L41.4124 26.8187C40.0004 27.5158 39.4036 28.9264 39.8884 30.1765C39.2755 30.3616 38.6036 30.3586 37.9848 30.1593C36.5486 29.7828 35.4566 29.0252 33.6532 29.4053C30.5911 30.055 30.6841 30.0225 30.4071 30.1016C28.6141 29.2509 27.5364 28.9978 25.633 29.6114L23.9364 30.1579C23.1509 30.4109 22.2853 30.3509 21.5595 29.9925L21.0965 29.7651C21.3224 28.637 20.722 27.4464 19.4508 26.8189C19.4508 26.8189 19.4508 26.8189 19.4507 26.8188L17.6317 25.9207C16.7134 25.4675 15.5237 25.7212 14.9797 26.4865L7.50083 37.0061C6.95579 37.7729 7.25907 38.7617 8.17969 39.2161L9.99868 40.1141C10.5491 40.3859 11.154 40.5151 11.7517 40.5151C12.4181 40.5151 13.0752 40.3541 13.637 40.051L14.0161 40.2374L13.2157 41.1664C12.2619 42.2737 12.565 43.8133 13.8939 44.6082C14.5084 44.9758 15.2804 45.1437 16.0788 45.0392C16.2055 45.6563 16.6112 46.2338 17.2682 46.627C17.8852 46.9961 18.6537 47.1642 19.4535 47.0592C19.5805 47.6758 19.986 48.2529 20.6426 48.6457C21.525 49.1736 22.6221 49.2346 23.5363 48.9092C23.7363 49.3422 24.084 49.7332 24.5691 50.0235C25.8356 50.781 27.5803 50.5834 28.5645 49.602L30.6914 50.652C32.098 51.3466 33.9129 50.9606 34.7469 49.787C34.9602 49.487 35.0925 49.1601 35.1409 48.8241L35.1457 48.8265C36.5502 49.5197 38.3692 49.1316 39.2012 47.9615C39.4422 47.6225 39.5742 47.2548 39.6063 46.8864C40.8443 47.1457 42.1935 46.7124 42.8767 45.7515C43.1009 45.4363 43.2308 45.0957 43.2736 44.7531C44.6004 45.187 46.1511 44.7676 46.9004 43.7137C47.3034 43.1468 47.4175 42.4831 47.2214 41.8448C47.1093 41.4795 46.903 41.148 46.6199 40.868L47.7922 40.2972C48.784 40.6365 49.9158 40.5822 50.8643 40.114L52.6831 39.216C53.6037 38.7619 53.9078 37.7733 53.3623 37.006ZM10.8984 38.8486L9.07946 37.9504C8.9986 37.9105 8.97176 37.8232 9.01958 37.7558L16.4985 27.236C16.5466 27.1683 16.6518 27.1463 16.7322 27.1862L18.551 28.0841C19.3593 28.4832 19.6122 29.3471 19.142 30.0083L13.2075 38.356C12.7338 39.0224 11.6981 39.2432 10.8984 38.8486ZM14.9232 43.4132C14.3872 43.0925 14.2647 42.4712 14.6497 42.0244L15.8262 40.6587C16.2009 40.2237 16.9478 40.1046 17.4928 40.4307C18.0278 40.7507 18.1505 41.3737 17.7666 41.8195L16.59 43.1851C16.206 43.6311 15.458 43.733 14.9232 43.4132ZM18.2977 45.4321C17.7627 45.1119 17.64 44.4888 18.024 44.0431L19.2005 42.6776C19.2005 42.6776 19.2005 42.6776 19.2005 42.6775C19.2005 42.6775 19.2005 42.6774 19.2006 42.6774L20.4989 41.1704C20.685 40.9544 20.9607 40.8117 21.2755 40.7687C21.3409 40.7597 21.4064 40.7553 21.4715 40.7553C21.7192 40.7553 21.9602 40.8196 22.1656 40.9423C22.4245 41.0974 22.5959 41.3271 22.6474 41.5894C22.6991 41.8518 22.6252 42.1152 22.4391 42.3311L19.9642 45.2039C19.5796 45.6507 18.8339 45.753 18.2977 45.4321ZM21.6721 47.4507C21.1374 47.1308 21.0145 46.5081 21.3979 46.0624C21.398 46.0622 21.3982 46.062 21.3983 46.0619L23.8732 43.1891C24.257 42.7434 25.0051 42.6411 25.5399 42.961C26.0748 43.281 26.1975 43.904 25.8135 44.3498L24.7139 45.6263C24.7139 45.6263 24.7139 45.6263 24.7138 45.6264L23.3386 47.2227C22.9546 47.6685 22.2072 47.7709 21.6721 47.4507ZM25.5986 48.8285C25.064 48.5085 24.941 47.8862 25.3241 47.4404L26.1478 46.4843C26.5317 46.0384 27.2797 45.9365 27.8145 46.2563C28.3493 46.5762 28.4721 47.1994 28.0881 47.6452L27.2651 48.6003C26.8812 49.0462 26.1333 49.1486 25.5986 48.8285ZM45.382 42.964C45.0462 43.4364 44.3121 43.593 43.7452 43.3132C42.7852 42.8393 36.5925 39.782 35.9323 39.456C35.5127 39.249 34.9715 39.3643 34.723 39.7138C34.4746 40.0633 34.613 40.5145 35.0324 40.7215L40.939 43.6376L40.9391 43.6377C41.5062 43.9176 41.6953 44.5275 41.3582 45.0019C41.0222 45.4745 40.2878 45.6308 39.7211 45.3512C37.5365 44.2727 35.7626 43.3969 33.8113 42.4335C33.3916 42.2265 32.8505 42.3418 32.602 42.6913C32.3536 43.0409 32.492 43.492 32.9114 43.6991L37.2635 45.8477L37.2645 45.8482C37.8319 46.1289 38.0191 46.7385 37.6827 47.212C37.3467 47.6845 36.6125 47.8411 36.0455 47.5612L33.7098 46.4081C33.7096 46.408 33.7092 46.4079 33.709 46.4078C33.7088 46.4077 33.7085 46.4076 33.7083 46.4075L32.0038 45.5659C31.5843 45.3587 31.043 45.4741 30.7945 45.8237C30.5461 46.1732 30.6845 46.6244 31.1039 46.8314L32.8088 47.6731C32.809 47.6732 32.8092 47.6734 32.8095 47.6735C33.3765 47.9534 33.5657 48.5631 33.2285 49.0375C32.8925 49.5101 32.1584 49.6666 31.5913 49.3868L29.6025 48.405C30.455 47.3087 30.1308 45.8314 28.844 45.0617C28.466 44.8357 28.0452 44.695 27.6148 44.6345C28.0713 43.6172 27.6777 42.4295 26.5692 41.7664C25.913 41.3737 25.1272 41.238 24.3857 41.3349C24.2537 40.6918 23.8317 40.1286 23.195 39.7478C21.9976 39.0317 20.3704 39.1693 19.3652 40.0166C19.161 39.7177 18.879 39.4496 18.5223 39.2362C17.5273 38.6411 16.2354 38.6355 15.2503 39.1368L14.8459 38.9378L20.3971 31.1293L20.6613 31.2592C21.8285 31.8354 23.2528 31.9555 24.5728 31.5301L26.2695 30.9835C27.2404 30.6708 27.7758 30.6504 28.7361 31.0281C28.1078 31.6163 27.7348 32.3887 27.7348 33.2211V36.4824C27.7348 37.3486 28.5798 38.0537 29.6184 38.0543H29.621C30.6628 38.0543 31.6425 37.7163 32.3795 37.1026C32.8091 36.7448 33.1262 36.3182 33.3163 35.8526C34.4559 36.415 43.8716 41.0614 44.9632 41.6003C45.2378 41.7359 45.4325 41.9524 45.5116 42.21C45.5907 42.4673 45.5447 42.7352 45.382 42.964ZM51.7838 37.9504L49.9647 38.8486C49.165 39.2431 48.1293 39.0221 47.6558 38.3561L44.8743 34.4435C44.6257 34.094 44.0841 33.9786 43.665 34.1855C43.2456 34.3925 43.1071 34.8437 43.3554 35.1932L46.137 39.1059C46.1893 39.1795 46.2462 39.2495 46.305 39.3178L45.5317 39.6943C45.3754 39.7714 45.225 39.8564 45.0812 39.9487L33.0902 34.0312C32.5028 33.7414 31.7579 34.0947 31.7579 34.664C31.7487 34.7079 31.8491 35.464 31.1316 36.0618C30.728 36.3978 30.1915 36.5829 29.6209 36.5829C29.6204 36.5829 29.62 36.5829 29.6195 36.5829C29.5535 36.5829 29.4999 36.5376 29.4999 36.482V33.2207C29.4999 32.3688 30.2032 31.65 31.1544 31.4494L34.086 30.8311C35.1497 30.6071 35.751 31.0804 37.3437 31.5296C38.4493 31.8861 39.6516 31.8641 40.7187 31.4843L41.2514 32.2337C41.5 32.5834 42.0414 32.6987 42.4607 32.4917C42.8801 32.2847 43.0186 31.8335 42.7703 31.484L41.721 30.0081C41.2463 29.3404 41.5107 28.4798 42.312 28.084L44.1309 27.1861C44.2104 27.1467 44.3155 27.1668 44.3647 27.236L51.8434 37.7556C51.8917 37.8235 51.8651 37.9103 51.7838 37.9504Z" fill="#DEA033"/>
</svg>
