<svg width="50" height="51" viewBox="0 0 50 51" fill="none" xmlns="http://www.w3.org/2000/svg">
<path d="M31.3106 15.5014H9.0179C8.04489 15.5014 7.2561 16.1587 7.2561 16.9696C7.2561 17.7804 8.04489 18.4377 9.0179 18.4377H31.3106C32.2836 18.4377 33.0724 17.7804 33.0724 16.9696C33.0724 16.1587 32.2835 15.5014 31.3106 15.5014Z" fill="#DEA033"/>
<path d="M31.3106 21.1648H9.0179C8.04489 21.1648 7.2561 21.8221 7.2561 22.633C7.2561 23.4438 8.04489 24.1011 9.0179 24.1011H31.3106C32.2836 24.1011 33.0724 23.4438 33.0724 22.633C33.0723 21.8221 32.2835 21.1648 31.3106 21.1648Z" fill="#DEA033"/>
<path d="M31.3106 27.0543H9.0179C8.04489 27.0543 7.2561 27.7116 7.2561 28.5225C7.2561 29.3333 8.04489 29.9906 9.0179 29.9906H31.3106C32.2836 29.9906 33.0724 29.3333 33.0724 28.5225C33.0723 27.7117 32.2835 27.0543 31.3106 27.0543Z" fill="#DEA033"/>
<path d="M17.9818 32.899H9.01814C8.04514 32.899 7.25635 33.5563 7.25635 34.3672C7.25635 35.178 8.04514 35.8353 9.01814 35.8353H17.9818C18.9548 35.8353 19.7436 35.178 19.7436 34.3672C19.7436 33.5563 18.9547 32.899 17.9818 32.899Z" fill="#DEA033"/>
<path d="M40.1239 32.0548V5.13638C40.1239 2.85405 37.8958 0.997314 35.1572 0.997314H11.8744C11.3985 0.997314 10.9501 1.15112 10.6063 1.43491L0.730059 9.66206C0.391153 9.94438 0.20459 10.3198 0.20459 10.719V40.1295C0.20459 42.4119 2.43268 44.2686 5.17146 44.2686H27.4326C28.8709 48.1605 33.2262 50.9973 38.362 50.9973C44.6664 50.9973 49.7954 46.7232 49.7954 41.4695C49.7957 36.715 45.5949 32.7629 40.1239 32.0548ZM10.1127 5.998V9.25093H10.1126H6.20775L10.1127 5.998ZM26.931 41.3324H5.17158C4.37576 41.3324 3.7283 40.7929 3.7283 40.1296V12.1873H11.8744C12.8474 12.1873 13.6362 11.5299 13.6362 10.7191C13.6362 10.7076 13.6344 10.6963 13.634 10.6849C13.6344 10.6735 13.6362 10.6623 13.6362 10.6507V3.93364H35.1572C35.9529 3.93364 36.6005 4.4731 36.6005 5.13638V32.0548C31.1823 32.7561 27.011 36.6393 26.931 41.3324ZM38.3621 48.061C34.0006 48.061 30.4524 45.1041 30.4524 41.4695C30.4524 37.8349 34.0006 34.8781 38.3621 34.8781C42.7236 34.8781 46.2719 37.8349 46.2719 41.4695C46.2721 45.1041 42.7236 48.061 38.3621 48.061Z" fill="#DEA033"/>
<path d="M38.3621 36.2833C37.3891 36.2833 36.6003 36.9406 36.6003 37.7515V41.4695C36.6003 42.2803 37.3891 42.9376 38.3621 42.9376C39.3351 42.9376 40.1239 42.2803 40.1239 41.4695V37.7515C40.1239 36.9406 39.3351 36.2833 38.3621 36.2833Z" fill="#DEA033"/>
<path d="M40.1149 45.2105C40.1091 45.1635 40.101 45.1156 40.089 45.0686C40.0785 45.0216 40.0644 44.9747 40.0467 44.9287C40.0303 44.8837 40.0103 44.8377 39.9893 44.7936C39.967 44.7496 39.9423 44.7055 39.9154 44.6634C39.8884 44.6213 39.859 44.5802 39.8272 44.5401C39.7954 44.5 39.7603 44.4618 39.7238 44.4246C39.6873 44.3874 39.6486 44.3511 39.6076 44.317C39.5677 44.2837 39.5242 44.2504 39.4797 44.2201C39.4349 44.1897 39.388 44.1614 39.3398 44.1349C39.2929 44.1085 39.2423 44.0831 39.1918 44.0605C39.1412 44.038 39.0885 44.0174 39.0356 43.9999C38.9828 43.9813 38.9288 43.9646 38.8736 43.9509C38.8182 43.9373 38.7632 43.9255 38.7068 43.9157C38.6504 43.9069 38.5928 43.8991 38.5354 43.8941C38.4203 43.8843 38.3039 43.8843 38.1888 43.8941C38.1325 43.899 38.0749 43.9068 38.0186 43.9157C37.9622 43.9255 37.9058 43.9372 37.8506 43.9509C37.7953 43.9646 37.7413 43.9813 37.6886 43.9999C37.6357 44.0174 37.5829 44.0381 37.5323 44.0605C37.4817 44.0831 37.4324 44.1085 37.3842 44.1349C37.3362 44.1614 37.2891 44.1897 37.2456 44.2201C37.1998 44.2505 37.1575 44.2837 37.1163 44.317C37.0751 44.3512 37.0364 44.3875 37.0001 44.4246C36.9635 44.4618 36.9297 44.5 36.8967 44.5401C36.8649 44.5802 36.8356 44.6213 36.8086 44.6634C36.7815 44.7055 36.7569 44.7496 36.7358 44.7936C36.7136 44.8377 36.6935 44.8837 36.6771 44.9287C36.6607 44.9747 36.6465 45.0216 36.6348 45.0686C36.6231 45.1156 36.6149 45.1635 36.609 45.2105C36.6032 45.2585 36.6008 45.3074 36.6008 45.3553C36.6008 45.4033 36.6033 45.4512 36.609 45.4992C36.6149 45.5471 36.6231 45.5951 36.6348 45.6421C36.6466 45.689 36.6607 45.736 36.6771 45.781C36.6935 45.827 36.7136 45.872 36.7358 45.9161C36.7569 45.9611 36.7816 46.0042 36.8086 46.0463C36.8356 46.0883 36.8649 46.1304 36.8967 46.1696C36.9297 46.2097 36.9635 46.2489 37.0001 46.2861C37.0365 46.3233 37.0752 46.3595 37.1163 46.3927C37.1575 46.427 37.1998 46.4593 37.2456 46.4896C37.2891 46.52 37.3362 46.5493 37.3842 46.5757C37.4324 46.6022 37.4817 46.6266 37.5323 46.6492C37.5829 46.6717 37.6357 46.6922 37.6886 46.7108C37.7413 46.7284 37.7953 46.7451 37.8506 46.7588C37.9058 46.7734 37.9621 46.7852 38.0186 46.794C38.0749 46.8038 38.1325 46.8106 38.1888 46.8156C38.2464 46.8205 38.3051 46.8234 38.3625 46.8234C38.42 46.8234 38.4776 46.8205 38.5352 46.8156C38.5927 46.8107 38.6502 46.8039 38.7067 46.794C38.7629 46.7852 38.8181 46.7735 38.8734 46.7588C38.9286 46.7451 38.9827 46.7284 39.0355 46.7108C39.0884 46.6922 39.1411 46.6716 39.1917 46.6492C39.2422 46.6266 39.2926 46.6022 39.3397 46.5757C39.3879 46.5493 39.4349 46.52 39.4795 46.4896C39.5242 46.4592 39.5677 46.427 39.6075 46.3927C39.6486 46.3594 39.6874 46.3232 39.7236 46.2861C39.7602 46.2489 39.7952 46.2097 39.8271 46.1696C39.8589 46.1304 39.8882 46.0883 39.9152 46.0463C39.9422 46.0042 39.9668 45.9611 39.9892 45.9161C40.0103 45.872 40.0303 45.827 40.0466 45.781C40.0642 45.736 40.0785 45.689 40.0889 45.6421C40.1007 45.5951 40.1088 45.5471 40.1148 45.4992C40.1208 45.4512 40.1242 45.4033 40.1242 45.3553C40.1243 45.3074 40.1209 45.2585 40.1149 45.2105Z" fill="#DEA033"/>
</svg>
