<svg width="60" height="51" viewBox="0 0 60 51" fill="none" xmlns="http://www.w3.org/2000/svg">
<g clip-path="url(#clip0)">
<path d="M59.1085 36.179C57.9858 34.5829 55.5317 34.0351 53.6017 34.9498L45.0214 39.0759C44.37 37.8771 42.9388 37.1059 41.3595 37.1027H29.4318L25.7139 36.0699C24.1729 35.6415 22.5592 35.4229 20.9347 35.4233H20.0772C17.3378 35.4233 14.6495 36.0441 12.3008 37.2187L10.8529 37.9423H10.1242C10.1242 37.4786 9.67309 37.1027 9.11665 37.1027H1.05593C0.499492 37.1027 0.0483398 37.4786 0.0483398 37.9423V49.6975C0.0483398 50.1612 0.499492 50.5372 1.05593 50.5372H9.11665C9.67309 50.5372 10.1242 50.1612 10.1242 49.6975H17.7127C17.9882 49.6975 18.2632 49.7111 18.5367 49.7377L30.5481 50.9136C31.1262 50.9697 31.7082 50.998 32.2902 50.9972C34.9504 50.9972 37.5639 50.4158 39.8703 49.3113L57.632 40.7688C58.8856 40.1731 59.6561 39.0608 59.6472 37.8583C59.6462 37.2691 59.4603 36.6902 59.1085 36.179ZM8.10906 48.8579H2.06352V38.782H8.10906V48.8579ZM56.6244 39.3141L38.8627 47.8604C36.4156 49.0309 33.5827 49.5167 30.7798 49.2474L18.7685 48.0719C18.4182 48.0371 18.0654 48.019 17.7127 48.0182H10.1242V39.6216H11.1318C11.3149 39.6216 11.4939 39.5802 11.6509 39.5015L13.3374 38.6618C15.3728 37.6426 17.7028 37.1039 20.0772 37.1027H20.9347C22.3423 37.1027 23.7405 37.2917 25.0757 37.6627L28.9501 38.7393C29.053 38.7676 29.1602 38.782 29.2685 38.782H41.3595C42.4724 38.782 43.3747 39.5339 43.3747 40.4613C43.3747 41.3887 42.4724 42.1406 41.3595 42.1406H26.2457V43.8199H41.3595C43.3944 43.8146 45.1036 42.544 45.3417 40.8602L54.6053 36.4049C55.2287 36.1052 55.9967 36.1047 56.62 36.4049C57.2434 36.7046 57.6276 37.2585 57.6281 37.8583C57.6335 38.4589 57.2498 39.0153 56.6244 39.3141Z" fill="#DEA033"/>
<path d="M15.1622 33.744H45.3899C47.0592 33.744 48.4127 32.6161 48.4127 31.225C48.4127 29.8339 47.0592 28.7061 45.3899 28.7061V19.4698C45.3805 14.6344 40.8995 10.6222 35.1128 10.268C35.6446 9.1188 35.0793 7.81872 33.7873 7.22014L37.1963 2.2568C37.3764 1.99687 37.3764 1.67626 37.1958 1.41632C37.0153 1.15639 36.6822 0.996905 36.3216 0.997315H24.2305C23.8704 0.996905 23.5368 1.15639 23.3567 1.41632C23.1762 1.67626 23.1757 1.99687 23.3557 2.2568L26.7618 7.22342C25.4698 7.822 24.9045 9.12208 25.4368 10.2713C19.6521 10.6267 15.1735 14.6364 15.1622 19.4698V28.7061C13.4929 28.7061 12.1394 29.8339 12.1394 31.225C12.1394 32.6161 13.4929 33.744 15.1622 33.744ZM27.2533 9.3939C27.2533 8.9302 27.7044 8.55424 28.2609 8.55424H32.2912C32.8477 8.55424 33.2988 8.9302 33.2988 9.3939C33.2988 9.8576 32.8477 10.2336 32.2912 10.2336H28.2609C27.7044 10.2336 27.2533 9.8576 27.2533 9.3939ZM34.5844 2.67663L31.7067 6.87493H28.8453L25.9677 2.67663H34.5844ZM15.1622 30.3854C16.2751 30.3854 17.1774 29.6334 17.1774 28.7061V19.4698C17.1828 15.2982 21.2397 11.9174 26.2457 11.9129H34.3064C39.3124 11.9174 43.3693 15.2982 43.3747 19.4698V28.7061C43.3747 29.6334 44.277 30.3854 45.3899 30.3854C45.9463 30.3854 46.3975 30.7613 46.3975 31.225C46.3975 31.6887 45.9463 32.0647 45.3899 32.0647H15.1622C14.6057 32.0647 14.1546 31.6887 14.1546 31.225C14.1546 30.7613 14.6057 30.3854 15.1622 30.3854Z" fill="#DEA033"/>
<path d="M30.2759 24.5078C29.7195 24.5078 29.2684 24.1318 29.2684 23.6681H27.2532C27.2586 24.7316 28.065 25.6779 29.2684 26.0325V27.8664H31.2835V26.0325C32.6705 25.6254 33.5029 24.4442 33.2539 23.2364C33.0045 22.0286 31.7465 21.1467 30.2759 21.1492C29.7195 21.1492 29.2684 20.7732 29.2684 20.3095C29.2684 19.8458 29.7195 19.4698 30.2759 19.4698C30.8324 19.4698 31.2835 19.8458 31.2835 20.3095H33.2987C33.2933 19.246 32.4869 18.2997 31.2835 17.9451V16.1112H29.2684V17.9451C27.8814 18.3522 27.049 19.5334 27.2984 20.7412C27.5474 21.949 28.8054 22.8309 30.2759 22.8285C30.8324 22.8285 31.2835 23.2044 31.2835 23.6681C31.2835 24.1318 30.8324 24.5078 30.2759 24.5078Z" fill="#DEA033"/>
<path d="M35.314 21.9888H37.3292V23.6681H35.314V21.9888Z" fill="#DEA033"/>
<path d="M23.2229 21.9888H25.2381V23.6681H23.2229V21.9888Z" fill="#DEA033"/>
</g>
<defs>
<clipPath id="clip0">
<rect width="60" height="50" fill="white" transform="translate(0 0.997314)"/>
</clipPath>
</defs>
</svg>
