<svg width="70" height="52" viewBox="0 0 70 52" fill="none" xmlns="http://www.w3.org/2000/svg">
<path d="M68.3175 51.2841H39.4216C38.9756 51.2841 38.6142 50.9255 38.6142 50.4829V46.8221C38.6142 46.3795 38.9756 46.0209 39.4216 46.0209H68.3178C68.7638 46.0209 69.1252 46.3795 69.1252 46.8221V50.4829C69.1248 50.9255 68.7635 51.2841 68.3175 51.2841ZM40.2289 49.6816H67.5105V47.6234H40.2289V49.6816ZM1.43325 37.6363C1.09093 37.6363 0.773474 37.4187 0.66432 37.078L-0.836716 32.3971C-0.972029 31.9754 -0.73725 31.5247 -0.312258 31.3904L24.0208 23.7046C24.2243 23.6401 24.4461 23.6587 24.6363 23.7565C24.8265 23.8542 24.9699 24.0228 25.0345 24.2251L25.1931 24.7193L37.3641 20.8752L37.0583 19.9217C36.9934 19.7192 37.0118 19.4993 37.1103 19.3105C37.2088 19.1218 37.3787 18.9795 37.5828 18.915L39.7213 18.2397L39.3257 17.0061C39.2608 16.8036 39.2792 16.5837 39.3777 16.395C39.4762 16.2062 39.646 16.0639 39.8501 15.9995L41.1351 15.5937L40.4786 13.5464L40.384 13.5762C40.1815 13.6403 39.9716 13.6726 39.76 13.6726C38.8606 13.6726 38.073 13.1009 37.8004 12.2503L37.0257 9.83307C36.3462 7.71393 37.5304 5.44127 39.6657 4.76694L52.463 0.724815C52.8637 0.598218 53.2784 0.534119 53.696 0.534119C55.4725 0.534119 57.0281 1.66356 57.5671 3.34489L58.3421 5.76209C58.6857 6.8348 58.0864 7.98507 57.0061 8.3264L56.9115 8.35621L57.568 10.4036L58.853 9.99748C59.0574 9.93338 59.2787 9.95165 59.4689 10.0494C59.6591 10.1472 59.8025 10.3157 59.8671 10.518L62.9437 20.1121C63.0086 20.3147 62.9902 20.5345 62.8917 20.7233C62.7932 20.9121 62.6234 21.0544 62.4193 21.1188L61.1343 21.5249L61.7905 23.5722L61.8848 23.5424C62.0876 23.4783 62.2975 23.4459 62.5091 23.4459C63.4081 23.4459 64.1958 24.0174 64.4687 24.8683L65.2437 27.2855C65.5731 28.3121 65.4795 29.4043 64.9812 30.3613C64.4826 31.3183 63.6384 32.025 62.604 32.3516L49.8071 36.3934C49.4063 36.52 48.9917 36.5841 48.5744 36.5841C48.5741 36.5841 48.5741 36.5841 48.5741 36.5841C46.7976 36.5841 45.2417 35.4547 44.7027 33.7734L43.9276 31.3561C43.761 30.8369 43.8084 30.2841 44.0607 29.7998C44.3129 29.3155 44.7401 28.9579 45.2639 28.7922L45.3582 28.7624L44.702 26.715L43.417 27.1211C42.9933 27.2544 42.538 27.0224 42.403 26.6006L42.0071 25.367L39.8685 26.0423C39.4445 26.1759 38.9895 25.9436 38.8545 25.5218L38.5487 24.568L26.3776 28.4121L26.5359 28.9063C26.6712 29.328 26.4364 29.7787 26.0114 29.9129L1.67804 37.5985C1.59698 37.6241 1.51463 37.6363 1.43325 37.6363ZM0.946571 32.6744L1.95803 35.8284L24.7526 28.6287L23.7411 25.4747L0.946571 32.6744ZM54.0644 27.6938L45.7535 30.3187C45.6411 30.3543 45.5494 30.4312 45.4952 30.535C45.4409 30.6389 45.4309 30.7578 45.4664 30.8693L46.2415 33.2868C46.5664 34.2999 47.5039 34.981 48.5744 34.981C48.5744 34.981 48.5744 34.981 48.5747 34.981C48.8253 34.981 49.0756 34.9422 49.3182 34.8656L62.1151 30.8238C62.7383 30.627 63.247 30.2011 63.5476 29.6242C63.8483 29.0473 63.9042 28.3893 63.7062 27.7704L62.9311 25.3532C62.8582 25.1276 62.6088 24.9946 62.3754 25.0683L54.0644 27.6938ZM46.2408 26.2288L46.8971 28.2758L60.2523 24.0578L59.5961 22.0104L46.2408 26.2288ZM25.6833 26.2464L25.888 26.8849L38.0591 23.0408L37.8544 22.4024L25.6833 26.2464ZM42.5667 21.8271L43.6967 25.3506L61.1608 19.8345L58.5737 11.7676L41.1096 17.2837L41.5046 18.5151C41.5049 18.5157 41.5052 18.5163 41.5052 18.5173L42.5667 21.8271ZM38.8422 20.199L40.1485 24.2718L41.5175 23.8395L40.2115 19.7666L38.8422 20.199ZM42.0177 13.0605L42.6743 15.1078L56.0295 10.8894L55.373 8.84208L42.0177 13.0605ZM53.696 2.13661C53.445 2.13661 53.1947 2.17539 52.9522 2.25199L40.1553 6.2938C38.8687 6.70019 38.155 8.07 38.5642 9.34687L39.3392 11.7641C39.4116 11.99 39.6622 12.1227 39.8944 12.049L56.5165 6.79923C56.7487 6.72583 56.8776 6.47841 56.8036 6.24797L56.0289 3.83077C55.7037 2.81735 54.7662 2.13661 53.696 2.13661Z" fill="#DEA033"/>
</svg>
