<svg width="60" height="51" viewBox="0 0 60 51" fill="none" xmlns="http://www.w3.org/2000/svg">
<g clip-path="url(#clip0)">
<path d="M58.4509 16.7324C56.3949 15.0189 53.0493 15.019 50.9925 16.7328C50.36 17.2604 46.3211 20.6289 45.7041 21.1435V9.53501C45.7041 8.36118 45.1555 7.25767 44.1595 6.42769L39.1878 2.28442C38.1918 1.45435 36.8675 0.997314 35.4589 0.997314H5.27441C2.36664 0.997314 0.000976562 2.9687 0.000976562 5.39185V46.6028C0.000976562 49.0259 2.36664 50.9973 5.27441 50.9973H40.4307C43.3384 50.9973 45.7041 49.0259 45.7041 46.6028V33.5785L58.4508 22.9472C60.5118 21.2298 60.5123 18.45 58.4509 16.7324ZM35.1573 3.927C35.4895 3.927 36.1294 3.87905 36.7019 4.35601L41.6737 8.49927C42.2315 8.96421 42.1886 9.47368 42.1886 9.78638H35.1573V3.927ZM42.1885 46.6028C42.1885 47.4105 41.4 48.0676 40.4307 48.0676H5.27441C4.30516 48.0676 3.5166 47.4105 3.5166 46.6028V5.39185C3.5166 4.58413 4.30516 3.927 5.27441 3.927H31.6416V11.2512C31.6416 12.0602 32.4286 12.7161 33.3994 12.7161H42.1885V24.0757C42.1885 24.0757 37.0025 28.4011 37.0022 28.4012L34.5175 30.4719C34.3246 30.6327 34.1791 30.8288 34.0928 31.0445L31.6068 37.2593C31.3962 37.7857 31.5606 38.3661 32.0315 38.7584C32.5029 39.1512 33.1996 39.2875 33.8303 39.1123L41.2881 37.0407C41.547 36.9688 41.7823 36.8476 41.9752 36.6868L42.1885 36.509V46.6028ZM38.2463 31.5078L40.7322 33.5793L39.7826 34.3707L36.0538 35.4064L37.2967 32.299L38.2463 31.5078ZM43.2176 31.5073L40.7317 29.4357C42.0555 28.3317 47.9346 23.4282 49.1815 22.3882L51.6674 24.4598L43.2176 31.5073ZM55.9645 20.876L54.1524 22.3874L51.6665 20.3158L53.4791 18.804C54.1649 18.2328 55.2798 18.2329 55.9652 18.804C56.6504 19.3752 56.654 20.3013 55.9645 20.876Z" fill="#DEA033"/>
<path d="M33.4009 15.6458H8.7915C7.82072 15.6458 7.03369 16.3016 7.03369 17.1106C7.03369 17.9196 7.82072 18.5754 8.7915 18.5754H33.4009C34.3717 18.5754 35.1587 17.9196 35.1587 17.1106C35.1587 16.3016 34.3717 15.6458 33.4009 15.6458Z" fill="#DEA033"/>
<path d="M26.3696 21.5051H8.7915C7.82072 21.5051 7.03369 22.161 7.03369 22.97C7.03369 23.779 7.82072 24.4348 8.7915 24.4348H26.3696C27.3404 24.4348 28.1274 23.779 28.1274 22.97C28.1274 22.161 27.3404 21.5051 26.3696 21.5051Z" fill="#DEA033"/>
<path d="M26.3696 27.3645H8.7915C7.82072 27.3645 7.03369 28.0204 7.03369 28.8293C7.03369 29.6383 7.82072 30.2942 8.7915 30.2942H26.3696C27.3404 30.2942 28.1274 29.6383 28.1274 28.8293C28.1274 28.0204 27.3404 27.3645 26.3696 27.3645Z" fill="#DEA033"/>
<path d="M26.3696 33.2239H8.7915C7.82072 33.2239 7.03369 33.8797 7.03369 34.6887C7.03369 35.4977 7.82072 36.1536 8.7915 36.1536H26.3696C27.3404 36.1536 28.1274 35.4977 28.1274 34.6887C28.1274 33.8797 27.3404 33.2239 26.3696 33.2239Z" fill="#DEA033"/>
<path d="M33.4009 42.2083H22.854C21.8832 42.2083 21.0962 42.8641 21.0962 43.6731C21.0962 44.4821 21.8832 45.1379 22.854 45.1379H33.4009C34.3717 45.1379 35.1587 44.4821 35.1587 43.6731C35.1587 42.8641 34.3717 42.2083 33.4009 42.2083Z" fill="#DEA033"/>
</g>
<defs>
<clipPath id="clip0">
<rect y="0.997314" width="60" height="50" rx="8" fill="white"/>
</clipPath>
</defs>
</svg>
