<svg width="60" height="50" viewBox="0 0 60 50" fill="none" xmlns="http://www.w3.org/2000/svg">
<g clip-path="url(#clip0)">
<path d="M59.8897 11.8565C59.6832 11.2165 59.1794 10.671 58.49 10.3402C57.8002 10.0078 56.98 9.91794 56.2106 10.09C55.4422 10.2625 54.7875 10.682 54.3906 11.2564L53.8907 11.9814C53.4157 11.754 52.8089 11.8878 52.5311 12.2816L49.9915 15.889L49.1215 15.4724C48.8911 15.3613 48.6167 15.3312 48.3599 15.389C48.1026 15.4472 47.8839 15.588 47.7516 15.7808C47.4807 16.1791 47.6457 16.6852 48.1217 16.9138L48.9916 17.3304L40.4931 29.6033L38.3933 34.2778L37.3935 35.8356C36.8082 36.6842 36.8707 37.7391 37.5536 38.5353L35.304 40.8347L34.6743 39.5186C34.3901 38.932 33.7325 38.53 32.9763 38.4808C32.2196 38.4312 31.4946 38.7428 31.1046 39.2851L30.7447 39.7932L30.405 36.4605C30.3269 35.672 29.5941 35.0382 28.6518 34.943C27.7091 34.8482 26.8167 35.3189 26.5155 36.0691L24.0559 42.2179C23.8841 42.6528 24.1653 43.1215 24.6857 43.268C24.7834 43.3058 24.8883 43.3286 24.9957 43.3343C25.4253 43.3355 25.8081 43.1073 25.9458 42.768L28.3951 36.6191L28.7451 40.0015C28.8173 40.7232 29.4398 41.3233 30.2863 41.4869C31.1329 41.6504 32.0087 41.3396 32.4544 40.7184L32.8245 40.2098L33.4445 41.5182C33.7076 42.0695 34.3027 42.4629 35.0072 42.5503C35.7117 42.6378 36.4186 42.4063 36.8638 41.9429L39.1935 39.4853C39.4513 39.5414 39.7169 39.5695 39.9834 39.5687C41.055 39.5756 42.05 39.1053 42.5928 38.3351L43.5927 36.9438L47.4021 33.0862L55.9904 20.6632L56.8604 21.0798C57.0923 21.1904 57.2612 21.3731 57.3301 21.5883C57.3994 21.8019 57.3633 22.0297 57.2305 22.2213L53.2312 27.9955C53.0803 28.1851 53.029 28.4178 53.0896 28.6399C53.1501 28.8617 53.3166 29.0533 53.5509 29.17C53.7814 29.2815 54.0557 29.3116 54.3125 29.2538C54.5698 29.1957 54.7885 29.0549 54.9208 28.8621L58.9201 23.0879C59.319 22.513 59.4269 21.8296 59.2199 21.1884C59.0129 20.548 58.5095 20.0025 57.8202 19.6717L56.9502 19.2551L59.4498 15.6474C59.7227 15.2515 59.5621 14.7462 59.09 14.5143L59.5899 13.7893C59.9995 13.2055 60.1079 12.5082 59.8897 11.8565ZM56.1203 12.0896C56.2526 11.8968 56.4723 11.7556 56.7306 11.6982C56.9873 11.6453 57.2588 11.675 57.4902 11.7816C57.7221 11.8919 57.891 12.075 57.9603 12.2898C58.0238 12.5038 57.9882 12.73 57.8602 12.9228L57.3603 13.6478L55.6204 12.8146L56.1203 12.0896ZM42.4927 35.3527L41.9928 35.111L40.5131 34.3942L41.9328 31.2282L45.0822 32.7445L42.4927 35.3527ZM39.4933 37.7603C39.071 37.515 38.9411 37.043 39.1935 36.6688L39.6934 35.9442L41.4329 36.7774L40.933 37.4938C40.7928 37.6964 40.5575 37.8404 40.2837 37.8913C40.0098 37.9417 39.7232 37.8945 39.4933 37.7603ZM46.2221 31.3783L42.7627 29.7119L50.7614 18.1636L54.2207 19.83L46.2221 31.3783ZM55.2206 18.3886L51.7612 16.7222L53.7608 13.8394L57.2202 15.5058L55.2206 18.3886Z" fill="#DEA033"/>
<path d="M15.7771 37.3437L12.2381 40.2851L10.1184 38.5186C9.72829 38.1956 9.09852 38.1956 8.70845 38.5186C8.51902 38.6752 8.4126 38.888 8.4126 39.1102C8.4126 39.3323 8.51902 39.5455 8.70845 39.7017L10.8282 41.4681C11.2031 41.7781 11.7099 41.9519 12.2381 41.9515C12.7693 41.9539 13.2804 41.7802 13.6578 41.4681L17.187 38.5186C17.5268 38.1879 17.5038 37.6952 17.1347 37.3876C16.7652 37.0797 16.174 37.0605 15.7771 37.3437Z" fill="#DEA033"/>
<path d="M3.99933 39.5849C3.99933 43.4966 7.80434 46.667 12.4979 46.667C17.1914 46.667 20.9964 43.4966 20.9964 39.5849C20.9964 39.1248 20.5488 38.7517 19.9966 38.7517C19.4445 38.7517 18.9968 39.1248 18.9968 39.5849C18.9968 42.5759 16.0871 45.0007 12.4979 45.0007C8.90865 45.0007 5.99899 42.5759 5.99899 39.5849C5.99899 36.5939 8.90865 34.1692 12.4979 34.1692C13.9049 34.1659 15.2743 34.5463 16.3971 35.2526C16.8389 35.5288 17.4658 35.454 17.7968 35.0858C18.1283 34.7176 18.0389 34.1956 17.5971 33.9194C15.0219 32.31 11.5762 32.0512 8.69726 33.2506C5.81787 34.4503 3.99933 36.9027 3.99933 39.5849Z" fill="#DEA033"/>
<path d="M35.9939 6.67386C36.546 6.67386 36.9937 6.3012 36.9937 5.84067C36.9937 5.38054 36.546 5.00748 35.9939 5.00748H9.9983C9.44615 5.00748 8.99847 5.38054 8.99847 5.84067V9.17343C8.99847 9.63397 9.44615 10.0066 9.9983 10.0066H35.9939C36.546 10.0066 36.9937 9.63397 36.9937 9.17343C36.9937 8.71331 36.546 8.34024 35.9939 8.34024H10.9981V6.67386H35.9939Z" fill="#DEA033"/>
<path d="M12.9978 11.673C12.4456 11.673 11.9979 12.0461 11.9979 12.5062C11.9979 12.9667 12.4456 13.3394 12.9978 13.3394H32.9943C33.5465 13.3394 33.9942 12.9667 33.9942 12.5062C33.9942 12.0461 33.5465 11.673 32.9943 11.673H12.9978Z" fill="#DEA033"/>
<path d="M38.9933 17.5053H16.9971C16.4449 17.5053 15.9973 17.8784 15.9973 18.3385C15.9973 18.7991 16.4449 19.1717 16.9971 19.1717H38.9933C39.5455 19.1717 39.9932 18.7991 39.9932 18.3385C39.9932 17.8784 39.5455 17.5053 38.9933 17.5053Z" fill="#DEA033"/>
<path d="M28.9951 23.3377C28.9951 22.8776 28.5474 22.5045 27.9953 22.5045H7.99867C7.44652 22.5045 6.99884 22.8776 6.99884 23.3377C6.99884 23.7982 7.44652 24.1709 7.99867 24.1709H27.9953C28.5474 24.1709 28.9951 23.7982 28.9951 23.3377Z" fill="#DEA033"/>
<path d="M38.9933 22.5045H31.9945C31.4424 22.5045 30.9947 22.8776 30.9947 23.3377C30.9947 23.7982 31.4424 24.1709 31.9945 24.1709H38.9933C39.5455 24.1709 39.9931 23.7982 39.9931 23.3377C39.9931 22.8776 39.5455 22.5045 38.9933 22.5045Z" fill="#DEA033"/>
<path d="M17.997 28.3368C18.5491 28.3368 18.9968 27.9642 18.9968 27.5036C18.9968 27.0435 18.5491 26.6705 17.997 26.6705H7.99867C7.44652 26.6705 6.99884 27.0435 6.99884 27.5036C6.99884 27.9642 7.44652 28.3368 7.99867 28.3368H17.997Z" fill="#DEA033"/>
<path d="M21.9963 28.3368H28.9951C29.5472 28.3368 29.9949 27.9642 29.9949 27.5036C29.9949 27.0435 29.5472 26.6705 28.9951 26.6705H21.9963C21.4441 26.6705 20.9965 27.0435 20.9965 27.5036C20.9965 27.9642 21.4441 28.3368 21.9963 28.3368Z" fill="#DEA033"/>
<path d="M44.9923 38.3351C44.4402 38.3351 43.9925 38.7082 43.9925 39.1683V47.5002C43.9925 47.9608 43.5448 48.3334 42.9927 48.3334H2.99949C2.44734 48.3334 1.99966 47.9608 1.99966 47.5002V2.50791C1.99966 2.04778 2.44734 1.67471 2.99949 1.67471H42.9927C43.5448 1.67471 43.9925 2.04778 43.9925 2.50791V18.1555C43.9925 18.6156 44.4402 18.9887 44.9923 18.9887C45.5445 18.9887 45.9922 18.6156 45.9922 18.1555V2.50791C45.9922 1.12753 44.6491 0.0083313 42.9927 0.0083313H2.99949C1.34303 0.0083313 0 1.12753 0 2.50791V47.5002C0 48.881 1.34303 49.9998 2.99949 49.9998H42.9927C44.6491 49.9998 45.9922 48.881 45.9922 47.5002V39.1683C45.9922 38.7082 45.5445 38.3351 44.9923 38.3351Z" fill="#DEA033"/>
</g>
<defs>
<clipPath id="clip0">
<rect width="60" height="50" rx="8" fill="white"/>
</clipPath>
</defs>
</svg>
