<svg width="60" height="50" viewBox="0 0 60 50" fill="none" xmlns="http://www.w3.org/2000/svg">
<path d="M58.4508 15.7351C56.3948 14.0216 53.0492 14.0217 50.9924 15.7354C50.3598 16.2631 46.321 19.6315 45.704 20.1462V8.5377C45.704 7.36387 45.1554 6.26035 44.1593 5.43037L39.1876 1.28711C38.1917 0.457031 36.8673 0 35.4587 0H5.27429C2.36652 0 0.000854492 1.97139 0.000854492 4.39453V45.6055C0.000854492 48.0286 2.36652 50 5.27429 50H40.4305C43.3383 50 45.704 48.0286 45.704 45.6055V32.5812L58.4507 21.9499C60.5117 20.2325 60.5121 17.4526 58.4508 15.7351ZM35.1572 2.92969C35.4893 2.92969 36.1293 2.88174 36.7018 3.35869L41.6735 7.50195C42.2314 7.96689 42.1885 8.47637 42.1885 8.78906H35.1572V2.92969ZM42.1884 45.6055C42.1884 46.4132 41.3999 47.0703 40.4305 47.0703H5.27429C4.30503 47.0703 3.51648 46.4132 3.51648 45.6055V4.39453C3.51648 3.58682 4.30503 2.92969 5.27429 2.92969H31.6415V10.2539C31.6415 11.0629 32.4285 11.7188 33.3993 11.7188H42.1884V23.0784C42.1884 23.0784 37.0023 27.4038 37.0021 27.4039L34.5174 29.4746C34.3245 29.6354 34.1789 29.8314 34.0927 30.0472L31.6067 36.262C31.3961 36.7884 31.5605 37.3688 32.0314 37.761C32.5028 38.1539 33.1995 38.2902 33.8302 38.1149L41.288 36.0434C41.5469 35.9715 41.7822 35.8503 41.9751 35.6895L42.1884 35.5117V45.6055ZM38.2462 30.5104L40.7321 32.582L39.7825 33.3733L36.0537 34.4091L37.2966 31.3017L38.2462 30.5104ZM43.2175 30.51L40.7316 28.4384C42.0553 27.3344 47.9345 22.4309 49.1814 21.3909L51.6673 23.4625L43.2175 30.51ZM55.9643 19.8787L54.1523 21.39L51.6664 19.3185L53.479 17.8066C54.1648 17.2354 55.2797 17.2355 55.965 17.8066C56.6502 18.3779 56.6539 19.304 55.9643 19.8787Z" fill="#DEA033"/>
<path d="M33.4005 14.6484H8.79114C7.82036 14.6484 7.03333 15.3043 7.03333 16.1133C7.03333 16.9223 7.82036 17.5781 8.79114 17.5781H33.4005C34.3713 17.5781 35.1583 16.9223 35.1583 16.1133C35.1583 15.3043 34.3713 14.6484 33.4005 14.6484Z" fill="#DEA033"/>
<path d="M26.3693 20.5078H8.79114C7.82036 20.5078 7.03333 21.1637 7.03333 21.9727C7.03333 22.7816 7.82036 23.4375 8.79114 23.4375H26.3693C27.34 23.4375 28.1271 22.7816 28.1271 21.9727C28.1271 21.1637 27.34 20.5078 26.3693 20.5078Z" fill="#DEA033"/>
<path d="M26.3693 26.3672H8.79114C7.82036 26.3672 7.03333 27.023 7.03333 27.832C7.03333 28.641 7.82036 29.2969 8.79114 29.2969H26.3693C27.34 29.2969 28.1271 28.641 28.1271 27.832C28.1271 27.023 27.34 26.3672 26.3693 26.3672Z" fill="#DEA033"/>
<path d="M26.3693 32.2266H8.79114C7.82036 32.2266 7.03333 32.8824 7.03333 33.6914C7.03333 34.5004 7.82036 35.1562 8.79114 35.1562H26.3693C27.34 35.1562 28.1271 34.5004 28.1271 33.6914C28.1271 32.8824 27.34 32.2266 26.3693 32.2266Z" fill="#DEA033"/>
<path d="M33.4005 41.2109H22.8536C21.8829 41.2109 21.0958 41.8668 21.0958 42.6758C21.0958 43.4848 21.8829 44.1406 22.8536 44.1406H33.4005C34.3713 44.1406 35.1583 43.4848 35.1583 42.6758C35.1583 41.8668 34.3713 41.2109 33.4005 41.2109Z" fill="#DEA033"/>
</svg>
