<svg width="54" height="50" viewBox="0 0 54 50" fill="none" xmlns="http://www.w3.org/2000/svg">
<path d="M36.2523 13.4574H7.51925C7.03175 13.4574 6.6366 13.7867 6.6366 14.193C6.6366 14.5992 7.03175 14.9285 7.51925 14.9285H36.2525C36.74 14.9285 37.1351 14.5992 37.1351 14.193C37.1351 13.7867 36.7398 13.4574 36.2523 13.4574Z" fill="#DEA033"/>
<path d="M7.51925 9.82627H21.8857C22.3732 9.82627 22.7684 9.49697 22.7684 9.09072C22.7684 8.68447 22.3732 8.35517 21.8857 8.35517H7.51925C7.03175 8.35517 6.6366 8.68447 6.6366 9.09072C6.6366 9.49707 7.03175 9.82627 7.51925 9.82627Z" fill="#DEA033"/>
<path d="M36.2523 17.9781H7.51925C7.03175 17.9781 6.6366 18.3074 6.6366 18.7137C6.6366 19.1199 7.03175 19.4492 7.51925 19.4492H36.2525C36.74 19.4492 37.1351 19.1199 37.1351 18.7137C37.135 18.3074 36.7398 17.9781 36.2523 17.9781Z" fill="#DEA033"/>
<path d="M14.0646 44.8895H4.86928C3.36002 44.8895 2.13202 43.8662 2.13202 42.6085V3.75205C2.13202 2.49434 3.36002 1.471 4.86928 1.471H31.3602C31.4458 1.471 31.53 1.47754 31.6133 1.48691V6.07422C31.6133 8.14316 33.6332 9.82627 36.1158 9.82627H41.6205C41.6318 9.8958 41.6396 9.96602 41.6396 10.0373V22.5628C41.6396 22.969 42.0347 23.2983 42.5222 23.2983C43.0097 23.2983 43.4049 22.969 43.4049 22.5628V10.0374C43.4049 9.23057 43.0278 8.47197 42.3432 7.90137L33.9232 0.884766C33.2386 0.314258 32.3284 0 31.3602 0H4.86928C2.38655 0 0.366821 1.6832 0.366821 3.75205V42.6085C0.366821 44.6773 2.38667 46.3604 4.86928 46.3604H14.0646C14.5521 46.3604 14.9473 46.0312 14.9473 45.6249C14.9473 45.2187 14.5521 44.8895 14.0646 44.8895ZM40.3914 8.35527H36.1159C34.6067 8.35527 33.3787 7.33193 33.3787 6.07422V2.51133L40.3914 8.35527Z" fill="#DEA033"/>
<path d="M53.3623 36.0087L45.8836 25.4892C45.3386 24.7222 44.1524 24.4687 43.2315 24.9232L41.4124 25.8214C40.0004 26.5185 39.4036 27.9291 39.8884 29.1792C39.2755 29.3643 38.6036 29.3613 37.9848 29.162C36.5486 28.7854 35.4566 28.0279 33.6532 28.408C30.5911 29.0577 30.6841 29.0252 30.4071 29.1043C28.6141 28.2536 27.5364 28.0005 25.633 28.6141L23.9364 29.1606C23.1509 29.4136 22.2853 29.3536 21.5595 28.9952L21.0965 28.7678C21.3224 27.6396 20.722 26.4491 19.4508 25.8216C19.4508 25.8216 19.4508 25.8216 19.4507 25.8215L17.6317 24.9234C16.7134 24.4702 15.5237 24.7239 14.9797 25.4892L7.50083 36.0088C6.95579 36.7756 7.25907 37.7644 8.17969 38.2187L9.99868 39.1168C10.5491 39.3886 11.154 39.5178 11.7517 39.5178C12.4181 39.5178 13.0752 39.3568 13.637 39.0537L14.0161 39.2401L13.2157 40.1691C12.2619 41.2764 12.565 42.816 13.8939 43.6109C14.5084 43.9785 15.2804 44.1464 16.0788 44.0419C16.2055 44.659 16.6112 45.2365 17.2682 45.6297C17.8852 45.9988 18.6537 46.1669 19.4535 46.0619C19.5805 46.6785 19.986 47.2556 20.6426 47.6484C21.525 48.1763 22.6221 48.2373 23.5363 47.9119C23.7363 48.3449 24.084 48.7359 24.5691 49.0262C25.8356 49.7837 27.5803 49.5861 28.5645 48.6047L30.6914 49.6547C32.098 50.3493 33.9129 49.9633 34.7469 48.7897C34.9602 48.4897 35.0925 48.1628 35.1409 47.8268L35.1457 47.8292C36.5502 48.5224 38.3692 48.1343 39.2012 46.9642C39.4422 46.6252 39.5742 46.2575 39.6063 45.8891C40.8443 46.1484 42.1935 45.7151 42.8767 44.7542C43.1009 44.439 43.2308 44.0984 43.2736 43.7558C44.6004 44.1896 46.1511 43.7703 46.9004 42.7164C47.3034 42.1495 47.4175 41.4858 47.2214 40.8475C47.1093 40.4822 46.903 40.1507 46.6199 39.8707L47.7922 39.2999C48.784 39.6392 49.9158 39.5849 50.8643 39.1167L52.6831 38.2187C53.6037 37.7646 53.9078 36.776 53.3623 36.0087ZM10.8984 37.8513L9.07946 36.9531C8.9986 36.9132 8.97176 36.8259 9.01958 36.7585L16.4985 26.2387C16.5466 26.171 16.6518 26.149 16.7322 26.1889L18.551 27.0868C19.3593 27.4859 19.6122 28.3498 19.142 29.011L13.2075 37.3587C12.7338 38.0251 11.6981 38.2459 10.8984 37.8513ZM14.9232 42.4159C14.3872 42.0952 14.2647 41.4739 14.6497 41.0271L15.8262 39.6614C16.2009 39.2264 16.9478 39.1073 17.4928 39.4334C18.0278 39.7534 18.1505 40.3764 17.7666 40.8222L16.59 42.1878C16.206 42.6338 15.458 42.7357 14.9232 42.4159ZM18.2977 44.4348C17.7627 44.1146 17.64 43.4915 18.024 43.0458L19.2005 41.6803C19.2005 41.6803 19.2005 41.6803 19.2005 41.6802C19.2005 41.6802 19.2005 41.6801 19.2006 41.6801L20.4989 40.173C20.685 39.9571 20.9607 39.8144 21.2755 39.7714C21.3409 39.7624 21.4064 39.758 21.4715 39.758C21.7192 39.758 21.9602 39.8223 22.1656 39.945C22.4245 40.1001 22.5959 40.3298 22.6474 40.5921C22.6991 40.8545 22.6252 41.1179 22.4391 41.3338L19.9642 44.2066C19.5796 44.6534 18.8339 44.7557 18.2977 44.4348ZM21.6721 46.4534C21.1374 46.1335 21.0145 45.5108 21.3979 45.0651C21.398 45.0649 21.3982 45.0647 21.3983 45.0646L23.8732 42.1918C24.257 41.7461 25.0051 41.6438 25.5399 41.9637C26.0748 42.2837 26.1975 42.9067 25.8135 43.3525L24.7139 44.629C24.7139 44.629 24.7139 44.629 24.7138 44.6291L23.3386 46.2254C22.9546 46.6712 22.2072 46.7736 21.6721 46.4534ZM25.5986 47.8312C25.064 47.5112 24.941 46.8889 25.3241 46.4431L26.1478 45.487C26.5317 45.0411 27.2797 44.9392 27.8145 45.259C28.3493 45.5789 28.4721 46.2021 28.0881 46.6479L27.2651 47.603C26.8812 48.0489 26.1333 48.1513 25.5986 47.8312ZM45.382 41.9667C45.0462 42.4391 44.3121 42.5957 43.7452 42.3159C42.7852 41.842 36.5925 38.7847 35.9323 38.4587C35.5127 38.2517 34.9715 38.367 34.723 38.7165C34.4746 39.066 34.613 39.5172 35.0324 39.7242L40.939 42.6403L40.9391 42.6404C41.5062 42.9203 41.6953 43.5302 41.3582 44.0046C41.0222 44.4771 40.2878 44.6335 39.7211 44.3539C37.5365 43.2754 35.7626 42.3996 33.8113 41.4362C33.3916 41.2292 32.8505 41.3445 32.602 41.694C32.3536 42.0436 32.492 42.4947 32.9114 42.7018L37.2635 44.8504L37.2645 44.8509C37.8319 45.1316 38.0191 45.7412 37.6827 46.2146C37.3467 46.6872 36.6125 46.8438 36.0455 46.5639L33.7098 45.4108C33.7096 45.4107 33.7092 45.4106 33.709 45.4104C33.7088 45.4104 33.7085 45.4103 33.7083 45.4102L32.0038 44.5686C31.5843 44.3614 31.043 44.4768 30.7945 44.8264C30.5461 45.1759 30.6845 45.6271 31.1039 45.8341L32.8088 46.6758C32.809 46.6759 32.8092 46.6761 32.8095 46.6762C33.3765 46.9561 33.5657 47.5658 33.2285 48.0402C32.8925 48.5128 32.1584 48.6693 31.5913 48.3895L29.6025 47.4077C30.455 46.3114 30.1308 44.8341 28.844 44.0644C28.466 43.8384 28.0452 43.6977 27.6148 43.6372C28.0713 42.6199 27.6777 41.4322 26.5692 40.7691C25.913 40.3764 25.1272 40.2407 24.3857 40.3376C24.2537 39.6945 23.8317 39.1312 23.195 38.7505C21.9976 38.0344 20.3704 38.172 19.3652 39.0193C19.161 38.7204 18.879 38.4522 18.5223 38.2389C17.5273 37.6438 16.2354 37.6382 15.2503 38.1395L14.8459 37.9405L20.3971 30.132L20.6613 30.2619C21.8285 30.8381 23.2528 30.9582 24.5728 30.5328L26.2695 29.9862C27.2404 29.6735 27.7758 29.6531 28.7361 30.0308C28.1078 30.619 27.7348 31.3914 27.7348 32.2238V35.4851C27.7348 36.3513 28.5798 37.0564 29.6184 37.057H29.621C30.6628 37.057 31.6425 36.719 32.3795 36.1053C32.8091 35.7475 33.1262 35.3209 33.3163 34.8553C34.4559 35.4177 43.8716 40.0641 44.9632 40.603C45.2378 40.7386 45.4325 40.9551 45.5116 41.2127C45.5907 41.47 45.5447 41.7379 45.382 41.9667ZM51.7838 36.9531L49.9647 37.8513C49.165 38.2458 48.1293 38.0248 47.6558 37.3588L44.8743 33.4462C44.6257 33.0967 44.0841 32.9813 43.665 33.1882C43.2456 33.3952 43.1071 33.8464 43.3554 34.1959L46.137 38.1086C46.1893 38.1822 46.2462 38.2522 46.305 38.3205L45.5317 38.697C45.3754 38.7741 45.225 38.8591 45.0812 38.9514L33.0902 33.0339C32.5028 32.7441 31.7579 33.0974 31.7579 33.6667C31.7487 33.7106 31.8491 34.4667 31.1316 35.0645C30.728 35.4005 30.1915 35.5856 29.6209 35.5856C29.6204 35.5856 29.62 35.5856 29.6195 35.5856C29.5535 35.5856 29.4999 35.5403 29.4999 35.4847V32.2234C29.4999 31.3715 30.2032 30.6527 31.1544 30.4521L34.086 29.8338C35.1497 29.6098 35.751 30.0831 37.3437 30.5323C38.4493 30.8888 39.6516 30.8668 40.7187 30.487L41.2514 31.2364C41.5 31.5861 42.0414 31.7014 42.4607 31.4944C42.8801 31.2874 43.0186 30.8362 42.7703 30.4867L41.721 29.0108C41.2463 28.3431 41.5107 27.4825 42.312 27.0867L44.1309 26.1888C44.2104 26.1494 44.3155 26.1695 44.3647 26.2387L51.8434 36.7583C51.8917 36.8262 51.8651 36.913 51.7838 36.9531Z" fill="#DEA033"/>
</svg>
