<svg width="50" height="50" viewBox="0 0 50 50" fill="none" xmlns="http://www.w3.org/2000/svg">
<path d="M31.3107 14.5041H9.01802C8.04502 14.5041 7.25623 15.1614 7.25623 15.9723C7.25623 16.7831 8.04502 17.4404 9.01802 17.4404H31.3107C32.2837 17.4404 33.0725 16.7831 33.0725 15.9723C33.0725 15.1614 32.2836 14.5041 31.3107 14.5041Z" fill="#DEA033"/>
<path d="M31.3107 20.1675H9.01802C8.04502 20.1675 7.25623 20.8248 7.25623 21.6356C7.25623 22.4465 8.04502 23.1038 9.01802 23.1038H31.3107C32.2837 23.1038 33.0725 22.4465 33.0725 21.6356C33.0724 20.8248 32.2836 20.1675 31.3107 20.1675Z" fill="#DEA033"/>
<path d="M31.3107 26.057H9.01802C8.04502 26.057 7.25623 26.7144 7.25623 27.5252C7.25623 28.336 8.04502 28.9934 9.01802 28.9934H31.3107C32.2837 28.9934 33.0725 28.336 33.0725 27.5252C33.0724 26.7145 32.2836 26.057 31.3107 26.057Z" fill="#DEA033"/>
<path d="M17.9818 31.9017H9.01814C8.04514 31.9017 7.25635 32.559 7.25635 33.3698C7.25635 34.1807 8.04514 34.838 9.01814 34.838H17.9818C18.9548 34.838 19.7436 34.1807 19.7436 33.3698C19.7436 32.559 18.9547 31.9017 17.9818 31.9017Z" fill="#DEA033"/>
<path d="M40.1239 31.0575V4.13906C40.1239 1.85674 37.8958 0 35.1572 0H11.8744C11.3985 0 10.9501 0.153809 10.6063 0.437598L0.730059 8.66475C0.391153 8.94707 0.20459 9.32246 0.20459 9.72168V39.1322C0.20459 41.4146 2.43268 43.2713 5.17146 43.2713H27.4326C28.8709 47.1632 33.2262 50 38.362 50C44.6664 50 49.7954 45.7259 49.7954 40.4722C49.7957 35.7177 45.5949 31.7656 40.1239 31.0575ZM10.1127 5.00068V8.25361H10.1126H6.20775L10.1127 5.00068ZM26.931 40.3351H5.17158C4.37576 40.3351 3.7283 39.7956 3.7283 39.1323V11.1899H11.8744C12.8474 11.1899 13.6362 10.5326 13.6362 9.72178C13.6362 9.71025 13.6344 9.69902 13.634 9.6876C13.6344 9.67617 13.6362 9.66494 13.6362 9.65342V2.93633H35.1572C35.9529 2.93633 36.6005 3.47578 36.6005 4.13906V31.0575C31.1823 31.7588 27.011 35.642 26.931 40.3351ZM38.3621 47.0637C34.0006 47.0637 30.4524 44.1067 30.4524 40.4722C30.4524 36.8376 34.0006 33.8808 38.3621 33.8808C42.7236 33.8808 46.2719 36.8376 46.2719 40.4722C46.2721 44.1067 42.7236 47.0637 38.3621 47.0637Z" fill="#DEA033"/>
<path d="M38.3621 35.286C37.3891 35.286 36.6003 35.9434 36.6003 36.7542V40.4722C36.6003 41.283 37.3891 41.9403 38.3621 41.9403C39.3351 41.9403 40.1239 41.283 40.1239 40.4722V36.7542C40.1239 35.9434 39.3351 35.286 38.3621 35.286Z" fill="#DEA033"/>
<path d="M40.1149 44.2132C40.1091 44.1662 40.101 44.1183 40.089 44.0713C40.0785 44.0243 40.0644 43.9773 40.0467 43.9313C40.0303 43.8863 40.0103 43.8403 39.9893 43.7963C39.967 43.7522 39.9423 43.7082 39.9154 43.6661C39.8884 43.624 39.859 43.5829 39.8272 43.5428C39.7954 43.5026 39.7603 43.4645 39.7238 43.4272C39.6873 43.39 39.6486 43.3538 39.6076 43.3196C39.5677 43.2863 39.5242 43.253 39.4797 43.2228C39.4349 43.1924 39.388 43.1641 39.3398 43.1376C39.2929 43.1111 39.2423 43.0857 39.1918 43.0632C39.1412 43.0406 39.0885 43.0201 39.0356 43.0025C38.9828 42.984 38.9288 42.9673 38.8736 42.9536C38.8182 42.9399 38.7632 42.9281 38.7068 42.9184C38.6504 42.9096 38.5928 42.9018 38.5354 42.8968C38.4203 42.887 38.3039 42.887 38.1888 42.8968C38.1325 42.9017 38.0749 42.9095 38.0186 42.9184C37.9622 42.9281 37.9058 42.9398 37.8506 42.9536C37.7953 42.9673 37.7413 42.984 37.6886 43.0025C37.6357 43.0201 37.5829 43.0407 37.5323 43.0632C37.4817 43.0857 37.4324 43.1111 37.3842 43.1376C37.3362 43.1641 37.2891 43.1924 37.2456 43.2228C37.1998 43.2531 37.1575 43.2863 37.1163 43.3196C37.0751 43.3539 37.0364 43.3901 37.0001 43.4272C36.9635 43.4645 36.9297 43.5026 36.8967 43.5428C36.8649 43.5829 36.8356 43.624 36.8086 43.6661C36.7815 43.7082 36.7569 43.7522 36.7358 43.7963C36.7136 43.8403 36.6935 43.8863 36.6771 43.9313C36.6607 43.9773 36.6465 44.0243 36.6348 44.0713C36.6231 44.1183 36.6149 44.1662 36.609 44.2132C36.6032 44.2611 36.6008 44.3101 36.6008 44.358C36.6008 44.406 36.6033 44.4539 36.609 44.5019C36.6149 44.5498 36.6231 44.5978 36.6348 44.6447C36.6466 44.6917 36.6607 44.7387 36.6771 44.7837C36.6935 44.8297 36.7136 44.8747 36.7358 44.9187C36.7569 44.9638 36.7816 45.0068 36.8086 45.0489C36.8356 45.091 36.8649 45.1331 36.8967 45.1723C36.9297 45.2124 36.9635 45.2516 37.0001 45.2888C37.0365 45.326 37.0752 45.3622 37.1163 45.3954C37.1575 45.4297 37.1998 45.462 37.2456 45.4923C37.2891 45.5227 37.3362 45.552 37.3842 45.5784C37.4324 45.6049 37.4817 45.6293 37.5323 45.6519C37.5829 45.6744 37.6357 45.6949 37.6886 45.7135C37.7413 45.7311 37.7953 45.7478 37.8506 45.7614C37.9058 45.7761 37.9621 45.7879 38.0186 45.7967C38.0749 45.8064 38.1325 45.8133 38.1888 45.8183C38.2464 45.8231 38.3051 45.8261 38.3625 45.8261C38.42 45.8261 38.4776 45.8231 38.5352 45.8183C38.5927 45.8134 38.6502 45.8065 38.7067 45.7967C38.7629 45.7879 38.8181 45.7762 38.8734 45.7614C38.9286 45.7478 38.9827 45.7311 39.0355 45.7135C39.0884 45.6949 39.1411 45.6743 39.1917 45.6519C39.2422 45.6293 39.2926 45.6049 39.3397 45.5784C39.3879 45.552 39.4349 45.5227 39.4795 45.4923C39.5242 45.4619 39.5677 45.4297 39.6075 45.3954C39.6486 45.3621 39.6874 45.3259 39.7236 45.2888C39.7602 45.2516 39.7952 45.2124 39.8271 45.1723C39.8589 45.1331 39.8882 45.091 39.9152 45.0489C39.9422 45.0068 39.9668 44.9638 39.9892 44.9187C40.0103 44.8747 40.0303 44.8297 40.0466 44.7837C40.0642 44.7387 40.0785 44.6917 40.0889 44.6447C40.1007 44.5978 40.1088 44.5498 40.1148 44.5019C40.1208 44.4539 40.1242 44.406 40.1242 44.358C40.1243 44.3101 40.1209 44.2611 40.1149 44.2132Z" fill="#DEA033"/>
</svg>
