<svg width="60" height="50" viewBox="0 0 60 50" fill="none" xmlns="http://www.w3.org/2000/svg">
<g clip-path="url(#clip0)">
<path d="M59.1085 35.1816C57.9858 33.5855 55.5317 33.0378 53.6017 33.9525L45.0214 38.0786C44.37 36.8798 42.9388 36.1086 41.3595 36.1053H29.4318L25.7139 35.0725C24.1729 34.6441 22.5592 34.4256 20.9347 34.426H20.0772C17.3378 34.426 14.6495 35.0467 12.3008 36.2213L10.8529 36.945H10.1242C10.1242 36.4813 9.67309 36.1053 9.11665 36.1053H1.05593C0.499492 36.1053 0.0483398 36.4813 0.0483398 36.945V48.7002C0.0483398 49.1639 0.499492 49.5398 1.05593 49.5398H9.11665C9.67309 49.5398 10.1242 49.1639 10.1242 48.7002H17.7127C17.9882 48.7002 18.2632 48.7137 18.5367 48.7404L30.5481 49.9162C31.1262 49.9724 31.7082 50.0007 32.2902 49.9999C34.9504 49.9999 37.5639 49.4185 39.8703 48.314L57.632 39.7714C58.8856 39.1757 59.6561 38.0634 59.6472 36.8609C59.6462 36.2718 59.4603 35.6929 59.1085 35.1816ZM8.10906 47.8605H2.06352V37.7846H8.10906V47.8605ZM56.6244 38.3168L38.8627 46.863C36.4156 48.0335 33.5827 48.5194 30.7798 48.25L18.7685 47.0746C18.4182 47.0397 18.0654 47.0217 17.7127 47.0209H10.1242V38.6243H11.1318C11.3149 38.6243 11.4939 38.5829 11.6509 38.5042L13.3374 37.6645C15.3728 36.6453 17.7028 36.1065 20.0772 36.1053H20.9347C22.3423 36.1053 23.7405 36.2943 25.0757 36.6654L28.9501 37.742C29.053 37.7703 29.1602 37.7846 29.2685 37.7846H41.3595C42.4724 37.7846 43.3747 38.5365 43.3747 39.4639C43.3747 40.3913 42.4724 41.1433 41.3595 41.1433H26.2457V42.8226H41.3595C43.3944 42.8173 45.1036 41.5467 45.3417 39.8629L54.6053 35.4075C55.2287 35.1078 55.9967 35.1074 56.62 35.4075C57.2434 35.7072 57.6276 36.2611 57.6281 36.8609C57.6335 37.4616 57.2498 38.0179 56.6244 38.3168Z" fill="#DEA033"/>
<path d="M15.1622 32.7467H45.3899C47.0592 32.7467 48.4127 31.6188 48.4127 30.2277C48.4127 28.8366 47.0592 27.7087 45.3899 27.7087V18.4725C45.3805 13.637 40.8995 9.62489 35.1128 9.27065C35.6446 8.12145 35.0793 6.82138 33.7873 6.22279L37.1963 1.25946C37.3764 0.999525 37.3764 0.678913 37.1958 0.41898C37.0153 0.159046 36.6822 -0.000439719 36.3216 -2.9729e-05H24.2305C23.8704 -0.000439719 23.5368 0.159046 23.3567 0.41898C23.1762 0.678913 23.1757 0.999525 23.3557 1.25946L26.7618 6.22607C25.4698 6.82466 24.9045 8.12473 25.4368 9.27393C19.6521 9.6294 15.1735 13.6391 15.1622 18.4725V27.7087C13.4929 27.7087 12.1394 28.8366 12.1394 30.2277C12.1394 31.6188 13.4929 32.7467 15.1622 32.7467ZM27.2533 8.39656C27.2533 7.93286 27.7044 7.5569 28.2609 7.5569H32.2912C32.8477 7.5569 33.2988 7.93286 33.2988 8.39656C33.2988 8.86026 32.8477 9.23622 32.2912 9.23622H28.2609C27.7044 9.23622 27.2533 8.86026 27.2533 8.39656ZM34.5844 1.67929L31.7067 5.87758H28.8453L25.9677 1.67929H34.5844ZM15.1622 29.388C16.2751 29.388 17.1774 28.6361 17.1774 27.7087V18.4725C17.1828 14.3008 21.2397 10.92 26.2457 10.9155H34.3064C39.3124 10.92 43.3693 14.3008 43.3747 18.4725V27.7087C43.3747 28.6361 44.277 29.388 45.3899 29.388C45.9463 29.388 46.3975 29.764 46.3975 30.2277C46.3975 30.6914 45.9463 31.0673 45.3899 31.0673H15.1622C14.6057 31.0673 14.1546 30.6914 14.1546 30.2277C14.1546 29.764 14.6057 29.388 15.1622 29.388Z" fill="#DEA033"/>
<path d="M30.2761 23.5104C29.7196 23.5104 29.2685 23.1345 29.2685 22.6708H27.2533C27.2587 23.7343 28.0651 24.6805 29.2685 25.0352V26.8691H31.2837V25.0352C32.6706 24.6281 33.503 23.4469 33.2541 22.2391C33.0046 21.0312 31.7466 20.1493 30.2761 20.1518C29.7196 20.1518 29.2685 19.7758 29.2685 19.3121C29.2685 18.8485 29.7196 18.4725 30.2761 18.4725C30.8325 18.4725 31.2837 18.8485 31.2837 19.3121H33.2988C33.2934 18.2486 32.4871 17.3024 31.2837 16.9477V15.1139H29.2685V16.9477C27.8816 17.3549 27.0491 18.536 27.2986 19.7439C27.5475 20.9517 28.8055 21.8336 30.2761 21.8311C30.8325 21.8311 31.2837 22.2071 31.2837 22.6708C31.2837 23.1345 30.8325 23.5104 30.2761 23.5104Z" fill="#DEA033"/>
<path d="M35.3141 20.9914H37.3293V22.6707H35.3141V20.9914Z" fill="#DEA033"/>
<path d="M23.2229 20.9914H25.2381V22.6707H23.2229V20.9914Z" fill="#DEA033"/>
</g>
<defs>
<clipPath id="clip0">
<rect width="60" height="50" fill="white"/>
</clipPath>
</defs>
</svg>
