<svg width="70" height="52" viewBox="0 0 70 52" fill="none" xmlns="http://www.w3.org/2000/svg">
<path d="M68.3175 51.2868H39.4216C38.9756 51.2868 38.6142 50.9282 38.6142 50.4856V46.8248C38.6142 46.3822 38.9756 46.0236 39.4216 46.0236H68.3178C68.7638 46.0236 69.1252 46.3822 69.1252 46.8248V50.4856C69.1248 50.9282 68.7635 51.2868 68.3175 51.2868ZM40.2289 49.6843H67.5105V47.6261H40.2289V49.6843ZM1.43325 37.639C1.09093 37.639 0.773474 37.4214 0.66432 37.0807L-0.836716 32.3998C-0.972029 31.978 -0.73725 31.5274 -0.312258 31.3931L24.0208 23.7073C24.2243 23.6428 24.4461 23.6614 24.6363 23.7592C24.8265 23.8569 24.9699 24.0255 25.0345 24.2277L25.1931 24.722L37.3641 20.8779L37.0583 19.9244C36.9934 19.7218 37.0118 19.502 37.1103 19.3132C37.2088 19.1244 37.3787 18.9821 37.5828 18.9177L39.7213 18.2424L39.3257 17.0088C39.2608 16.8063 39.2792 16.5864 39.3777 16.3976C39.4762 16.2089 39.646 16.0666 39.8501 16.0021L41.1351 15.5964L40.4786 13.549L40.384 13.5789C40.1815 13.643 39.9716 13.6753 39.76 13.6753C38.8606 13.6753 38.073 13.1036 37.8004 12.253L37.0257 9.83575C36.3462 7.71661 37.5304 5.44396 39.6657 4.76963L52.463 0.727501C52.8637 0.600904 53.2784 0.536804 53.696 0.536804C55.4725 0.536804 57.0281 1.66624 57.5671 3.34758L58.3421 5.76478C58.6857 6.83749 58.0864 7.98776 57.0061 8.32909L56.9115 8.35889L57.568 10.4062L58.853 10.0002C59.0574 9.93607 59.2787 9.95434 59.4689 10.0521C59.6591 10.1498 59.8025 10.3184 59.8671 10.5207L62.9437 20.1148C63.0086 20.3173 62.9902 20.5372 62.8917 20.726C62.7932 20.9147 62.6234 21.057 62.4193 21.1215L61.1343 21.5275L61.7905 23.5749L61.8848 23.5451C62.0876 23.481 62.2975 23.4486 62.5091 23.4486C63.4081 23.4486 64.1958 24.0201 64.4687 24.871L65.2437 27.2882C65.5731 28.3147 65.4795 29.407 64.9812 30.364C64.4826 31.321 63.6384 32.0277 62.604 32.3543L49.8071 36.3961C49.4063 36.5227 48.9917 36.5868 48.5744 36.5868C48.5741 36.5868 48.5741 36.5868 48.5741 36.5868C46.7976 36.5868 45.2416 35.4574 44.7027 33.776L43.9276 31.3588C43.761 30.8396 43.8084 30.2868 44.0607 29.8025C44.3129 29.3182 44.7401 28.9605 45.2639 28.7948L45.3582 28.765L44.702 26.7177L43.417 27.1238C42.9933 27.2571 42.538 27.0251 42.403 26.6033L42.0071 25.3697L39.8685 26.045C39.4445 26.1786 38.9895 25.9463 38.8545 25.5245L38.5487 24.5707L26.3776 28.4147L26.5359 28.9089C26.6712 29.3307 26.4364 29.7813 26.0114 29.9156L1.67804 37.6012C1.59698 37.6268 1.51463 37.639 1.43325 37.639ZM0.946571 32.677L1.95803 35.8311L24.7526 28.6314L23.7411 25.4774L0.946571 32.677ZM54.0644 27.6965L45.7535 30.3214C45.6411 30.357 45.5494 30.4339 45.4952 30.5377C45.4409 30.6416 45.4309 30.7605 45.4664 30.872L46.2415 33.2895C46.5664 34.3026 47.5039 34.9837 48.5744 34.9837C48.5744 34.9837 48.5744 34.9837 48.5747 34.9837C48.8253 34.9837 49.0756 34.9449 49.3182 34.8683L62.1151 30.8265C62.7383 30.6297 63.247 30.2038 63.5476 29.6269C63.8483 29.05 63.9042 28.392 63.7062 27.7731L62.9311 25.3559C62.8582 25.1303 62.6088 24.9973 62.3754 25.071L54.0644 27.6965ZM46.2408 26.2315L46.8971 28.2785L60.2523 24.0604L59.5961 22.0131L46.2408 26.2315ZM25.6833 26.2491L25.888 26.8876L38.0591 23.0435L37.8544 22.4051L25.6833 26.2491ZM42.5667 21.8298L43.6967 25.3533L61.1608 19.8372L58.5737 11.7703L41.1096 17.2864L41.5046 18.5177C41.5049 18.5184 41.5052 18.519 41.5052 18.52L42.5667 21.8298ZM38.8422 20.2016L40.1485 24.2745L41.5175 23.8422L40.2115 19.7693L38.8422 20.2016ZM42.0177 13.0632L42.6743 15.1105L56.0295 10.8921L55.373 8.84477L42.0177 13.0632ZM53.696 2.1393C53.445 2.1393 53.1947 2.17808 52.9522 2.25468L40.1553 6.29648C38.8687 6.70288 38.155 8.07269 38.5642 9.34956L39.3392 11.7668C39.4116 11.9927 39.6622 12.1254 39.8944 12.0517L56.5165 6.80191C56.7487 6.72852 56.8776 6.48109 56.8036 6.25065L56.0289 3.83345C55.7037 2.82004 54.7662 2.1393 53.696 2.1393Z" fill="#DEA033"/>
</svg>
