<svg width="90" height="90" viewBox="0 0 90 90" fill="none" xmlns="http://www.w3.org/2000/svg">
<path d="M84.2377 51.8563L60.8641 45.2097C63.5873 41.7653 65.2148 37.417 65.2148 32.6953V22.1484C65.2148 11.002 56.1465 1.93359 45 1.93359C33.8535 1.93359 24.7852 11.002 24.7852 22.1484V32.6953C24.7852 37.417 26.4127 41.7653 29.1357 45.2099L5.76211 51.8565L0 72.7683V74.7874L1.24348 75.5613C14.3873 83.7422 29.5181 88.0664 45 88.0664C60.4819 88.0664 75.6127 83.7422 88.7565 75.5613L90 74.7874V72.7683L84.2377 51.8563ZM45 7.20703C47.1197 7.20703 49.1363 7.65352 50.9646 8.45297C49.5962 14.2741 40.8809 19.0373 30.2507 19.7659C31.3952 12.6559 37.5722 7.20703 45 7.20703ZM30.0586 25.0632C36.5861 24.7018 42.6716 23.0033 47.4163 20.1881C49.796 18.7761 51.737 17.1478 53.2006 15.3636C53.4767 15.8748 53.7771 16.3659 54.1049 16.8302C55.6478 19.0158 57.6853 20.5058 59.9024 21.1236C59.9254 21.4627 59.9414 32.6953 59.9414 32.6953C59.9414 40.934 53.2387 47.6367 45 47.6367C36.7613 47.6367 30.0586 40.934 30.0586 32.6953V25.0632ZM60.5303 50.5976L53.4962 63.8914L52.9102 60.5885V51.2975C54.1241 50.7795 55.2771 50.1458 56.3558 49.4105L60.5303 50.5976ZM47.6367 52.9102V58.1836H42.3633V52.9102H47.6367ZM33.6442 49.4107C34.7229 50.1456 35.8759 50.7793 37.0898 51.2975V60.5885L36.5038 63.8916L29.4697 50.5978L33.6442 49.4107ZM5.66156 72.073L10.058 56.1175L24.2838 52.0722L40.5142 82.7462C28.4641 82.0392 16.531 78.4832 5.66156 72.073ZM45 79.9483L40.5148 71.4716L41.9367 63.457H48.0633L49.4852 71.4716L45 79.9483ZM49.4858 82.7462L65.7162 52.0722L79.942 56.1175L84.3384 72.0731C73.469 78.4832 61.5359 82.0392 49.4858 82.7462Z" fill="#DEA033"/>
</svg>
