<svg width="90" height="90" viewBox="0 0 90 90" fill="none" xmlns="http://www.w3.org/2000/svg">
<g clip-path="url(#clip0)">
<path d="M73.0035 48.3689L65.7777 55.5949C65.6833 55.4806 65.5833 55.3694 65.4763 55.2625L56.1443 45.9305C55.6282 45.4145 54.7919 45.4145 54.276 45.9305C53.7601 46.4464 53.7601 47.2828 54.276 47.7986L63.6081 57.1306C64.4104 57.9328 64.4104 59.2381 63.6082 60.0402C62.8056 60.8424 61.5004 60.8425 60.6985 60.0402L55.5128 54.8546C54.9967 54.3387 54.1604 54.3387 53.6445 54.8546C53.1286 55.3705 53.1286 56.207 53.6445 56.7227L58.8302 61.9083C58.8304 61.9085 58.8307 61.9087 58.8309 61.909C59.2191 62.2976 59.4329 62.8139 59.4329 63.3632C59.4329 63.9128 59.2189 64.4294 58.8302 64.8181C58.4416 65.2067 57.925 65.4207 57.3755 65.4207C56.8259 65.4207 56.3093 65.2067 55.9208 64.8181L50.7351 59.6325C50.219 59.1166 49.3827 59.1166 48.8668 59.6325C48.3509 60.1484 48.3509 60.9849 48.8668 61.5006L54.0525 66.6862C54.8548 67.4884 54.8548 68.7937 54.0527 69.5958C53.6639 69.9846 53.1471 70.1986 52.5976 70.1986C52.048 70.1986 51.5314 69.9846 51.1429 69.596L45.9572 64.4104C45.4412 63.8945 44.6049 63.8945 44.089 64.4104C43.5731 64.9263 43.5731 65.7627 44.089 66.2785L49.2746 71.4641C50.0769 72.2662 50.0769 73.5716 49.2746 74.3737C48.886 74.7623 48.3694 74.9763 47.8199 74.9763C47.2703 74.9763 46.7537 74.7623 46.3652 74.3737L43.0057 71.0143C44.0761 69.2305 43.844 66.8775 42.3079 65.3416L42.2282 65.262C41.2049 64.2386 39.8185 63.7942 38.4795 63.9279C38.4043 62.8073 37.9332 61.7639 37.1314 60.9621C36.5112 60.342 35.7577 59.9344 34.9623 59.7392C35.165 59.2131 35.2723 58.6489 35.2723 58.0682C35.2723 56.8279 34.7893 55.6618 33.9123 54.7848C33.0353 53.9079 31.8693 53.4249 30.6289 53.4249C29.9221 53.4249 29.2398 53.5822 28.621 53.8795C28.4128 53.1401 28.0195 52.4424 27.4388 51.8617C25.6286 50.0513 22.6827 50.0515 20.8722 51.8617L20.3274 52.4065L19.9302 52.0093C19.2914 51.3704 18.9396 50.5213 18.9396 49.6179V46.1726C18.9396 45.8223 18.8005 45.4862 18.5528 45.2386L12.9133 39.599L14.4991 38.0131C15.015 37.4972 15.015 36.6607 14.4989 36.145C13.9832 35.6289 13.1467 35.6291 12.6308 36.145L10.5066 38.2694C10.106 38.6699 9.45398 38.6701 9.05344 38.2694L2.25545 31.4712C1.73955 30.9553 0.903253 30.9553 0.387172 31.4712C-0.128732 31.9871 -0.128732 32.8234 0.387172 33.3393L7.18534 40.1375C7.90081 40.8528 8.84032 41.2103 9.77983 41.2103C10.0807 41.2103 10.3806 41.1695 10.6741 41.0962L16.2976 46.7195V49.6177C16.2976 51.2267 16.9243 52.7394 18.062 53.8772L18.4593 54.2746L18.0172 54.7167C17.1402 55.5937 16.6571 56.7597 16.6571 58C16.6571 59.2404 17.1401 60.4064 18.017 61.2832C18.9224 62.1884 20.1115 62.6411 21.3006 62.6411C21.3194 62.6411 21.3383 62.64 21.3571 62.6397C21.3569 62.6592 21.3557 62.6786 21.3557 62.6983C21.3557 63.9387 21.8387 65.1047 22.7157 65.9815C23.5926 66.8585 24.7588 67.3415 25.999 67.3415C26.0186 67.3415 26.0381 67.3402 26.0577 67.34C26.0431 68.5478 26.4945 69.7603 27.4139 70.6798C28.3193 71.5849 29.5084 72.0376 30.6975 72.0376C30.717 72.0376 30.7366 72.0364 30.7559 72.0362C30.7408 73.2447 31.1922 74.4581 32.1124 75.3782L32.192 75.4578C33.069 76.3348 34.235 76.8178 35.4752 76.8178C36.7155 76.8178 37.8815 76.3348 38.7585 75.4578L41.2359 72.9806L44.4972 76.242C45.3848 77.1297 46.5649 77.6185 47.8202 77.6185C49.0756 77.6185 50.2557 77.1297 51.1432 76.242C52.0797 75.3055 52.5363 74.0688 52.5155 72.8387C52.543 72.8392 52.5703 72.8406 52.5979 72.8406C53.8533 72.8406 55.0334 72.3518 55.9211 71.4641C56.8582 70.5271 57.3147 69.2894 57.2934 68.0587C57.3209 68.0592 57.3483 68.0606 57.3758 68.0606C58.579 68.0604 59.7827 67.6023 60.6986 66.6864C61.5864 65.7988 62.0751 64.6187 62.0751 63.3634C62.0751 63.3358 62.0736 63.3085 62.0732 63.281C62.1 63.2815 62.1268 63.2829 62.1535 63.2829C63.3569 63.2829 64.5604 62.8248 65.4767 61.9087C66.4729 60.9125 66.9261 59.5766 66.8391 58.2706L74.8724 50.2373C75.3883 49.7214 75.3883 48.885 74.8724 48.3692C74.3559 47.853 73.5196 47.853 73.0035 48.3689ZM19.8851 59.415C19.5072 59.037 19.2991 58.5344 19.2991 58C19.2991 57.4655 19.5073 56.963 19.8853 56.585L22.7403 53.73C23.1306 53.3398 23.643 53.1447 24.1556 53.1447C24.668 53.1447 25.1803 53.3396 25.5705 53.7298C26.3508 54.5102 26.3508 55.7798 25.5705 56.56L22.7153 59.4151C21.935 60.1954 20.6656 60.1952 19.8851 59.415ZM25.9987 64.6996C25.4643 64.6996 24.9616 64.4914 24.5836 64.1134C24.2056 63.7354 23.9976 63.2329 23.9976 62.6985C23.9976 62.1641 24.2058 61.6614 24.5838 61.2834L27.4389 58.4282L29.214 56.6531C29.592 56.2751 30.0944 56.0669 30.6289 56.0669C31.1635 56.0669 31.666 56.2751 32.0439 56.6531C32.4218 57.0311 32.63 57.5338 32.63 58.0682C32.63 58.6026 32.4218 59.1053 32.0439 59.4833L27.4136 64.1136C27.0356 64.4914 26.5332 64.6996 25.9987 64.6996ZM29.2819 68.8117C28.5016 68.0314 28.5016 66.7618 29.2819 65.9815L32.4331 62.8301C32.8233 62.4401 33.3356 62.2451 33.8482 62.2451C34.3606 62.2451 34.8731 62.4403 35.2631 62.8302C35.6411 63.2082 35.8493 63.7109 35.8493 64.2453C35.8493 64.7795 35.6414 65.2817 35.2638 65.6595L32.1118 68.8115C31.3317 69.592 30.0621 69.592 29.2819 68.8117ZM36.8897 73.5896C36.5117 73.9675 36.0094 74.1757 35.4748 74.1757C34.9404 74.1757 34.4377 73.9675 34.0599 73.5896L33.9805 73.5101C33.2 72.7298 33.2 71.4602 33.9805 70.68L37.1316 67.5289C37.1326 67.5278 37.1335 67.5268 37.1344 67.5259L37.5298 67.1303C37.9201 66.7401 38.4325 66.5451 38.9451 66.5451C39.4574 66.5451 39.97 66.7403 40.36 67.1303L40.4394 67.2097C41.2199 67.99 41.2199 69.2596 40.4394 70.0399L36.8897 73.5896Z" fill="#DEA033"/>
<path d="M89.6132 37.0373C89.0973 36.5214 88.261 36.5212 87.745 37.0373L82.7945 41.9878C82.7263 42.056 82.6141 42.057 82.5445 41.9906L65.0432 25.273C65.0071 25.2385 64.9885 25.1956 64.9879 25.1456C64.9874 25.0956 65.0052 25.0523 65.0404 25.017L75.4207 14.637C75.9366 14.1211 75.9366 13.2846 75.4207 12.7689C74.9048 12.253 74.0685 12.253 73.5524 12.7689L63.1721 23.1489C62.6307 23.6906 62.3374 24.4104 62.3462 25.1761C62.3535 25.7933 62.5592 26.3744 62.9275 26.8543L58.1771 31.513L53.7013 29.0168C53.1163 28.6904 52.4532 28.5179 51.7833 28.5179H39.0663L38.0984 27.5502C37.199 26.6509 36.1405 25.9654 34.9521 25.5125L31.4316 24.1712L29.8048 22.5444C30.646 21.1355 30.465 19.2815 29.253 18.0697L23.9522 12.7689C23.4362 12.253 22.6 12.253 22.0839 12.7689C21.568 13.2848 21.568 14.1212 22.0839 14.637L27.3847 19.9378C27.7852 20.3383 27.7852 20.9902 27.3847 21.3909L16.6117 32.164C16.0958 32.6799 16.0958 33.5163 16.6117 34.0321C16.8697 34.2899 17.2079 34.419 17.5459 34.419C17.8839 34.419 18.2221 34.2901 18.4801 34.0321L28.0181 24.4941L29.7631 26.2391C29.8948 26.3708 30.053 26.4732 30.227 26.5396L34.0115 27.9814C34.8281 28.2927 35.5569 28.7608 36.1804 29.3713C36.1003 29.4388 36.0216 29.5085 35.9465 29.5836L30.9224 34.608C29.9253 35.605 29.3763 36.9308 29.3763 38.3407C29.3763 39.7507 29.9253 41.0763 30.9222 42.0734C31.9525 43.1036 33.3001 43.6262 34.6537 43.6262C35.8366 43.6262 37.024 43.2269 38.0073 42.4185L41.8094 39.2927H45.7698L50.2951 43.8181C50.5532 44.0759 50.8914 44.205 51.2294 44.205C51.5674 44.205 51.9056 44.0761 52.1636 43.8181C52.6795 43.3021 52.6795 42.4657 52.1636 41.9499L48.8943 38.6807C49.0252 38.4757 49.102 38.2329 49.102 37.9717C49.102 37.2422 48.5107 36.6507 47.781 36.6507H41.336C41.03 36.6507 40.7334 36.7569 40.497 36.9514L36.3294 40.3776C35.2756 41.2436 33.7547 41.1695 32.7905 40.2053C32.2924 39.7072 32.0182 39.0451 32.0182 38.3409C32.0182 37.6367 32.2924 36.9744 32.7905 36.4765L37.8148 31.452C38.0027 31.2639 38.2529 31.1603 38.5188 31.1603H51.7831C52.0035 31.1603 52.2215 31.2171 52.4141 31.3245L57.3642 34.0853C58.0991 34.4955 59.0335 34.3713 59.6376 33.7809L64.812 28.7062L79.0581 42.3144L76.9842 44.3882C76.4683 44.9041 76.4683 45.7406 76.9844 46.2563C77.2423 46.5144 77.5805 46.6433 77.9185 46.6433C78.2565 46.6433 78.5947 46.5144 78.8527 46.2563L80.9862 44.1228C81.4822 44.4904 82.0742 44.6758 82.6673 44.6758C83.3923 44.6758 84.1169 44.4019 84.6626 43.8561L89.6132 38.9058C90.129 38.3895 90.129 37.5532 89.6132 37.0373Z" fill="#DEA033"/>
</g>
<defs>
<clipPath id="clip0">
<rect width="90" height="90" fill="white"/>
</clipPath>
</defs>
</svg>
