<svg width="90" height="90" viewBox="0 0 90 90" fill="none" xmlns="http://www.w3.org/2000/svg">
<path d="M74.2681 47.5687C73.5447 47.5687 72.9583 48.1551 72.9583 48.8784C72.9583 49.7955 72.2123 50.5415 71.2953 50.5415C70.3784 50.5415 69.6322 49.7955 69.6322 48.8784C69.6322 48.1549 69.0458 47.5687 68.3224 47.5687C67.5991 47.5687 67.0127 48.1551 67.0127 48.8784C67.0127 51.2399 68.934 53.161 71.2953 53.161C73.6565 53.161 75.5778 51.2397 75.5778 48.8784C75.5778 48.1547 74.9914 47.5687 74.2681 47.5687Z" fill="#DEA033"/>
<path d="M86.5624 47.7826L82.8759 46.6017C82.4038 46.4504 82.0317 46.0735 81.8807 45.5935C81.1037 43.1232 79.9312 40.8041 78.3958 38.7004C77.696 37.7415 76.9178 36.8258 76.0678 35.9541C76.6116 33.5683 76.9073 30.8681 76.869 28.5353C76.8141 25.1981 76.1472 23.2408 74.8303 22.551C74.121 22.179 71.9624 21.0491 60.2787 26.3974C60.0021 26.524 59.7437 26.6799 59.5044 26.8585C58.7167 26.6469 57.9117 26.4511 57.1017 26.2753C57.0041 26.254 56.9036 26.2352 56.8053 26.2144C57.752 24.1462 58.3049 21.8999 58.4088 19.581C58.4411 18.8582 57.8816 18.2461 57.1588 18.2139C56.4379 18.1781 55.8239 18.7409 55.7917 19.4637C55.6211 23.2766 54.0394 26.8641 51.3383 29.5654C49.7245 31.1792 47.8348 32.3515 45.8209 33.0898C42.3283 32.5997 38.7708 32.5997 35.2782 33.0898C33.2641 32.3515 31.3747 31.1792 29.7608 29.5654C26.8791 26.6836 25.2919 22.8521 25.2919 18.7766C25.2919 14.701 26.8791 10.8696 29.7608 7.98787C32.6426 5.10594 36.4743 3.51881 40.5496 3.51881C44.6249 3.51881 48.4566 5.10594 51.3383 7.98787C52.4964 9.14592 53.4533 10.4674 54.1826 11.9153C54.508 12.5615 55.2957 12.8217 55.9417 12.4961C56.5879 12.1709 56.8478 11.3833 56.5225 10.7373C55.6676 9.03939 54.5467 7.49129 53.1909 6.13531C49.8143 2.75873 45.3248 0.899139 40.5497 0.899139C35.7746 0.899139 31.2852 2.75873 27.9086 6.13531C24.532 9.51207 22.6724 14.0013 22.6724 18.7764C22.6724 23.5515 24.532 28.041 27.9086 31.4176C28.8826 32.3916 29.9422 33.2292 31.063 33.9309C31.0634 33.9309 31.0637 33.9307 31.0641 33.9307C30.2497 34.1424 29.4414 34.38 28.6421 34.6472C27.9561 34.8766 27.5859 35.6186 27.8153 36.3048C28.0445 36.9909 28.7868 37.3611 29.4727 37.1319C36.6158 34.7439 44.4837 34.7439 51.6268 37.1319C51.7646 37.1779 51.9045 37.1997 52.0422 37.1997C52.5901 37.1997 53.1009 36.8531 53.2842 36.3048C53.5136 35.6187 53.1434 34.8766 52.4573 34.6472C51.6581 34.38 50.8498 34.1422 50.0354 33.9307C50.0358 33.9307 50.0361 33.9309 50.0365 33.9309C51.1574 33.2292 52.2169 32.3916 53.1909 31.4176C54.0526 30.5559 54.8132 29.6149 55.4736 28.6149C55.8346 28.6851 56.193 28.7585 56.5462 28.8352C57.0166 28.9373 57.4849 29.047 57.9489 29.1621C57.9343 29.2191 57.9194 29.2759 57.9073 29.3337C57.2685 32.365 57.31 35.046 58.0305 37.3018C58.6781 39.3295 59.8468 40.9722 61.5039 42.1845C63.457 43.6133 65.815 44.2304 67.9509 44.2304C69.5584 44.2304 71.0404 43.8806 72.1288 43.2642C73.36 42.5668 74.3915 41.0975 75.208 38.8914C75.5854 39.3319 75.9431 39.7832 76.2803 40.2451C77.6473 42.1179 78.6909 44.1819 79.3821 46.3795C79.788 47.6703 80.7956 48.686 82.0772 49.0968L85.7637 50.2777C86.731 50.5876 87.3809 51.4779 87.3809 52.4936V58.6064C87.3809 59.622 86.731 60.5124 85.7637 60.8223L79.8242 62.7247C78.8739 63.0294 78.0697 63.6824 77.5598 64.5638C75.2263 68.5965 71.5576 71.9337 66.6548 74.4827C66.0885 74.7775 65.6961 75.3047 65.578 75.9294L63.6757 86.0022C63.6231 86.2798 63.38 86.481 63.0976 86.481H56.9123C56.6299 86.481 56.3868 86.2796 56.3342 86.0022L55.2806 80.4354C55.0731 79.3401 54.0459 78.6125 52.9402 78.7801C50.2759 79.183 47.5305 79.387 44.7808 79.387C42.7351 79.387 40.7155 79.273 38.7779 79.0478C37.7065 78.9246 36.7084 79.6549 36.5082 80.7128L35.5069 86.0022C35.4544 86.2798 35.2113 86.481 34.9288 86.481H28.7436C28.4611 86.481 28.218 86.2796 28.1647 85.998L26.3331 76.4844C26.2151 75.8714 25.8302 75.3502 25.2763 75.0544C16.9189 70.5929 12.5016 63.1391 12.5016 53.4992C12.5016 48.6287 13.5671 44.3218 15.6686 40.6979C17.6296 37.3161 20.4938 34.5199 24.1815 32.3868C24.8077 32.0245 25.0216 31.2233 24.6595 30.597C24.2974 29.9709 23.4962 29.7573 22.8698 30.1191C15.7192 34.2556 11.4064 40.6371 10.219 48.7424V48.7422C10.093 48.7308 9.9668 48.7199 9.84111 48.7069C9.86397 47.8324 9.70576 46.95 9.36123 46.0936C8.60133 44.2046 7.04039 42.8412 5.38436 42.6203C4.07936 42.4456 2.83746 42.9996 1.97561 44.1383C0.725977 45.7896 0.929707 47.0964 1.32047 47.9018C1.98018 49.2611 3.67594 50.2227 6.49002 50.8272C6.41268 50.943 6.3276 51.0594 6.23443 51.1763C4.57172 53.2616 2.61281 53.7226 1.34086 53.766C0.59625 53.7912 0 54.389 0 55.1342V55.1405C0 55.8754 0.579902 56.4748 1.31414 56.5084C1.40818 56.5128 1.50645 56.5151 1.60875 56.5151C3.2182 56.5151 5.80131 55.9215 8.28299 52.8096C8.6748 52.3185 8.99402 51.8003 9.23941 51.2649C9.48656 51.2928 9.72404 51.3167 9.9515 51.3378C9.9515 51.3373 9.9515 51.3369 9.95168 51.3364C9.90703 52.0462 9.88225 52.7664 9.88225 53.4992C9.88225 58.9534 11.1825 63.8163 13.7466 67.9537C16.1109 71.7682 19.4959 74.8914 23.811 77.2402L25.5916 86.4891C25.878 88.0023 27.2036 89.1005 28.7436 89.1005H34.9288C36.4688 89.1005 37.7944 88.0023 38.0807 86.4891L38.986 81.7065C40.8662 81.9056 42.8128 82.0065 44.7806 82.0065C47.4806 82.0065 50.1775 81.8185 52.8057 81.4472L53.7601 86.4895C54.0466 88.0026 55.3721 89.1007 56.912 89.1007H63.0972C64.6372 89.1007 65.9628 88.0024 66.2493 86.4888L68.1015 76.6818C73.3342 73.9148 77.2784 70.28 79.8268 65.8756C80.0105 65.5582 80.2934 65.3252 80.6231 65.2196L86.5624 63.3171C88.6185 62.6581 90 60.7651 90 58.606V52.4932C90 50.3343 88.6185 48.4413 86.5624 47.7826ZM74.0528 32.216C73.5486 36.5272 72.1964 40.2151 70.8376 40.9846C69.2931 41.8595 65.7274 42.0284 63.0503 40.0701C60.37 38.1094 59.4779 34.5836 60.4702 29.8737C60.4702 29.8735 60.4702 29.8735 60.4702 29.8735C60.5698 29.4005 60.9059 28.9913 61.3691 28.7793C67.9264 25.7776 71.707 24.7959 73.1115 24.7959C73.3235 24.7959 73.4813 24.8182 73.5864 24.8594C74.0083 25.309 74.5617 27.865 74.0528 32.216ZM3.67752 46.758C3.54199 46.4785 3.86191 45.9872 4.06477 45.719C4.38627 45.2943 4.68246 45.2074 4.90623 45.2074C4.95352 45.2074 4.99764 45.2113 5.03807 45.2168C5.64029 45.2971 6.48404 45.9598 6.93105 47.0709C7.03635 47.3325 7.17311 47.7658 7.2051 48.3061C5.39191 47.9305 3.9832 47.3889 3.67752 46.758Z" fill="#DEA033"/>
<path d="M41.8215 17.2753V12.5883C43.4379 12.7037 44.0383 13.4426 44.5924 13.4426C45.2851 13.4426 45.6084 12.5652 45.6084 12.1265C45.6084 10.995 43.3916 10.5102 41.8215 10.4639V9.84027C41.8215 9.56324 41.4751 9.30923 41.1288 9.30923C40.7361 9.30923 40.4591 9.56324 40.4591 9.84027V10.5098C38.2655 10.7408 36.0719 11.8953 36.0719 14.8047C36.0719 17.7603 38.381 18.5915 40.4591 19.3303V24.7565C38.1038 24.5718 37.4805 22.9555 36.7184 22.9555C36.1412 22.9555 35.6564 23.7175 35.6564 24.2717C35.6564 25.4031 37.5959 26.9501 40.4591 26.9963V27.7121C40.4591 27.9892 40.7363 28.2432 41.1288 28.2432C41.4753 28.2432 41.8215 27.9892 41.8215 27.7121V26.9271C44.3154 26.5806 46.024 25.0105 46.024 22.1704C46.024 19.0303 43.8304 18.0141 41.8215 17.2753ZM40.5976 16.8367C39.3738 16.3749 38.381 15.8901 38.381 14.5741C38.381 13.3733 39.3045 12.796 40.5976 12.6345V16.8367ZM41.6829 24.7103V19.8384C42.8142 20.3232 43.7147 20.9697 43.7147 22.4243C43.7147 23.7407 42.9297 24.4795 41.6829 24.7103Z" fill="#DEA033"/>
</svg>
