<svg width="90" height="90" viewBox="0 0 90 90" fill="none" xmlns="http://www.w3.org/2000/svg">
<g clip-path="url(#clip0)">
<path d="M21.5421 48.94C19.3332 48.94 17.5362 50.7368 17.5362 52.9455C17.5362 55.1542 19.3332 56.9511 21.5421 56.9511C23.7508 56.9511 25.5476 55.1542 25.5476 52.9455C25.5476 50.7368 23.7506 48.94 21.5421 48.94ZM21.5421 54.3096C20.7901 54.3096 20.1782 53.6977 20.1782 52.9459C20.1782 52.1941 20.7901 51.5822 21.5421 51.5822C22.2941 51.5822 22.9058 52.1941 22.9058 52.9459C22.9058 53.6977 22.2939 54.3096 21.5421 54.3096Z" fill="#DEA033"/>
<path d="M57.7835 74.4111C57.6068 73.8663 57.0995 73.4981 56.5273 73.4981H48.6808L46.2561 66.0356C46.0814 65.4976 45.5655 65.1228 44.9998 65.1228C44.4341 65.1228 43.9184 65.4974 43.7435 66.0356L41.3188 73.4981H33.4724C32.9002 73.4981 32.3929 73.8665 32.2161 74.4109C32.0393 74.9551 32.233 75.5516 32.696 75.8876L39.0438 80.4998L36.6191 87.9622C36.4498 88.4827 36.6277 89.069 37.0576 89.4077C37.517 89.7696 38.1786 89.7828 38.6518 89.439L44.9996 84.8268L51.3474 89.439C51.8438 89.7997 52.5417 89.7651 53.0005 89.3581C53.3895 89.0131 53.5408 88.4569 53.38 87.9624L50.9553 80.5L57.3031 75.8878C57.7666 75.5517 57.9603 74.9553 57.7835 74.4111ZM48.6265 78.9264C48.1635 79.2626 47.9698 79.8589 48.1466 80.4031L49.6116 84.9119L45.776 82.1254C45.3183 81.7927 44.6809 81.7927 44.2234 82.1254L40.3878 84.9119L41.8528 80.4031C42.0296 79.8589 41.8359 79.2625 41.3729 78.9264L37.5375 76.1399H42.2783C42.8505 76.1399 43.3578 75.7715 43.5347 75.2271L44.9996 70.7183L46.4646 75.2271C46.6414 75.7715 47.1487 76.1399 47.7209 76.1399H52.4617L48.6265 78.9264Z" fill="#DEA033"/>
<path d="M89.9351 74.4082C89.7583 73.8638 89.251 73.4953 88.6788 73.4953H80.8324L78.4077 66.0329C78.233 65.4948 77.7171 65.1201 77.1514 65.1201C76.5858 65.1201 76.07 65.4946 75.8951 66.0329L73.4704 73.4953H65.624C65.0519 73.4953 64.5446 73.8638 64.3677 74.4082C64.1909 74.9524 64.3846 75.5488 64.8476 75.8849L71.1954 80.497L68.7707 87.9595C68.6014 88.48 68.7793 89.0662 69.2093 89.4049C69.6686 89.7669 70.3302 89.7801 70.8034 89.4362L77.1512 84.8241L83.4991 89.4362C83.9956 89.7969 84.6933 89.7623 85.1523 89.3554C85.5413 89.0103 85.6926 88.4541 85.5318 87.9597L83.1071 80.4972L89.4549 75.8851C89.9184 75.5488 90.1121 74.9524 89.9351 74.4082ZM80.7781 78.9238C80.3151 79.2601 80.1214 79.8563 80.2983 80.4005L81.763 84.9093L77.9278 82.1229C77.4647 81.7864 76.8378 81.7862 76.375 82.1229L72.5394 84.9093L74.0044 80.4005C74.1812 79.8563 73.9875 79.2599 73.5245 78.9238L69.6891 76.1373H74.4301C75.0023 76.1373 75.5096 75.7689 75.6865 75.2245L77.1514 70.7157L78.6164 75.2245C78.7932 75.7689 79.3005 76.1373 79.8727 76.1373H84.6135L80.7781 78.9238Z" fill="#DEA033"/>
<path d="M25.632 74.4111C25.455 73.8663 24.9477 73.4981 24.3755 73.4981H16.5292L14.1044 66.0356C13.9276 65.4912 13.4203 65.1228 12.8481 65.1228C12.276 65.1228 11.7687 65.4912 11.5918 66.0356L9.16709 73.4981H1.32074C0.748577 73.4981 0.241272 73.8665 0.0644359 74.4109C-0.1124 74.9551 0.0813109 75.5515 0.544319 75.8876L6.89213 80.4998L4.4674 87.9622C4.29057 88.5065 4.48428 89.1029 4.94729 89.439C5.41012 89.7754 6.03713 89.7754 6.50014 89.439L12.848 84.8268L19.1958 89.439C19.6923 89.7997 20.39 89.765 20.8488 89.3581C21.2378 89.0131 21.3892 88.4569 21.2283 87.9624L18.8036 80.5L25.1514 75.8878C25.6151 75.5517 25.8088 74.9553 25.632 74.4111ZM16.4748 78.9264C16.0118 79.2626 15.8181 79.8589 15.995 80.4031L17.4599 84.9119L13.6244 82.1254C13.1666 81.7927 12.5293 81.7927 12.0715 82.1254L8.23633 84.9117L9.70112 80.4029C9.87795 79.8587 9.68424 79.2623 9.22123 78.9262L5.38586 76.1397H10.1267C10.6988 76.1397 11.2062 75.7713 11.383 75.2269L12.848 70.7181L14.3129 75.2269C14.4897 75.7713 14.9971 76.1397 15.5692 76.1397H20.31L16.4748 78.9264Z" fill="#DEA033"/>
<path d="M79.3066 33.2398C80.6711 32.1419 81.5456 30.4584 81.5456 28.575C81.5456 25.2743 78.8603 22.5891 75.5599 22.5891H54.3121C54.9725 21.1491 55.7349 18.9555 56.1707 15.9062C57.1828 8.82066 55.6533 5.05964 54.1921 3.15224C52.9553 1.53786 51.2936 0.561574 49.3871 0.329191C47.7783 0.131613 46.3093 1.40937 46.2664 3.0255C46.0191 5.56624 45.1144 12.5365 43.8185 15.1286C40.4894 21.7868 32.5522 25.7565 30.1007 26.8548C29.2429 26.1175 28.1288 25.6705 26.9117 25.6705H16.1725C13.4704 25.6705 11.2721 27.8687 11.2721 30.5709V57.4182C11.2721 60.1205 13.4704 62.3186 16.1725 62.3186H26.9114C28.3572 62.3186 29.6585 61.6888 30.556 60.6897C31.9501 61.5698 34.2001 62.5503 37.3074 62.5503H71.8279C75.1285 62.5503 77.8136 59.8651 77.8136 56.5646C77.8136 55.0517 77.2493 53.6679 76.3201 52.6129C78.3079 51.6382 79.6793 49.5933 79.6793 47.2345C79.6793 45.7215 79.115 44.338 78.1859 43.2827C80.1736 42.3082 81.545 40.2633 81.545 37.9045C81.5456 36.0212 80.6709 34.3378 79.3066 33.2398ZM26.9114 59.6766H16.1725C14.9271 59.6766 13.9139 58.6634 13.9139 57.418V30.5708C13.9139 29.3254 14.9271 28.3122 16.1725 28.3122H26.9114C27.5421 28.3122 28.1125 28.5727 28.5226 28.991V58.4484C28.5226 58.6065 28.5512 58.7615 28.6054 58.9071C28.191 59.3776 27.5862 59.6766 26.9114 59.6766ZM70.0099 34.5607H75.5604C77.4043 34.5607 78.9043 36.0609 78.9043 37.9045C78.9043 39.7481 77.4042 41.2484 75.5604 41.2484H70.0099C69.2804 41.2484 68.6889 41.8398 68.6889 42.5694C68.6889 43.2991 69.2804 43.8904 70.0099 43.8904H73.6943C75.5382 43.8904 77.0382 45.3907 77.0382 47.2343C77.0382 49.0779 75.5381 50.5782 73.6943 50.5782H68.9972C68.2678 50.5782 67.6763 51.1695 67.6763 51.8992C67.6763 52.6289 68.2678 53.2202 68.9972 53.2202H71.8282C73.672 53.2202 75.1721 54.7205 75.1721 56.5642C75.1721 58.408 73.672 59.9081 71.8282 59.9081H37.3078C34.5814 59.9081 32.7331 58.9948 31.7295 58.3091C31.783 58.0197 31.8123 57.7221 31.8123 57.4177V30.5708C31.8123 30.0543 31.7315 29.5567 31.5827 29.0891C34.6779 27.6686 42.6019 23.4687 46.1814 16.31C47.9717 12.7295 48.8643 3.61173 48.9014 3.22536C48.9053 3.18353 48.9074 3.14116 48.9074 3.09915C48.9074 3.05415 48.9246 3.01583 48.9585 2.98595C49.006 2.94429 49.0517 2.94956 49.067 2.9515C49.8939 3.05239 51.0904 3.4479 52.095 4.75888C53.2483 6.26427 54.4378 9.35538 53.5554 15.5327C52.8074 20.7687 51.034 23.0593 51.0229 23.0735C50.3305 23.9197 50.954 25.2311 52.0451 25.2311H75.5602C77.4042 25.2311 78.9041 26.7314 78.9041 28.5751C78.9041 30.4191 77.404 31.919 75.5602 31.919H70.0098C69.2803 31.919 68.6888 32.5103 68.6888 33.24C68.6888 33.9697 69.2803 34.5607 70.0099 34.5607Z" fill="#DEA033"/>
</g>
<defs>
<clipPath id="clip0">
<rect width="90" height="90" fill="white"/>
</clipPath>
</defs>
</svg>
