<svg width="90" height="90" viewBox="0 0 90 90" fill="none" xmlns="http://www.w3.org/2000/svg">
<path d="M64.4658 30.6229C64.981 31.138 65.6562 31.3957 66.3313 31.3957C67.0063 31.3957 67.6817 31.138 68.1967 30.6231C69.227 29.5927 69.227 27.9223 68.1967 26.892L63.9568 22.6519V16.0056C63.9568 14.5485 62.7756 13.3673 61.3185 13.3673C59.8615 13.3673 58.6802 14.5485 58.6802 16.0056V23.7445C58.6802 24.4442 58.9581 25.1152 59.4531 25.61L64.4658 30.6229Z" fill="#DEA033"/>
<path d="M51.4332 45.3258C54.523 46.7458 57.8971 47.4891 61.3186 47.4891C74.4114 47.4891 85.0631 36.8373 85.0631 23.7445C85.0631 10.6518 74.4114 1.52588e-05 61.3186 1.52588e-05C48.9101 1.52588e-05 38.6957 9.56818 37.6619 21.7136C36.5907 21.5147 35.4869 21.4097 34.3591 21.4097C24.4051 21.4097 16.3068 29.5079 16.3068 39.462C16.3068 45.634 19.4208 51.0915 24.1595 54.3484H18.2886C10.9266 54.3484 4.93701 60.36 4.93701 67.7491V87.3616C4.93701 88.8186 6.11826 89.9998 7.57529 89.9998C9.03233 89.9998 10.2136 88.8186 10.2136 87.3616V67.7493C10.2136 63.2695 13.8361 59.6251 18.2886 59.6251H31.1131L25.1068 74.9776C24.7693 75.8405 24.909 76.8171 25.4751 77.5507L32.2703 86.356C32.7698 87.0033 33.5412 87.3825 34.3589 87.3825C35.1766 87.3825 35.9481 87.0033 36.4476 86.356L43.2427 77.5507C43.8087 76.8172 43.9486 75.8405 43.611 74.9776L37.6049 59.6251H50.4292C54.8819 59.6251 58.5045 63.2697 58.5045 67.7493V87.3605C58.5045 88.8175 59.6857 89.9988 61.1427 89.9988C62.5998 89.9988 63.781 88.8175 63.781 87.3605V67.7493C63.781 60.36 57.7914 54.3486 50.4292 54.3486H44.5587C47.7222 52.1743 50.1612 49.0196 51.4332 45.3258ZM34.3591 80.4257L30.5649 75.5092L34.3591 65.8112L38.1533 75.5092L34.3591 80.4257ZM58.6899 5.46442C58.7862 6.83369 59.9249 7.91538 61.3186 7.91538C62.7123 7.91538 63.851 6.83369 63.9474 5.46442C72.0309 6.62157 78.4414 13.0321 79.5986 21.1156C78.2293 21.2121 77.1478 22.3506 77.1478 23.7444C77.1478 25.1381 78.2295 26.2766 79.5986 26.3731C78.4414 34.4567 72.0309 40.8673 63.9474 42.0243C63.8509 40.655 62.7123 39.5735 61.3186 39.5735C59.9258 39.5735 58.788 40.6536 58.69 42.0213C56.4888 41.7035 54.3576 40.9892 52.406 39.9073C52.4097 39.7592 52.4116 39.6108 52.4116 39.4618C52.4116 33.5574 49.5621 28.3059 45.166 25.0102C45.372 24.6343 45.4897 24.2031 45.4897 23.7442C45.4897 22.3505 44.408 21.212 43.0389 21.1154C44.1957 13.0322 50.6062 6.62157 58.6899 5.46442ZM21.5831 39.4622C21.5831 32.4176 27.3144 26.6864 34.3589 26.6864C41.4037 26.6864 47.1349 32.4176 47.1349 39.4622C47.1349 46.5067 41.4037 52.238 34.3591 52.238C27.3144 52.238 21.5831 46.5067 21.5831 39.4622Z" fill="#DEA033"/>
</svg>
