<svg width="90" height="90" viewBox="0 0 90 90" fill="none" xmlns="http://www.w3.org/2000/svg">
<path d="M16.2677 32.5354C25.2376 32.5354 32.5354 25.2376 32.5354 16.2677C32.5354 7.29773 25.2376 0 16.2677 0C7.29773 0 0 7.29773 0 16.2677C0 25.2376 7.29773 32.5354 16.2677 32.5354ZM16.2677 3.51562C23.2991 3.51562 29.0197 9.23625 29.0197 16.2677C29.0197 23.2991 23.2991 29.0197 16.2677 29.0197C9.23625 29.0197 3.51562 23.2991 3.51562 16.2677C3.51562 9.23625 9.23625 3.51562 16.2677 3.51562Z" fill="#DEA033"/>
<path d="M17.6661 20.1315C18.0092 20.4734 18.4582 20.6443 18.9071 20.6443C19.3578 20.6443 19.8089 20.472 20.1522 20.1275C20.8374 19.4398 20.8356 18.3268 20.1481 17.6414L18.0374 15.5377V7.73438C18.0374 6.76371 17.2502 5.97656 16.2795 5.97656C15.3089 5.97656 14.5217 6.76371 14.5217 7.73438V16.2677C14.5217 16.7349 14.7079 17.183 15.0385 17.5127L17.6661 20.1315Z" fill="#DEA033"/>
<path d="M88.2422 58.3594H77.4234C75.9363 56.244 73.7017 54.7457 71.1531 54.1884L63.425 52.4986C66.5875 50.3657 68.6716 46.7502 68.6716 42.657V38.365V36.3792V35.9323C68.6716 29.3911 63.35 24.0695 56.8088 24.0695C50.2676 24.0695 44.946 29.3911 44.946 35.9323V36.3792V38.365V42.657C44.946 46.745 47.0247 50.3568 50.1805 52.4907L42.4573 54.1851C42.1274 54.2575 41.8031 54.3463 41.4844 54.4491V39.9023C41.4844 38.9317 40.6972 38.1445 39.7266 38.1445H27.7734C26.8028 38.1445 26.0156 38.9317 26.0156 39.9023C26.0156 40.873 26.8028 41.6602 27.7734 41.6602H37.9688V66.2695H26.0156V57.4805C26.0156 54.5727 23.65 52.207 20.7422 52.207C17.8344 52.207 15.4688 54.5727 15.4688 57.4805V66.2695H3.51562V41.6602H13.7109C14.6816 41.6602 15.4688 40.873 15.4688 39.9023C15.4688 38.9317 14.6816 38.1445 13.7109 38.1445H1.75781C0.787148 38.1445 0 38.9317 0 39.9023V68.0273C0 68.998 0.787148 69.7851 1.75781 69.7851H15.4688V73.125H15.293C12.2882 73.125 9.84375 75.5694 9.84375 78.5742V79.4531H1.75781C0.787148 79.4531 0 80.2403 0 81.2109V88.2422C0 89.2128 0.787148 90 1.75781 90H88.2422C89.2129 90 90 89.2128 90 88.2422V81.2109V74.1797V67.1484V60.1172C90 59.1465 89.2129 58.3594 88.2422 58.3594ZM77.551 79.4531H67.5V75.9375H86.4844V79.4531H77.551ZM86.4844 72.4219H67.5V68.9062H86.4844V72.4219ZM86.4844 65.3906H67.5V61.875H76.4427C76.448 61.875 76.4532 61.876 76.4583 61.876C76.4638 61.876 76.4694 61.875 76.4749 61.875H86.4844V65.3906ZM48.4615 35.9325C48.4615 31.3298 52.2062 27.5853 56.8086 27.5853C61.1914 27.5853 64.796 30.9804 65.1305 35.2788L61.0443 32.8781C60.304 32.4431 59.358 32.6067 58.8066 33.2647C57.0266 35.389 54.4161 36.6075 51.6445 36.6075H48.4617V36.3795V35.9325H48.4615ZM48.4615 40.1229H51.6445C54.9536 40.1229 58.0957 38.861 60.4696 36.6179L65.156 39.3711V42.6572C65.156 47.2598 61.4113 51.0043 56.8088 51.0043C52.2063 51.0043 48.4617 47.2597 48.4617 42.6572V40.1229H48.4615ZM59.5624 54.1939L56.7824 61.6284L53.9974 54.1805C54.8991 54.4006 55.8401 54.52 56.8086 54.52C57.7568 54.52 58.6781 54.405 59.5624 54.1939ZM39.7266 69.7851C40.6972 69.7851 41.4844 68.998 41.4844 68.0273V58.2499C42.0267 57.964 42.6048 57.752 43.2105 57.6192L50.8992 55.9324L55.1361 67.2627C55.3929 67.9495 56.0491 68.4047 56.7824 68.4047C57.5158 68.4047 58.172 67.9495 58.4288 67.2625L62.6658 55.9315L70.4022 57.623C71.0812 57.7714 71.7256 58.0227 72.3185 58.3592H65.7422C64.7715 58.3592 63.9844 59.1463 63.9844 60.117V67.1483V74.1795V79.4529H37.8244V69.785H39.7266V69.7851ZM34.3088 69.7851V79.4531H31.6406V78.5742C31.6406 75.5694 29.1962 73.125 26.1914 73.125H26.0156V69.7851H34.3088ZM18.9844 57.4805C18.9844 56.5112 19.7729 55.7226 20.7422 55.7226C21.7114 55.7226 22.5 56.5112 22.5 57.4805V73.125H18.9844V57.4805ZM13.3594 78.5742C13.3594 77.5081 14.2269 76.6406 15.293 76.6406H17.2266H24.2578H26.1914C27.2575 76.6406 28.125 77.5081 28.125 78.5742V79.4531H13.3594V78.5742ZM86.4844 86.4844H3.51562V82.9687H86.4844V86.4844Z" fill="#DEA033"/>
<path d="M19.4994 38.6596C19.1725 38.9865 18.9844 39.44 18.9844 39.9023C18.9844 40.3646 19.1723 40.8182 19.4994 41.1449C19.8264 41.4719 20.2799 41.6602 20.7422 41.6602C21.2045 41.6602 21.658 41.4721 21.9848 41.1449C22.3119 40.8182 22.5 40.3646 22.5 39.9023C22.5 39.44 22.3119 38.9865 21.9848 38.6596C21.658 38.3326 21.2045 38.1445 20.7422 38.1445C20.2799 38.1445 19.8264 38.3324 19.4994 38.6596Z" fill="#DEA033"/>
</svg>
