<svg width="52" height="51" viewBox="0 0 52 51" fill="none" xmlns="http://www.w3.org/2000/svg">
<path d="M25.6164 0.116211C11.528 0.116211 0.103149 11.4569 0.103149 25.4416C0.103149 39.4262 11.528 50.7669 25.6164 50.7669C39.7049 50.7669 51.1297 39.4262 51.1297 25.4416C51.1297 11.4569 39.7049 0.116211 25.6164 0.116211ZM18.2026 38.401H11.9889V19.8448H18.2026V38.401ZM15.0959 17.311H15.0555C12.9704 17.311 11.6218 15.8862 11.6218 14.1055C11.6218 12.2846 13.0116 10.8993 15.1372 10.8993C17.2628 10.8993 18.5708 12.2846 18.6113 14.1055C18.6113 15.8862 17.2628 17.311 15.0959 17.311ZM40.6077 38.401H34.3948V28.4739C34.3948 25.9791 33.4951 24.2776 31.2469 24.2776C29.5305 24.2776 28.5082 25.4253 28.0589 26.5332C27.8946 26.9297 27.8545 27.4839 27.8545 28.0384V38.401H21.6413C21.6413 38.401 21.7226 21.5857 21.6413 19.8448H27.8545V22.4722C28.6802 21.2078 30.1576 19.4093 33.4542 19.4093C37.5423 19.4093 40.6077 22.0614 40.6077 27.7609V38.401Z" fill="white"/>
</svg>
