<svg width="52" height="35" viewBox="0 0 52 35" fill="none" xmlns="http://www.w3.org/2000/svg">
<path d="M48.8579 3.38588C47.4738 0.941986 45.9717 0.492461 42.9133 0.321515C39.8581 0.115746 32.1754 0.0302734 25.5197 0.0302734C18.8511 0.0302734 11.1652 0.115747 8.11322 0.318349C5.0612 0.492461 3.55591 0.93882 2.15906 3.38588C0.733507 5.82661 0 10.0306 0 17.4319C0 17.4383 0 17.4414 0 17.4414C0 17.4478 0 17.4509 0 17.4509V17.4573C0 24.827 0.733507 29.0626 2.15906 31.478C3.55591 33.9219 5.05801 34.3651 8.11003 34.5709C11.1652 34.7482 18.8511 34.8526 25.5197 34.8526C32.1754 34.8526 39.8581 34.7481 42.9165 34.574C45.9749 34.3683 47.477 33.9251 48.8611 31.4812C50.2994 29.0658 51.0266 24.8301 51.0266 17.4604C51.0266 17.4604 51.0266 17.4509 51.0266 17.4446C51.0266 17.4446 51.0266 17.4383 51.0266 17.4351C51.0266 10.0306 50.2994 5.82661 48.8579 3.38588ZM19.135 26.9384V7.94444L35.0808 17.4414L19.135 26.9384Z" fill="white"/>
</svg>
