<svg width="91" height="81" viewBox="0 0 91 81" fill="none" xmlns="http://www.w3.org/2000/svg">
<path d="M85.4687 15.33L45.9461 0.877092C45.5893 0.787877 45.3216 0.787877 44.9648 0.877092L5.62065 15.33C4.99614 15.5977 4.55006 16.2222 4.72849 16.9359C4.81771 17.5604 5.353 18.0957 6.06673 18.0957H84.9334C85.6471 18.0957 86.1824 17.5604 86.3608 16.9359C86.4501 16.2222 86.0932 15.5977 85.4687 15.33ZM14.1854 15.1516L45.5001 3.73199L76.8148 15.1516H14.1854Z" fill="#FB8902"/>
<path d="M89.5725 71.4467H85.5578V66.9859C85.5578 66.183 84.9333 65.5585 84.1304 65.5585H81.8108V61.1869C81.8108 60.384 81.1863 59.7595 80.3833 59.7595H79.4912V25.1438H83.0598C83.8627 25.1438 84.4873 24.5193 84.4873 23.7163C84.4873 22.9134 83.8627 22.2889 83.0598 22.2889H78.0637H70.9265H49.0686H41.9314H20.0735H12.9363H7.9402C7.13725 22.2889 6.51274 22.9134 6.51274 23.7163C6.51274 24.5193 7.13725 25.1438 7.9402 25.1438H11.5088V59.7595H10.6167C9.81372 59.7595 9.18922 60.384 9.18922 61.1869V65.5585H6.86961C6.06667 65.5585 5.44216 66.183 5.44216 66.9859V71.4467H1.42745C0.62451 71.4467 0 72.0712 0 72.8742V78.7624C0 79.5654 0.62451 80.1899 1.42745 80.1899H89.5725C90.3755 80.1899 91 79.5654 91 78.7624V72.8742C91 72.0712 90.3755 71.4467 89.5725 71.4467ZM72.3539 25.1438H76.5471V59.7595H72.3539V25.1438ZM70.0343 62.6144H70.9265H78.0637H78.9559V65.5585H70.0343V62.6144ZM50.4961 25.1438H69.499V59.7595H68.6069C67.8039 59.7595 67.1794 60.384 67.1794 61.1869V65.5585H52.8157V61.1869C52.8157 60.384 52.1912 59.7595 51.3882 59.7595H50.4961V25.1438ZM43.448 25.1438H47.6412V59.7595H43.448V25.1438ZM41.0392 62.6144H41.9314H49.0686H49.9608V65.5585H41.0392V62.6144ZM21.501 25.1438H40.5039V59.7595H39.6118C38.8088 59.7595 38.1843 60.384 38.1843 61.1869V65.5585H23.8206V61.1869C23.8206 60.384 23.1961 59.7595 22.3931 59.7595H21.501V25.1438ZM14.4529 25.1438H18.6461V59.7595H14.4529V25.1438ZM12.0441 62.6144H12.9363H20.0735H20.9657V65.5585H12.0441V62.6144ZM8.29706 68.4134H10.6167H22.3931H39.6118H51.3882H68.6069H80.3833H82.7029V71.4467H8.29706V68.4134ZM88.1451 77.335H2.8549V74.3016H6.86961H84.1304H88.1451V77.335Z" fill="#FB8902"/>
</svg>
