<svg width="43" height="67" viewBox="0 0 43 67" fill="none" xmlns="http://www.w3.org/2000/svg">
<path d="M42.3649 61.8454L34.7435 35.2254C38.8139 31.5832 41.3906 26.306 41.3906 20.4141C41.3906 9.42878 32.4853 0.523438 21.5 0.523438C10.5147 0.523438 1.60939 9.42878 1.60939 20.4141C1.60939 26.288 4.17078 31.5506 8.21957 35.1918L0.635062 61.6828C0.514462 62.102 0.666782 62.5508 1.01644 62.8105C1.364 63.0712 1.84043 63.0875 2.20537 62.8524L9.19609 58.3746L13.0126 65.7497C13.1935 66.0994 13.5534 66.3151 13.9419 66.3151C13.9786 66.3151 14.0164 66.313 14.0543 66.309C14.4847 66.2629 14.8415 65.9563 14.953 65.5391L21.4782 41.1835L28.0471 65.7006C28.1584 66.1178 28.5152 66.4244 28.9457 66.4705C28.9835 66.4746 29.0213 66.4766 29.0581 66.4766C29.4466 66.4766 29.8064 66.2609 29.9874 65.9112L33.8038 58.5381L40.7945 63.015C41.1606 63.2501 41.635 63.2338 41.9846 62.9731C42.3332 62.7134 42.4856 62.2646 42.3649 61.8454ZM3.70314 20.4141C3.70314 10.6009 11.6867 2.61719 21.5 2.61719C31.3132 2.61719 39.2969 10.6009 39.2969 20.4141C39.2969 30.2274 31.3132 38.2109 21.5 38.2109C11.6867 38.2109 3.70314 30.2274 3.70314 20.4141ZM13.63 62.3873L10.5272 56.3922C10.3922 56.1316 10.153 55.9383 9.86881 55.8627C9.58563 55.787 9.28099 55.8331 9.03361 55.9925L3.41074 59.5942L9.98889 36.616C12.7472 38.5794 16.0184 39.8654 19.5724 40.2074L13.63 62.3873ZM33.9664 56.1561C33.719 55.9966 33.4143 55.9516 33.1311 56.0262C32.8469 56.1019 32.6077 56.2952 32.4727 56.5559L29.37 62.5498L23.3846 40.2096C26.9381 39.8753 30.2117 38.6002 32.9728 36.6447L39.5893 59.7568L33.9664 56.1561Z" fill="#FB8902"/>
<path d="M21.5 32.9766C28.4381 32.9766 34.0625 27.3521 34.0625 20.4141C34.0625 13.476 28.4381 7.85156 21.5 7.85156C14.5618 7.85156 8.93752 13.476 8.93752 20.4141C8.93752 27.3521 14.5618 32.9766 21.5 32.9766ZM21.5 9.94531C27.2725 9.94531 31.9688 14.6416 31.9688 20.4141C31.9688 26.1866 27.2725 30.8828 21.5 30.8828C15.7274 30.8828 11.0313 26.1866 11.0313 20.4141C11.0313 14.6416 15.7274 9.94531 21.5 9.94531Z" fill="#FB8902"/>
</svg>
