<svg width="60" height="66" viewBox="0 0 60 66" fill="none" xmlns="http://www.w3.org/2000/svg">
<g clip-path="url(#clip0)">
<path d="M48.776 60.6408L42.0057 34.8154C45.6216 31.2819 47.9106 26.1623 47.9106 20.4462C47.9106 9.78888 39.9997 1.14937 30.2412 1.14937C20.4826 1.14937 12.5717 9.78888 12.5717 20.4462C12.5717 26.1448 14.8471 31.2504 18.4437 34.7828L11.7062 60.4831C11.5991 60.8897 11.7344 61.3251 12.045 61.5771C12.3537 61.83 12.777 61.8459 13.1011 61.6177L19.3112 57.2736L22.7015 64.4286C22.8622 64.7678 23.1819 64.9771 23.527 64.9771C23.5597 64.9771 23.5933 64.9751 23.6269 64.9711C24.0092 64.9264 24.3262 64.629 24.4252 64.2242L30.2218 40.5957L36.0571 64.381C36.156 64.7857 36.473 65.0832 36.8554 65.1278C36.889 65.1318 36.9225 65.1337 36.9553 65.1337C37.3004 65.1337 37.62 64.9245 37.7808 64.5853L41.171 57.4323L47.3811 61.7755C47.7063 62.0036 48.1277 61.9877 48.4383 61.7348C48.7479 61.4829 48.8833 61.0475 48.776 60.6408ZM14.4317 20.4462C14.4317 10.926 21.5237 3.18062 30.2412 3.18062C38.9585 3.18062 46.0507 10.926 46.0507 20.4462C46.0507 29.9666 38.9585 37.7119 30.2412 37.7119C21.5237 37.7119 14.4317 29.9666 14.4317 20.4462ZM23.25 61.1665L20.4937 55.3504C20.3738 55.0975 20.1613 54.9101 19.9088 54.8367C19.6572 54.7633 19.3866 54.808 19.1669 54.9627L14.1719 58.4568L20.0155 36.1646C22.4658 38.0694 25.3716 39.317 28.5288 39.6488L23.25 61.1665ZM41.3154 55.1213C41.0957 54.9666 40.825 54.9229 40.5734 54.9954C40.3209 55.0688 40.1084 55.2563 39.9886 55.5092L37.2323 61.3242L31.9153 39.6509C35.072 39.3265 37.98 38.0895 40.4328 36.1924L46.3104 58.6145L41.3154 55.1213Z" fill="#DEA033"/>
<path d="M30.2412 32.6337C36.4045 32.6337 41.4008 27.1772 41.4008 20.4462C41.4008 13.7153 36.4045 8.25874 30.2412 8.25874C24.0778 8.25874 19.0815 13.7153 19.0815 20.4462C19.0815 27.1772 24.0778 32.6337 30.2412 32.6337ZM30.2412 10.29C35.3691 10.29 39.5409 14.8461 39.5409 20.4462C39.5409 26.0465 35.3691 30.6025 30.2412 30.6025C25.1132 30.6025 20.9415 26.0465 20.9415 20.4462C20.9415 14.8461 25.1132 10.29 30.2412 10.29Z" fill="#DEA033"/>
</g>
<defs>
<clipPath id="clip0">
<rect width="59.5181" height="65" fill="white" transform="translate(0.481934 0.641556)"/>
</clipPath>
</defs>
</svg>
