<svg width="65" height="66" viewBox="0 0 65 66" fill="none" xmlns="http://www.w3.org/2000/svg">
<g clip-path="url(#clip0)">
<path d="M61.049 14.5403L32.8186 4.21679C32.5637 4.15306 32.3725 4.15306 32.1176 4.21679L4.0147 14.5403C3.56862 14.7315 3.24999 15.1776 3.37744 15.6874C3.44117 16.1335 3.82352 16.5158 4.33332 16.5158H60.6667C61.1765 16.5158 61.5588 16.1335 61.6863 15.6874C61.75 15.1776 61.4951 14.7315 61.049 14.5403ZM10.1323 14.4129L32.5 6.256L54.8676 14.4129H10.1323Z" fill="#DEA033"/>
<path d="M63.9804 54.6236H61.1127V51.4374C61.1127 50.8638 60.6667 50.4178 60.0931 50.4178H58.4363V47.2952C58.4363 46.7217 57.9902 46.2756 57.4167 46.2756H56.7794V21.5501H59.3284C59.902 21.5501 60.348 21.104 60.348 20.5305C60.348 19.957 59.902 19.5109 59.3284 19.5109H55.7598H50.6618H35.049H29.951H14.3382H9.2402H5.67157C5.09804 19.5109 4.65196 19.957 4.65196 20.5305C4.65196 21.104 5.09804 21.5501 5.67157 21.5501H8.22059V46.2756H7.58333C7.0098 46.2756 6.56373 46.7217 6.56373 47.2952V50.4178H4.90686C4.33333 50.4178 3.88725 50.8638 3.88725 51.4374V54.6236H1.01961C0.446078 54.6236 0 55.0697 0 55.6433V59.8491C0 60.4227 0.446078 60.8688 1.01961 60.8688H63.9804C64.5539 60.8688 65 60.4227 65 59.8491V55.6433C65 55.0697 64.5539 54.6236 63.9804 54.6236ZM51.6814 21.5501H54.6765V46.2756H51.6814V21.5501ZM50.0245 48.3148H50.6618H55.7598H56.3971V50.4178H50.0245V48.3148ZM36.0686 21.5501H49.6422V46.2756H49.0049C48.4314 46.2756 47.9853 46.7217 47.9853 47.2952V50.4178H37.7255V47.2952C37.7255 46.7217 37.2794 46.2756 36.7059 46.2756H36.0686V21.5501ZM31.0343 21.5501H34.0294V46.2756H31.0343V21.5501ZM29.3137 48.3148H29.951H35.049H35.6863V50.4178H29.3137V48.3148ZM15.3578 21.5501H28.9314V46.2756H28.2941C27.7206 46.2756 27.2745 46.7217 27.2745 47.2952V50.4178H17.0147V47.2952C17.0147 46.7217 16.5686 46.2756 15.9951 46.2756H15.3578V21.5501ZM10.3235 21.5501H13.3186V46.2756H10.3235V21.5501ZM8.60294 48.3148H9.2402H14.3382H14.9755V50.4178H8.60294V48.3148ZM5.92647 52.457H7.58333H15.9951H28.2941H36.7059H49.0049H57.4167H59.0735V54.6236H5.92647V52.457ZM62.9608 58.8295H2.03922V56.6629H4.90686H60.0931H62.9608V58.8295Z" fill="#DEA033"/>
</g>
<defs>
<clipPath id="clip0">
<rect width="65" height="65" fill="white" transform="translate(0 0.0188599)"/>
</clipPath>
</defs>
</svg>
