<svg width="54" height="59" viewBox="0 0 54 59" fill="none" xmlns="http://www.w3.org/2000/svg">
<path d="M37.3027 46.6927C36.6102 46.6927 35.9375 46.603 35.293 46.4375L36.3878 57.028C36.4765 57.8868 37.1672 58.5375 37.9897 58.5375H47.3913C48.2138 58.5375 48.9044 57.8868 48.9932 57.028L50.088 46.4375C49.4436 46.6031 48.7708 46.6927 48.0783 46.6927H37.3027Z" fill="#DEA033"/>
<path d="M5.20298 46.6927C4.51032 46.6927 3.83765 46.603 3.19312 46.4375L4.28796 57.028C4.3768 57.8868 5.0673 58.5375 5.88994 58.5375H15.2914C16.114 58.5375 16.8045 57.8868 16.8933 57.028L17.9881 46.4375C17.3437 46.6031 16.6709 46.6927 15.9783 46.6927H5.20298Z" fill="#DEA033"/>
<path d="M41.309 20.3855V22.7512C41.7566 22.8414 42.2181 22.8905 42.6904 22.8905C46.7219 22.8905 50.0018 19.4463 50.0018 15.2128C50.0018 10.9793 46.722 7.53516 42.6904 7.53516C39.7794 7.53516 37.2611 9.33136 36.0857 11.9234C39.159 13.3639 41.309 16.6138 41.309 20.3855V20.3855Z" fill="#DEA033"/>
<path d="M26.6362 16.1356C30.6741 16.1356 33.9474 12.6982 33.9474 8.45795C33.9474 4.21768 30.6741 0.780273 26.6362 0.780273C22.5983 0.780273 19.325 4.21768 19.325 8.45795C19.325 12.6982 22.5983 16.1356 26.6362 16.1356Z" fill="#DEA033"/>
<path d="M25.5176 24.2836L26.6364 25.8898L27.7551 24.2836L26.6364 21.1152L25.5176 24.2836Z" fill="#DEA033"/>
<path d="M15.1863 20.3853V34.1771C15.1863 37.4147 17.6746 40.0485 20.7331 40.0485H32.5398C35.5983 40.0485 38.0866 37.4145 38.0866 34.1771V20.3853C38.0866 18.0938 36.8391 16.1059 35.026 15.1392C33.6312 17.066 31.649 18.4994 29.3625 19.1435L31.0887 23.7769C31.295 24.3303 31.2096 24.9566 30.8638 25.4271L27.9121 29.4436C27.6071 29.8587 27.1358 30.102 26.6365 30.102C26.1371 30.102 25.6659 29.8589 25.3609 29.4436L22.4092 25.4271C22.0635 24.9567 21.9781 24.3303 22.1843 23.7769L23.9104 19.1435C21.6239 18.4994 19.6418 17.066 18.2468 15.1392C16.4337 16.1059 15.1863 18.0937 15.1863 20.3853V20.3853Z" fill="#DEA033"/>
<path d="M51.4133 21.4082C49.5171 24.343 46.3146 26.275 42.6904 26.275C42.2222 26.275 41.7612 26.2422 41.309 26.1797V34.1775C41.309 38.2274 38.8306 41.6756 35.3914 42.9279C35.9836 43.1727 36.628 43.3087 37.3028 43.3087H48.0783C50.9471 43.3087 53.2812 40.8754 53.2812 37.8843V25.5677C53.2812 23.8988 52.5541 22.4041 51.4133 21.4082V21.4082Z" fill="#DEA033"/>
<path d="M10.5906 22.8904C11.0599 22.8904 11.5184 22.8419 11.9632 22.7528V20.3854C11.9632 16.6106 14.1165 13.3585 17.1938 11.9199C16.0177 9.32967 13.5003 7.53516 10.5906 7.53516C6.55911 7.53516 3.2793 10.9793 3.2793 15.2128C3.2793 19.4463 6.55921 22.8904 10.5906 22.8904V22.8904Z" fill="#DEA033"/>
<path d="M15.9785 43.3087C16.6517 43.3087 17.2947 43.1732 17.8857 42.9296C14.4441 41.6788 11.9635 38.2293 11.9635 34.1775V26.181C11.514 26.2427 11.056 26.275 10.5908 26.275C6.96663 26.275 3.76417 24.343 1.86807 21.4082C0.727139 22.4041 0 23.8988 0 25.5677V37.8843C0 40.8754 2.33417 43.3087 5.20309 43.3087H15.9785Z" fill="#DEA033"/>
<path d="M20.7328 43.4327C20.1068 43.4327 19.4963 43.3617 18.907 43.2295L20.3334 57.0278C20.4222 57.8866 21.1127 58.5372 21.9353 58.5372H31.3368C32.1593 58.5372 32.8499 57.8866 32.9387 57.0278L34.3651 43.2295C33.7759 43.3617 33.1654 43.4327 32.5394 43.4327H20.7328Z" fill="#DEA033"/>
</svg>
