<svg width="54" height="60" viewBox="0 0 54 60" fill="none" xmlns="http://www.w3.org/2000/svg">
<path d="M37.303 47.6953C36.6104 47.6953 35.9377 47.6022 35.2932 47.4302L36.3881 58.4319C36.4768 59.3241 37.1674 60 37.9899 60H47.3915C48.214 60 48.9046 59.3241 48.9934 58.4319L50.0882 47.4302C49.4438 47.6023 48.771 47.6953 48.0785 47.6953H37.303Z" fill="#DEA033"/>
<path d="M5.20298 47.6953C4.51032 47.6953 3.83765 47.6022 3.19312 47.4302L4.28796 58.4319C4.3768 59.3241 5.0673 60 5.88994 60H15.2914C16.114 60 16.8045 59.3241 16.8933 58.4319L17.9881 47.4302C17.3437 47.6023 16.6709 47.6953 15.9784 47.6953H5.20298Z" fill="#DEA033"/>
<path d="M41.309 20.3665V22.824C41.7566 22.9178 42.2181 22.9688 42.6904 22.9688C46.7219 22.9688 50.0018 19.3908 50.0018 14.9929C50.0018 10.5949 46.722 7.01695 42.6904 7.01695C39.7794 7.01695 37.2611 8.88293 36.0857 11.5757C39.159 13.0722 41.309 16.4482 41.309 20.3665Z" fill="#DEA033"/>
<path d="M26.6362 15.9518C30.6741 15.9518 33.9474 12.3809 33.9474 7.9759C33.9474 3.57093 30.6741 0 26.6362 0C22.5983 0 19.325 3.57093 19.325 7.9759C19.325 12.3809 22.5983 15.9518 26.6362 15.9518Z" fill="#DEA033"/>
<path d="M25.5176 24.244L26.6364 25.8254L27.7551 24.244L26.6364 21.1245L25.5176 24.244Z" fill="#DEA033"/>
<path d="M15.1863 20.3665V34.6938C15.1863 38.0571 17.6746 40.7932 20.7331 40.7932H32.5398C35.5983 40.7932 38.0866 38.057 38.0866 34.6938V20.3665C38.0866 17.9859 36.8391 15.9209 35.026 14.9166C33.6312 16.9182 31.649 18.4073 29.3625 19.0764L31.0887 23.8897C31.295 24.4647 31.2096 25.1153 30.8638 25.6041L27.9121 29.7765C27.607 30.2078 27.1358 30.4604 26.6365 30.4604C26.1371 30.4604 25.6659 30.2079 25.3609 29.7765L22.4092 25.6041C22.0635 25.1154 21.9781 24.4647 22.1843 23.8897L23.9104 19.0764C21.6239 18.4073 19.6418 16.9182 18.2468 14.9166C16.4337 15.9209 15.1863 17.9858 15.1863 20.3665Z" fill="#DEA033"/>
<path d="M51.4133 21.4286C49.5171 24.4773 46.3147 26.4844 42.6905 26.4844C42.2222 26.4844 41.7613 26.4503 41.309 26.3854V34.6938C41.309 38.901 38.8306 42.4832 35.3914 43.7841C35.9836 44.0384 36.628 44.1797 37.3028 44.1797H48.0783C50.9471 44.1797 53.2813 41.6518 53.2813 38.5446V25.7496C53.2813 24.0159 52.5541 22.4631 51.4133 21.4286Z" fill="#DEA033"/>
<path d="M10.5908 22.9688C11.0601 22.9688 11.5186 22.9184 11.9634 22.8258V20.3665C11.9634 16.445 14.1167 13.0666 17.194 11.5722C16.018 8.88129 13.5005 7.01707 10.5908 7.01707C6.55935 7.01707 3.27954 10.595 3.27954 14.993C3.27954 19.3909 6.55945 22.9688 10.5908 22.9688Z" fill="#DEA033"/>
<path d="M15.9785 44.1797C16.6517 44.1797 17.2947 44.0389 17.8857 43.7858C14.4441 42.4865 11.9635 38.903 11.9635 34.6938V26.3868C11.514 26.4509 11.056 26.4844 10.5908 26.4844C6.96663 26.4844 3.76417 24.4773 1.86807 21.4286C0.727139 22.4631 0 24.0159 0 25.7496V38.5446C0 41.6518 2.33417 44.1797 5.20309 44.1797H15.9785Z" fill="#DEA033"/>
<path d="M20.7328 44.3088C20.1068 44.3088 19.4963 44.2351 18.907 44.0978L20.3334 58.4319C20.4222 59.3241 21.1127 60 21.9353 60H31.3368C32.1593 60 32.8499 59.3241 32.9386 58.4319L34.3651 44.0978C33.7759 44.2351 33.1654 44.3088 32.5393 44.3088H20.7328Z" fill="#DEA033"/>
</svg>
