<svg width="67" height="67" viewBox="0 0 67 67" fill="none" xmlns="http://www.w3.org/2000/svg">
<path d="M46.0094 0.149048C47.5474 0.150221 48.7938 1.39663 48.7956 2.93411V4.46983C48.7938 6.00731 47.548 7.25313 46.0105 7.2549H46.0094C44.4719 7.25313 43.2261 6.00731 43.2243 4.46983V2.93411C43.2261 1.39663 44.4719 0.150808 46.0094 0.149048V0.149048Z" fill="#FB8902"/>
<path d="M20.9889 0.149048C22.527 0.150221 23.7734 1.39663 23.7752 2.93411V4.46983C23.7734 6.00731 22.5276 7.25313 20.9901 7.2549H20.9889C19.4515 7.25313 18.2056 6.00731 18.2039 4.46983V2.93411C18.2056 1.39663 19.4515 0.150808 20.9889 0.149048V0.149048Z" fill="#FB8902"/>
<path d="M8.73724 14.8109H8.52305C6.78195 14.8085 5.37064 13.3972 5.36829 11.6561V9.71665C5.37064 7.97496 6.78195 6.56424 8.52305 6.56189H8.73724C10.4783 6.56424 11.8897 7.97496 11.892 9.71665V11.6561C11.8897 13.3972 10.4783 14.8085 8.73724 14.8109Z" fill="#FB8902"/>
<path d="M3.42883 20.7096H3.94113L5.35655 22.9307C5.65583 23.4014 6.27023 23.5557 6.75671 23.284L8.53068 22.2923L10.165 23.2623C10.3199 23.3579 10.4977 23.4113 10.6802 23.4178C11.0652 23.4283 11.4261 23.2294 11.6227 22.8979L12.9037 20.7096H13.5287C14.4987 20.709 15.4235 21.1198 16.0737 21.8392C16.7239 22.5587 17.0396 23.5199 16.9416 24.4846C16.9381 24.5198 16.9363 24.5556 16.9363 24.5908V35.7628L13.5498 40.3829C13.4271 40.5501 13.3567 40.7502 13.3473 40.9574L12.5733 58.2663C12.5498 59.092 11.8726 59.7492 11.0464 59.7474H5.88821C5.0649 59.7504 4.38888 59.0978 4.3613 58.2751L3.58845 40.9574C3.57906 40.7514 3.50923 40.5524 3.38776 40.3858L0.0229101 35.7628V24.5908C0.0229101 24.5556 0.0211497 24.5198 0.0176287 24.4846C-0.0803709 23.5199 0.234753 22.5593 0.884954 21.8398C1.53515 21.1204 2.4594 20.7096 3.42883 20.7096V20.7096Z" fill="#FB8902"/>
<path d="M33.7576 14.8109H33.544C31.8023 14.8085 30.391 13.3972 30.3893 11.6561V9.71665C30.391 7.97496 31.8023 6.56424 33.544 6.56189H33.7576C35.4987 6.56424 36.91 7.97496 36.9124 9.71665V11.6561C36.91 13.3972 35.4987 14.8085 33.7576 14.8109Z" fill="#FB8902"/>
<path d="M28.4498 20.7096H28.9615L30.377 22.9307C30.6762 23.4014 31.2906 23.5557 31.7771 23.284L33.5511 22.2923L35.1854 23.2623C35.3409 23.3579 35.5181 23.4113 35.7006 23.4178C36.0856 23.4283 36.4465 23.2294 36.6431 22.8979L37.9235 20.7096H38.5491C39.5185 20.709 40.4433 21.1198 41.0935 21.8392C41.7443 22.5587 42.0594 23.5199 41.962 24.4846C41.9585 24.5198 41.9567 24.5556 41.9567 24.5908V35.7628L38.5696 40.3823C38.4469 40.5501 38.3765 40.7496 38.3671 40.9574L37.5943 58.2663C37.5708 59.092 36.8936 59.7492 36.0674 59.7474H30.9086C30.0853 59.7504 29.4093 59.0978 29.3823 58.2751L28.6089 40.9574C28.5995 40.7514 28.5302 40.5524 28.4087 40.3858L25.0433 35.7628V24.5908C25.0433 24.5556 25.0416 24.5198 25.038 24.4846C24.9406 23.5199 25.2557 22.5593 25.9059 21.8398C26.5556 21.1204 27.4798 20.7096 28.4498 20.7096V20.7096Z" fill="#FB8902"/>
<path d="M58.8449 14.8109H58.6307C56.8896 14.8085 55.4783 13.3972 55.476 11.6561V9.71665C55.4783 7.97496 56.8896 6.56424 58.6307 6.56189H58.8449C60.586 6.56424 61.9973 7.97496 61.9997 9.71665V11.6561C61.9973 13.3972 60.586 14.8085 58.8449 14.8109Z" fill="#FB8902"/>
<path d="M53.4702 20.7096H53.9825L55.3973 22.9307C55.6972 23.4014 56.311 23.5557 56.7981 23.284L58.5715 22.2923L60.2058 23.2617C60.4464 23.4096 60.7368 23.4542 61.0109 23.3855C61.2849 23.3169 61.5197 23.1408 61.6628 22.8973L62.9445 20.7096H63.5694C64.5394 20.709 65.4643 21.1198 66.1145 21.8392C66.7647 22.5587 67.0804 23.5199 66.9824 24.4846C66.9789 24.5198 66.9771 24.5556 66.9771 24.5908V35.7628L63.5906 40.3823C63.4673 40.5501 63.3969 40.7496 63.3875 40.9574L62.6153 58.2663C62.5918 59.092 61.9146 59.7492 61.0878 59.7474H55.929C55.1057 59.7504 54.4291 59.0978 54.4021 58.2751L53.6304 40.9574C53.621 40.7508 53.5512 40.5519 53.4297 40.3852L50.0649 35.7628V24.5908C50.0649 24.5551 50.0631 24.5198 50.0596 24.4846C49.9616 23.5199 50.2767 22.5587 50.9269 21.8392C51.5771 21.1198 52.5014 20.7096 53.4708 20.7096H53.4702Z" fill="#FB8902"/>
</svg>
