<svg width="30" height="22" viewBox="0 0 30 22" fill="none" xmlns="http://www.w3.org/2000/svg">
<path d="M29.3819 3.28783C29.0361 2.00266 28.0228 0.989635 26.7379 0.643567C24.3902 0.00109863 14.9997 0.00109863 14.9997 0.00109863C14.9997 0.00109863 5.60941 0.00109863 3.26178 0.619077C2.00156 0.964916 0.963588 2.00289 0.61775 3.28783C0 5.63523 0 10.5035 0 10.5035C0 10.5035 0 15.3963 0.61775 17.7192C0.963817 19.0042 1.97684 20.0174 3.26201 20.3635C5.63413 21.006 14.9999 21.006 14.9999 21.006C14.9999 21.006 24.3902 21.006 26.7379 20.388C28.023 20.0421 29.0361 19.0289 29.3821 17.7439C29.9999 15.3963 29.9999 10.5282 29.9999 10.5282C29.9999 10.5282 30.0246 5.63523 29.3819 3.28783Z" fill="#DEA033"/>
<path d="M12.0098 15.0002L19.8185 10.5027L12.0098 6.00513V15.0002Z" fill="white"/>
</svg>
