<svg width="192" height="143" viewBox="0 0 192 143" fill="none" xmlns="http://www.w3.org/2000/svg">
<path d="M12.6973 132.273C12.6973 135.424 10.6777 137 6.63867 137H2.07324V121.295H11.6553V123.497H4.64062V127.676H6.50977C10.6348 127.676 12.6973 129.208 12.6973 132.273ZM4.64062 134.841H6.48828C7.72005 134.841 8.6224 134.64 9.19531 134.239C9.76823 133.831 10.0547 133.176 10.0547 132.273C10.0547 131.407 9.76465 130.784 9.18457 130.404C8.61165 130.018 7.60905 129.824 6.17676 129.824H4.64062V134.841ZM18.0791 129.867H20.4854C22.1468 129.867 23.375 130.154 24.1699 130.727C24.9648 131.299 25.3623 132.159 25.3623 133.305C25.3623 134.529 24.9469 135.453 24.1162 136.076C23.2926 136.692 22.0824 137 20.4854 137H15.5547V125.119H18.0791V129.867ZM22.8594 133.369C22.8594 132.775 22.6374 132.359 22.1934 132.123C21.7565 131.887 21.1263 131.769 20.3027 131.769H18.0791V135.131H19.9805C20.9974 135.131 21.7314 134.988 22.1826 134.701C22.6338 134.415 22.8594 133.971 22.8594 133.369ZM29.7666 137H27.2314V125.119H29.7666V137ZM38.1777 137.215C36.3802 137.215 35.0124 136.692 34.0742 135.646C33.1432 134.594 32.6777 133.086 32.6777 131.124C32.6777 129.126 33.1647 127.59 34.1387 126.516C35.1198 125.441 36.5342 124.904 38.3818 124.904C39.6351 124.904 40.763 125.137 41.7656 125.603L41.0029 127.633C39.9359 127.217 39.055 127.01 38.3604 127.01C36.305 127.01 35.2773 128.374 35.2773 131.103C35.2773 132.435 35.5316 133.437 36.04 134.11C36.5557 134.776 37.3076 135.109 38.2959 135.109C39.4202 135.109 40.4837 134.83 41.4863 134.271V136.474C41.0352 136.739 40.5518 136.928 40.0361 137.043C39.5277 137.158 38.9082 137.215 38.1777 137.215ZM53.2061 125.119V127.096H49.3389V137H46.8037V127.096H42.9365V125.119H53.2061ZM61.5205 137.215C60.0166 137.215 58.8493 136.674 58.0186 135.593H57.8682C57.9684 136.595 58.0186 137.204 58.0186 137.419V142.285H55.4941V125.119H57.5352C57.5924 125.341 57.7106 125.871 57.8896 126.709H58.0186C58.8063 125.506 59.988 124.904 61.5635 124.904C63.0459 124.904 64.1989 125.441 65.0225 126.516C65.8532 127.59 66.2686 129.097 66.2686 131.038C66.2686 132.979 65.846 134.493 65.001 135.582C64.1631 136.671 63.0029 137.215 61.5205 137.215ZM60.9082 126.967C59.9056 126.967 59.1715 127.26 58.7061 127.848C58.2477 128.435 58.0186 129.373 58.0186 130.662V131.038C58.0186 132.485 58.2477 133.534 58.7061 134.186C59.1644 134.83 59.9128 135.152 60.9512 135.152C61.8249 135.152 62.498 134.794 62.9707 134.078C63.4434 133.362 63.6797 132.341 63.6797 131.017C63.6797 129.685 63.4434 128.678 62.9707 127.998C62.5052 127.311 61.8177 126.967 60.9082 126.967ZM76.6348 137L76.1299 135.346H76.0439C75.471 136.069 74.8945 136.563 74.3145 136.828C73.7344 137.086 72.9896 137.215 72.0801 137.215C70.9128 137.215 69.9997 136.9 69.3408 136.27C68.6891 135.639 68.3633 134.748 68.3633 133.595C68.3633 132.37 68.818 131.446 69.7275 130.823C70.637 130.2 72.0228 129.86 73.8848 129.803L75.9365 129.738V129.104C75.9365 128.345 75.7575 127.78 75.3994 127.407C75.0485 127.028 74.5007 126.838 73.7559 126.838C73.1471 126.838 72.5635 126.927 72.0049 127.106C71.4463 127.285 70.9092 127.497 70.3936 127.74L69.5771 125.936C70.2217 125.599 70.9271 125.345 71.6934 125.173C72.4596 124.994 73.1829 124.904 73.8633 124.904C75.3743 124.904 76.513 125.234 77.2793 125.893C78.0527 126.551 78.4395 127.586 78.4395 128.997V137H76.6348ZM72.875 135.281C73.7917 135.281 74.5257 135.027 75.0771 134.519C75.6357 134.003 75.915 133.283 75.915 132.359V131.328L74.3896 131.393C73.2008 131.436 72.3343 131.636 71.79 131.994C71.2529 132.345 70.9844 132.886 70.9844 133.616C70.9844 134.146 71.1419 134.558 71.457 134.852C71.7721 135.138 72.2448 135.281 72.875 135.281ZM83.1768 137H80.3516L83.6602 132.134C82.8581 131.905 82.2279 131.496 81.7695 130.909C81.3112 130.315 81.082 129.581 81.082 128.707C81.082 127.583 81.4831 126.705 82.2852 126.075C83.0872 125.438 84.1829 125.119 85.5723 125.119H90.9863V137H88.4512V132.424H86.0557L83.1768 137ZM83.542 128.729C83.542 129.337 83.7712 129.796 84.2295 130.104C84.695 130.404 85.318 130.555 86.0986 130.555H88.4512V127.031H85.7012C85.0137 127.031 84.4801 127.178 84.1006 127.472C83.7282 127.765 83.542 128.184 83.542 128.729ZM110.698 125.119V137H108.163V127.117H102.835V137H100.311V125.119H110.698ZM124.856 131.038C124.856 132.979 124.359 134.493 123.363 135.582C122.368 136.671 120.982 137.215 119.206 137.215C118.096 137.215 117.115 136.964 116.263 136.463C115.41 135.962 114.755 135.242 114.297 134.304C113.839 133.366 113.609 132.277 113.609 131.038C113.609 129.112 114.104 127.608 115.092 126.526C116.08 125.445 117.473 124.904 119.271 124.904C120.989 124.904 122.35 125.459 123.353 126.569C124.355 127.672 124.856 129.162 124.856 131.038ZM116.209 131.038C116.209 133.781 117.222 135.152 119.249 135.152C121.254 135.152 122.257 133.781 122.257 131.038C122.257 128.324 121.247 126.967 119.228 126.967C118.168 126.967 117.398 127.318 116.918 128.02C116.445 128.721 116.209 129.728 116.209 131.038ZM134.589 134.583L134.729 134.067C135.022 133 135.276 132.18 135.491 131.607L138.155 125.119H141.518V137H139.187V127.407L138.993 128.052C138.671 129.205 138.399 130.053 138.177 130.598L135.577 137H133.665L131.065 130.555C130.707 129.624 130.378 128.575 130.077 127.407V137H127.768V125.119H131.108L133.687 131.414C133.916 131.994 134.216 133.05 134.589 134.583ZM155.665 131.038C155.665 132.979 155.167 134.493 154.172 135.582C153.176 136.671 151.791 137.215 150.015 137.215C148.905 137.215 147.924 136.964 147.071 136.463C146.219 135.962 145.564 135.242 145.105 134.304C144.647 133.366 144.418 132.277 144.418 131.038C144.418 129.112 144.912 127.608 145.9 126.526C146.889 125.445 148.282 124.904 150.079 124.904C151.798 124.904 153.159 125.459 154.161 126.569C155.164 127.672 155.665 129.162 155.665 131.038ZM147.018 131.038C147.018 133.781 148.031 135.152 150.058 135.152C152.063 135.152 153.065 133.781 153.065 131.038C153.065 128.324 152.056 126.967 150.036 126.967C148.976 126.967 148.206 127.318 147.727 128.02C147.254 128.721 147.018 129.728 147.018 131.038ZM175.409 135.045H177.117V141.179H174.743V137H158.576V125.119H161.101V135.002H165.73V125.119H168.255V135.002H172.874V125.119H175.409V135.045ZM181.812 129.867H184.787C188.103 129.867 189.761 131.013 189.761 133.305C189.761 134.515 189.338 135.435 188.493 136.065C187.648 136.688 186.413 137 184.787 137H179.287V125.119H181.812V129.867ZM187.226 133.369C187.226 132.775 187 132.359 186.549 132.123C186.098 131.887 185.46 131.769 184.637 131.769H181.812V135.131H184.68C185.51 135.131 186.141 134.98 186.57 134.68C187.007 134.379 187.226 133.942 187.226 133.369Z" fill="black"/>
<path d="M115.466 30.6229C115.981 31.138 116.656 31.3957 117.331 31.3957C118.006 31.3957 118.682 31.138 119.197 30.6231C120.227 29.5927 120.227 27.9223 119.197 26.892L114.957 22.6519V16.0056C114.957 14.5485 113.776 13.3673 112.319 13.3673C110.861 13.3673 109.68 14.5485 109.68 16.0056V23.7445C109.68 24.4442 109.958 25.1152 110.453 25.61L115.466 30.6229Z" fill="#DEA033"/>
<path d="M102.433 45.3258C105.523 46.7458 108.897 47.4891 112.319 47.4891C125.411 47.4891 136.063 36.8373 136.063 23.7445C136.063 10.6518 125.411 1.52588e-05 112.319 1.52588e-05C99.9101 1.52588e-05 89.6957 9.56818 88.6619 21.7136C87.5907 21.5147 86.4869 21.4097 85.3591 21.4097C75.4051 21.4097 67.3068 29.5079 67.3068 39.462C67.3068 45.634 70.4208 51.0915 75.1595 54.3484H69.2886C61.9266 54.3484 55.937 60.36 55.937 67.7491V87.3616C55.937 88.8186 57.1183 89.9998 58.5753 89.9998C60.0323 89.9998 61.2136 88.8186 61.2136 87.3616V67.7493C61.2136 63.2695 64.8361 59.6251 69.2886 59.6251H82.1131L76.1068 74.9776C75.7693 75.8405 75.909 76.8171 76.4751 77.5507L83.2703 86.356C83.7698 87.0033 84.5412 87.3825 85.3589 87.3825C86.1766 87.3825 86.9481 87.0033 87.4476 86.356L94.2427 77.5507C94.8087 76.8172 94.9486 75.8405 94.611 74.9776L88.6049 59.6251H101.429C105.882 59.6251 109.504 63.2697 109.504 67.7493V87.3605C109.504 88.8175 110.686 89.9988 112.143 89.9988C113.6 89.9988 114.781 88.8175 114.781 87.3605V67.7493C114.781 60.36 108.791 54.3486 101.429 54.3486H95.5587C98.7222 52.1743 101.161 49.0196 102.433 45.3258ZM85.3591 80.4257L81.5649 75.5092L85.3591 65.8112L89.1533 75.5092L85.3591 80.4257ZM109.69 5.46442C109.786 6.83369 110.925 7.91538 112.319 7.91538C113.712 7.91538 114.851 6.83369 114.947 5.46442C123.031 6.62157 129.441 13.0321 130.599 21.1156C129.229 21.2121 128.148 22.3506 128.148 23.7444C128.148 25.1381 129.229 26.2766 130.599 26.3731C129.441 34.4567 123.031 40.8673 114.947 42.0243C114.851 40.655 113.712 39.5735 112.319 39.5735C110.926 39.5735 109.788 40.6536 109.69 42.0213C107.489 41.7035 105.358 40.9892 103.406 39.9073C103.41 39.7592 103.412 39.6108 103.412 39.4618C103.412 33.5574 100.562 28.3059 96.166 25.0102C96.372 24.6343 96.4897 24.2031 96.4897 23.7442C96.4897 22.3505 95.408 21.212 94.0389 21.1154C95.1957 13.0322 101.606 6.62157 109.69 5.46442ZM72.5831 39.4622C72.5831 32.4176 78.3144 26.6864 85.3589 26.6864C92.4037 26.6864 98.1349 32.4176 98.1349 39.4622C98.1349 46.5067 92.4037 52.238 85.3591 52.238C78.3144 52.238 72.5831 46.5067 72.5831 39.4622Z" fill="#DEA033"/>
</svg>
