<svg width="181" height="143" viewBox="0 0 181 143" fill="none" xmlns="http://www.w3.org/2000/svg">
<path d="M24.0918 137H21.5137V129.921H14.2734V137H11.7061V121.295H14.2734V127.719H21.5137V121.295H24.0918V137ZM35.3926 137L34.8877 135.346H34.8018C34.2288 136.069 33.6523 136.563 33.0723 136.828C32.4922 137.086 31.7474 137.215 30.8379 137.215C29.6706 137.215 28.7575 136.9 28.0986 136.27C27.4469 135.639 27.1211 134.748 27.1211 133.595C27.1211 132.37 27.5758 131.446 28.4854 130.823C29.3949 130.2 30.7806 129.86 32.6426 129.803L34.6943 129.738V129.104C34.6943 128.345 34.5153 127.78 34.1572 127.407C33.8063 127.028 33.2585 126.838 32.5137 126.838C31.9049 126.838 31.3213 126.927 30.7627 127.106C30.2041 127.285 29.667 127.497 29.1514 127.74L28.335 125.936C28.9795 125.599 29.6849 125.345 30.4512 125.173C31.2174 124.994 31.9408 124.904 32.6211 124.904C34.1322 124.904 35.2708 125.234 36.0371 125.893C36.8105 126.551 37.1973 127.586 37.1973 128.997V137H35.3926ZM31.6328 135.281C32.5495 135.281 33.2835 135.027 33.835 134.519C34.3936 134.003 34.6729 133.283 34.6729 132.359V131.328L33.1475 131.393C31.9587 131.436 31.0921 131.636 30.5479 131.994C30.0107 132.345 29.7422 132.886 29.7422 133.616C29.7422 134.146 29.8997 134.558 30.2148 134.852C30.5299 135.138 31.0026 135.281 31.6328 135.281ZM47.542 134.583L47.6816 134.067C47.9753 133 48.2295 132.18 48.4443 131.607L51.1084 125.119H54.4707V137H52.1396V127.407L51.9463 128.052C51.624 129.205 51.3519 130.053 51.1299 130.598L48.5303 137H46.6182L44.0186 130.555C43.6605 129.624 43.3311 128.575 43.0303 127.407V137H40.7207V125.119H44.0615L46.6396 131.414C46.8688 131.994 47.1696 133.05 47.542 134.583ZM75.1924 141.2H72.8398V137H64.6973V141.2H62.3662V135.045H63.333C64.1781 133.835 64.8477 132.374 65.3418 130.662C65.8431 128.943 66.1403 127.096 66.2334 125.119H73.4521V135.045H75.1924V141.2ZM70.9707 135.045V127.053H68.4141C68.278 128.528 67.9915 129.982 67.5547 131.414C67.125 132.846 66.5986 134.057 65.9756 135.045H70.9707ZM87.9326 131.038C87.9326 132.979 87.4349 134.493 86.4395 135.582C85.444 136.671 84.0583 137.215 82.2822 137.215C81.1722 137.215 80.1911 136.964 79.3389 136.463C78.4867 135.962 77.8314 135.242 77.373 134.304C76.9147 133.366 76.6855 132.277 76.6855 131.038C76.6855 129.112 77.1797 127.608 78.168 126.526C79.1562 125.445 80.5492 124.904 82.3467 124.904C84.0654 124.904 85.4261 125.459 86.4287 126.569C87.4313 127.672 87.9326 129.162 87.9326 131.038ZM79.2852 131.038C79.2852 133.781 80.2985 135.152 82.3252 135.152C84.3304 135.152 85.333 133.781 85.333 131.038C85.333 128.324 84.3232 126.967 82.3037 126.967C81.2438 126.967 80.474 127.318 79.9941 128.02C79.5215 128.721 79.2852 129.728 79.2852 131.038ZM101.156 128.159C101.156 129.563 100.336 130.411 98.6963 130.705V130.791C99.613 130.898 100.315 131.188 100.802 131.661C101.289 132.134 101.532 132.746 101.532 133.498C101.532 134.622 101.103 135.489 100.243 136.098C99.391 136.699 98.1484 137 96.5156 137H90.8438V125.119H96.4941C99.6022 125.119 101.156 126.132 101.156 128.159ZM98.9434 133.348C98.9434 132.775 98.7214 132.37 98.2773 132.134C97.8333 131.89 97.1673 131.769 96.2793 131.769H93.3682V135.131H96.3438C98.0768 135.131 98.9434 134.536 98.9434 133.348ZM98.6318 128.374C98.6318 127.901 98.4456 127.561 98.0732 127.354C97.708 127.139 97.1602 127.031 96.4297 127.031H93.3682V129.889H96.0537C96.8988 129.889 97.5397 129.781 97.9766 129.566C98.4134 129.344 98.6318 128.947 98.6318 128.374ZM109.331 137.215C107.483 137.215 106.037 136.678 104.991 135.604C103.953 134.522 103.434 133.036 103.434 131.146C103.434 129.205 103.917 127.679 104.884 126.569C105.851 125.459 107.179 124.904 108.869 124.904C110.438 124.904 111.676 125.381 112.586 126.333C113.495 127.285 113.95 128.596 113.95 130.265V131.629H106.033C106.069 132.782 106.381 133.67 106.968 134.293C107.555 134.909 108.382 135.217 109.449 135.217C110.151 135.217 110.803 135.152 111.404 135.023C112.013 134.887 112.665 134.665 113.359 134.357V136.409C112.743 136.703 112.12 136.91 111.49 137.032C110.86 137.154 110.14 137.215 109.331 137.215ZM108.869 126.816C108.067 126.816 107.423 127.071 106.936 127.579C106.456 128.088 106.169 128.829 106.076 129.803H111.469C111.454 128.822 111.218 128.08 110.76 127.579C110.301 127.071 109.671 126.816 108.869 126.816ZM122.845 137.215C121.341 137.215 120.174 136.674 119.343 135.593H119.192C119.293 136.595 119.343 137.204 119.343 137.419V142.285H116.818V125.119H118.859C118.917 125.341 119.035 125.871 119.214 126.709H119.343C120.131 125.506 121.312 124.904 122.888 124.904C124.37 124.904 125.523 125.441 126.347 126.516C127.177 127.59 127.593 129.097 127.593 131.038C127.593 132.979 127.17 134.493 126.325 135.582C125.487 136.671 124.327 137.215 122.845 137.215ZM122.232 126.967C121.23 126.967 120.496 127.26 120.03 127.848C119.572 128.435 119.343 129.373 119.343 130.662V131.038C119.343 132.485 119.572 133.534 120.03 134.186C120.489 134.83 121.237 135.152 122.275 135.152C123.149 135.152 123.822 134.794 124.295 134.078C124.768 133.362 125.004 132.341 125.004 131.017C125.004 129.685 124.768 128.678 124.295 127.998C123.829 127.311 123.142 126.967 122.232 126.967ZM131.739 137H128.914L132.223 132.134C131.421 131.905 130.79 131.496 130.332 130.909C129.874 130.315 129.645 129.581 129.645 128.707C129.645 127.583 130.046 126.705 130.848 126.075C131.65 125.438 132.745 125.119 134.135 125.119H139.549V137H137.014V132.424H134.618L131.739 137ZM132.104 128.729C132.104 129.337 132.334 129.796 132.792 130.104C133.257 130.404 133.881 130.555 134.661 130.555H137.014V127.031H134.264C133.576 127.031 133.043 127.178 132.663 127.472C132.291 127.765 132.104 128.184 132.104 128.729ZM159.024 131.038C159.024 132.986 158.548 134.504 157.596 135.593C156.65 136.674 155.329 137.215 153.632 137.215C152.071 137.215 150.828 136.757 149.904 135.84C148.988 134.916 148.454 133.595 148.304 131.876H145.683V137H143.158V125.119H145.683V129.889H148.325C148.504 128.313 149.056 127.089 149.979 126.215C150.91 125.341 152.142 124.904 153.675 124.904C155.322 124.904 156.625 125.459 157.585 126.569C158.545 127.672 159.024 129.162 159.024 131.038ZM150.882 131.038C150.882 132.392 151.097 133.416 151.526 134.11C151.963 134.805 152.672 135.152 153.653 135.152C154.627 135.152 155.333 134.805 155.77 134.11C156.206 133.416 156.425 132.392 156.425 131.038C156.425 129.699 156.206 128.686 155.77 127.998C155.333 127.311 154.627 126.967 153.653 126.967C152.672 126.967 151.963 127.311 151.526 127.998C151.097 128.686 150.882 129.699 150.882 131.038ZM170.884 125.119V127.096H167.017V137H164.481V127.096H160.614V125.119H170.884Z" fill="black"/>
<g clip-path="url(#clip0)">
<path d="M118.004 48.3689L110.778 55.5949C110.683 55.4806 110.583 55.3694 110.476 55.2625L101.144 45.9305C100.628 45.4145 99.7919 45.4145 99.276 45.9305C98.7601 46.4464 98.7601 47.2828 99.276 47.7986L108.608 57.1306C109.41 57.9328 109.41 59.2381 108.608 60.0402C107.806 60.8424 106.5 60.8425 105.698 60.0402L100.513 54.8546C99.9967 54.3387 99.1604 54.3387 98.6445 54.8546C98.1286 55.3705 98.1286 56.207 98.6445 56.7227L103.83 61.9083C103.83 61.9085 103.831 61.9087 103.831 61.909C104.219 62.2976 104.433 62.8139 104.433 63.3632C104.433 63.9128 104.219 64.4294 103.83 64.8181C103.442 65.2067 102.925 65.4207 102.375 65.4207C101.826 65.4207 101.309 65.2067 100.921 64.8181L95.7351 59.6325C95.219 59.1166 94.3827 59.1166 93.8668 59.6325C93.3509 60.1484 93.3509 60.9849 93.8668 61.5006L99.0525 66.6862C99.8548 67.4884 99.8548 68.7937 99.0527 69.5958C98.6639 69.9846 98.1471 70.1986 97.5976 70.1986C97.048 70.1986 96.5314 69.9846 96.1429 69.596L90.9572 64.4104C90.4412 63.8945 89.6049 63.8945 89.089 64.4104C88.5731 64.9263 88.5731 65.7627 89.089 66.2785L94.2746 71.4641C95.0769 72.2662 95.0769 73.5716 94.2746 74.3737C93.886 74.7623 93.3694 74.9763 92.8199 74.9763C92.2703 74.9763 91.7537 74.7623 91.3652 74.3737L88.0057 71.0143C89.0761 69.2305 88.844 66.8775 87.3079 65.3416L87.2282 65.262C86.2049 64.2386 84.8185 63.7942 83.4795 63.9279C83.4043 62.8073 82.9332 61.7639 82.1314 60.9621C81.5112 60.342 80.7577 59.9344 79.9623 59.7392C80.165 59.2131 80.2723 58.6489 80.2723 58.0682C80.2723 56.8279 79.7893 55.6618 78.9123 54.7848C78.0353 53.9079 76.8693 53.4249 75.6289 53.4249C74.9221 53.4249 74.2398 53.5822 73.621 53.8795C73.4128 53.1401 73.0195 52.4424 72.4388 51.8617C70.6286 50.0513 67.6827 50.0515 65.8722 51.8617L65.3274 52.4065L64.9302 52.0093C64.2914 51.3704 63.9396 50.5213 63.9396 49.6179V46.1726C63.9396 45.8223 63.8005 45.4862 63.5528 45.2386L57.9133 39.599L59.4991 38.0131C60.015 37.4972 60.015 36.6607 59.4989 36.145C58.9832 35.6289 58.1467 35.6291 57.6308 36.145L55.5066 38.2694C55.106 38.6699 54.454 38.6701 54.0534 38.2694L47.2555 31.4712C46.7395 30.9553 45.9033 30.9553 45.3872 31.4712C44.8713 31.9871 44.8713 32.8234 45.3872 33.3393L52.1853 40.1375C52.9008 40.8528 53.8403 41.2103 54.7798 41.2103C55.0807 41.2103 55.3806 41.1695 55.6741 41.0962L61.2976 46.7195V49.6177C61.2976 51.2267 61.9243 52.7394 63.062 53.8772L63.4593 54.2746L63.0172 54.7167C62.1402 55.5937 61.6571 56.7597 61.6571 58C61.6571 59.2404 62.1401 60.4064 63.017 61.2832C63.9224 62.1884 65.1115 62.6411 66.3006 62.6411C66.3194 62.6411 66.3383 62.64 66.3571 62.6397C66.3569 62.6592 66.3557 62.6786 66.3557 62.6983C66.3557 63.9387 66.8387 65.1047 67.7157 65.9815C68.5926 66.8585 69.7588 67.3415 70.999 67.3415C71.0186 67.3415 71.0381 67.3402 71.0577 67.34C71.0431 68.5478 71.4945 69.7603 72.4139 70.6798C73.3193 71.5849 74.5084 72.0376 75.6975 72.0376C75.717 72.0376 75.7366 72.0364 75.7559 72.0362C75.7408 73.2447 76.1922 74.4581 77.1124 75.3782L77.192 75.4578C78.069 76.3348 79.235 76.8178 80.4752 76.8178C81.7155 76.8178 82.8815 76.3348 83.7585 75.4578L86.2359 72.9806L89.4972 76.242C90.3848 77.1297 91.5649 77.6185 92.8202 77.6185C94.0756 77.6185 95.2557 77.1297 96.1432 76.242C97.0797 75.3055 97.5363 74.0688 97.5155 72.8387C97.543 72.8392 97.5703 72.8406 97.5979 72.8406C98.8533 72.8406 100.033 72.3518 100.921 71.4641C101.858 70.5271 102.315 69.2894 102.293 68.0587C102.321 68.0592 102.348 68.0606 102.376 68.0606C103.579 68.0604 104.783 67.6023 105.699 66.6864C106.586 65.7988 107.075 64.6187 107.075 63.3634C107.075 63.3358 107.074 63.3085 107.073 63.281C107.1 63.2815 107.127 63.2829 107.154 63.2829C108.357 63.2829 109.56 62.8248 110.477 61.9087C111.473 60.9125 111.926 59.5766 111.839 58.2706L119.872 50.2373C120.388 49.7214 120.388 48.885 119.872 48.3692C119.356 47.853 118.52 47.853 118.004 48.3689ZM64.8851 59.415C64.5072 59.037 64.2991 58.5344 64.2991 58C64.2991 57.4655 64.5073 56.963 64.8853 56.585L67.7403 53.73C68.1306 53.3398 68.643 53.1447 69.1556 53.1447C69.668 53.1447 70.1803 53.3396 70.5705 53.7298C71.3508 54.5102 71.3508 55.7798 70.5705 56.56L67.7153 59.4151C66.935 60.1954 65.6656 60.1952 64.8851 59.415ZM70.9987 64.6996C70.4643 64.6996 69.9616 64.4914 69.5836 64.1134C69.2056 63.7354 68.9976 63.2329 68.9976 62.6985C68.9976 62.1641 69.2058 61.6614 69.5838 61.2834L72.4389 58.4282L74.214 56.6531C74.592 56.2751 75.0944 56.0669 75.6289 56.0669C76.1635 56.0669 76.666 56.2751 77.0439 56.6531C77.4218 57.0311 77.63 57.5338 77.63 58.0682C77.63 58.6026 77.4218 59.1053 77.0439 59.4833L72.4136 64.1136C72.0356 64.4914 71.5332 64.6996 70.9987 64.6996ZM74.2819 68.8117C73.5016 68.0314 73.5016 66.7618 74.2819 65.9815L77.4331 62.8301C77.8233 62.4401 78.3356 62.2451 78.8482 62.2451C79.3606 62.2451 79.8731 62.4403 80.2631 62.8302C80.6411 63.2082 80.8493 63.7109 80.8493 64.2453C80.8493 64.7795 80.6414 65.2817 80.2638 65.6595L77.1118 68.8115C76.3317 69.592 75.0621 69.592 74.2819 68.8117ZM81.8897 73.5896C81.5117 73.9675 81.0094 74.1757 80.4748 74.1757C79.9404 74.1757 79.4377 73.9675 79.0599 73.5896L78.9805 73.5101C78.2 72.7298 78.2 71.4602 78.9805 70.68L82.1316 67.5289C82.1326 67.5278 82.1335 67.5268 82.1344 67.5259L82.5298 67.1303C82.9201 66.7401 83.4325 66.5451 83.9451 66.5451C84.4574 66.5451 84.97 66.7403 85.36 67.1303L85.4394 67.2097C86.2199 67.99 86.2199 69.2596 85.4394 70.0399L81.8897 73.5896Z" fill="#DEA033"/>
<path d="M134.613 37.0373C134.097 36.5214 133.261 36.5212 132.745 37.0373L127.794 41.9878C127.726 42.056 127.614 42.057 127.545 41.9906L110.043 25.273C110.007 25.2385 109.988 25.1956 109.988 25.1456C109.987 25.0956 110.005 25.0523 110.04 25.017L120.421 14.637C120.937 14.1211 120.937 13.2846 120.421 12.7689C119.905 12.253 119.068 12.253 118.552 12.7689L108.172 23.1489C107.631 23.6906 107.337 24.4104 107.346 25.1761C107.353 25.7933 107.559 26.3744 107.927 26.8543L103.177 31.513L98.7013 29.0168C98.1163 28.6904 97.4532 28.5179 96.7833 28.5179H84.0663L83.0984 27.5502C82.199 26.6509 81.1405 25.9654 79.9521 25.5125L76.4316 24.1712L74.8048 22.5444C75.646 21.1355 75.465 19.2815 74.253 18.0697L68.9522 12.7689C68.4362 12.253 67.6 12.253 67.0839 12.7689C66.568 13.2848 66.568 14.1212 67.0839 14.637L72.3847 19.9378C72.7852 20.3383 72.7852 20.9902 72.3847 21.3909L61.6117 32.164C61.0958 32.6799 61.0958 33.5163 61.6117 34.0321C61.8697 34.2899 62.2079 34.419 62.5459 34.419C62.8839 34.419 63.2221 34.2901 63.4801 34.0321L73.0181 24.4941L74.7631 26.2391C74.8948 26.3708 75.053 26.4732 75.227 26.5396L79.0115 27.9814C79.8281 28.2927 80.5569 28.7608 81.1804 29.3713C81.1003 29.4388 81.0216 29.5085 80.9465 29.5836L75.9224 34.608C74.9253 35.605 74.3763 36.9308 74.3763 38.3407C74.3763 39.7507 74.9253 41.0763 75.9222 42.0734C76.9525 43.1036 78.3001 43.6262 79.6537 43.6262C80.8366 43.6262 82.024 43.2269 83.0073 42.4185L86.8094 39.2927H90.7698L95.2951 43.8181C95.5532 44.0759 95.8914 44.205 96.2294 44.205C96.5674 44.205 96.9056 44.0761 97.1636 43.8181C97.6795 43.3021 97.6795 42.4657 97.1636 41.9499L93.8943 38.6807C94.0252 38.4757 94.102 38.2329 94.102 37.9717C94.102 37.2422 93.5107 36.6507 92.781 36.6507H86.336C86.03 36.6507 85.7334 36.7569 85.497 36.9514L81.3294 40.3776C80.2756 41.2436 78.7547 41.1695 77.7905 40.2053C77.2924 39.7072 77.0182 39.0451 77.0182 38.3409C77.0182 37.6367 77.2924 36.9744 77.7905 36.4765L82.8148 31.452C83.0027 31.2639 83.2529 31.1603 83.5188 31.1603H96.7831C97.0035 31.1603 97.2215 31.2171 97.4141 31.3245L102.364 34.0853C103.099 34.4955 104.033 34.3713 104.638 33.7809L109.812 28.7062L124.058 42.3144L121.984 44.3882C121.468 44.9041 121.468 45.7406 121.984 46.2563C122.242 46.5144 122.58 46.6433 122.918 46.6433C123.256 46.6433 123.595 46.5144 123.853 46.2563L125.986 44.1228C126.482 44.4904 127.074 44.6758 127.667 44.6758C128.392 44.6758 129.117 44.4019 129.663 43.8561L134.613 38.9058C135.129 38.3895 135.129 37.5532 134.613 37.0373Z" fill="#DEA033"/>
</g>
<defs>
<clipPath id="clip0">
<rect width="90" height="90" fill="white" transform="translate(45)"/>
</clipPath>
</defs>
</svg>
