<svg width="204" height="142" viewBox="0 0 204 142" fill="none" xmlns="http://www.w3.org/2000/svg">
<path d="M11.8164 137L10.248 132.639H4.24316L2.70703 137H0L5.87598 121.23H8.66895L14.5449 137H11.8164ZM9.57129 130.426L8.09961 126.15C7.99219 125.864 7.8418 125.413 7.64844 124.797C7.46224 124.181 7.33333 123.73 7.26172 123.443C7.06836 124.324 6.78548 125.287 6.41309 126.333L4.99512 130.426H9.57129ZM27.7471 141.2H25.3945V137H17.252V141.2H14.9209V135.045H15.8877C16.7327 133.835 17.4023 132.374 17.8965 130.662C18.3978 128.943 18.695 127.096 18.7881 125.119H26.0068V135.045H27.7471V141.2ZM23.5254 135.045V127.053H20.9688C20.8327 128.528 20.5462 129.982 20.1094 131.414C19.6797 132.846 19.1533 134.057 18.5303 135.045H23.5254ZM35.1377 137.215C33.29 137.215 31.8434 136.678 30.7979 135.604C29.7594 134.522 29.2402 133.036 29.2402 131.146C29.2402 129.205 29.7236 127.679 30.6904 126.569C31.6572 125.459 32.9857 124.904 34.6758 124.904C36.2441 124.904 37.4831 125.381 38.3926 126.333C39.3021 127.285 39.7568 128.596 39.7568 130.265V131.629H31.8398C31.8757 132.782 32.1872 133.67 32.7744 134.293C33.3617 134.909 34.1888 135.217 35.2559 135.217C35.9577 135.217 36.6094 135.152 37.2109 135.023C37.8197 134.887 38.4714 134.665 39.166 134.357V136.409C38.5501 136.703 37.9271 136.91 37.2969 137.032C36.6667 137.154 35.9469 137.215 35.1377 137.215ZM34.6758 126.816C33.8737 126.816 33.2292 127.071 32.7422 127.579C32.2624 128.088 31.9759 128.829 31.8828 129.803H37.2754C37.2611 128.822 37.0247 128.08 36.5664 127.579C36.1081 127.071 35.4779 126.816 34.6758 126.816ZM49.9941 125.119H52.7656L47.8564 130.845L53.1846 137H50.2842L45.1494 130.974V137H42.625V125.119H45.1494V130.888L49.9941 125.119ZM65.4629 128.159C65.4629 129.563 64.6429 130.411 63.0029 130.705V130.791C63.9196 130.898 64.6214 131.188 65.1084 131.661C65.5954 132.134 65.8389 132.746 65.8389 133.498C65.8389 134.622 65.4092 135.489 64.5498 136.098C63.6976 136.699 62.4551 137 60.8223 137H55.1504V125.119H60.8008C63.9089 125.119 65.4629 126.132 65.4629 128.159ZM63.25 133.348C63.25 132.775 63.028 132.37 62.584 132.134C62.14 131.89 61.474 131.769 60.5859 131.769H57.6748V135.131H60.6504C62.3835 135.131 63.25 134.536 63.25 133.348ZM62.9385 128.374C62.9385 127.901 62.7523 127.561 62.3799 127.354C62.0146 127.139 61.4668 127.031 60.7363 127.031H57.6748V129.889H60.3604C61.2054 129.889 61.8464 129.781 62.2832 129.566C62.7201 129.344 62.9385 128.947 62.9385 128.374ZM75.8828 137L75.3779 135.346H75.292C74.7191 136.069 74.1426 136.563 73.5625 136.828C72.9824 137.086 72.2376 137.215 71.3281 137.215C70.1608 137.215 69.2477 136.9 68.5889 136.27C67.9372 135.639 67.6113 134.748 67.6113 133.595C67.6113 132.37 68.0661 131.446 68.9756 130.823C69.8851 130.2 71.2708 129.86 73.1328 129.803L75.1846 129.738V129.104C75.1846 128.345 75.0055 127.78 74.6475 127.407C74.2965 127.028 73.7487 126.838 73.0039 126.838C72.3952 126.838 71.8115 126.927 71.2529 127.106C70.6943 127.285 70.1572 127.497 69.6416 127.74L68.8252 125.936C69.4697 125.599 70.1751 125.345 70.9414 125.173C71.7077 124.994 72.431 124.904 73.1113 124.904C74.6224 124.904 75.7611 125.234 76.5273 125.893C77.3008 126.551 77.6875 127.586 77.6875 128.997V137H75.8828ZM72.123 135.281C73.0397 135.281 73.7738 135.027 74.3252 134.519C74.8838 134.003 75.1631 133.283 75.1631 132.359V131.328L73.6377 131.393C72.4489 131.436 71.5824 131.636 71.0381 131.994C70.501 132.345 70.2324 132.886 70.2324 133.616C70.2324 134.146 70.39 134.558 70.7051 134.852C71.0202 135.138 71.4928 135.281 72.123 135.281ZM90.1377 125.119V127.096H86.2705V137H83.7354V127.096H79.8682V125.119H90.1377ZM94.9502 125.119V129.889H100.547V125.119H103.071V137H100.547V131.876H94.9502V137H92.4258V125.119H94.9502ZM109.216 129.867H111.622C113.284 129.867 114.512 130.154 115.307 130.727C116.102 131.299 116.499 132.159 116.499 133.305C116.499 134.529 116.084 135.453 115.253 136.076C114.429 136.692 113.219 137 111.622 137H106.691V125.119H109.216V129.867ZM113.996 133.369C113.996 132.775 113.774 132.359 113.33 132.123C112.893 131.887 112.263 131.769 111.439 131.769H109.216V135.131H111.117C112.134 135.131 112.868 134.988 113.319 134.701C113.771 134.415 113.996 133.971 113.996 133.369ZM120.903 137H118.368V125.119H120.903V137ZM129.712 137.215C127.864 137.215 126.418 136.678 125.372 135.604C124.334 134.522 123.814 133.036 123.814 131.146C123.814 129.205 124.298 127.679 125.265 126.569C126.231 125.459 127.56 124.904 129.25 124.904C130.818 124.904 132.057 125.381 132.967 126.333C133.876 127.285 134.331 128.596 134.331 130.265V131.629H126.414C126.45 132.782 126.761 133.67 127.349 134.293C127.936 134.909 128.763 135.217 129.83 135.217C130.532 135.217 131.184 135.152 131.785 135.023C132.394 134.887 133.046 134.665 133.74 134.357V136.409C133.124 136.703 132.501 136.91 131.871 137.032C131.241 137.154 130.521 137.215 129.712 137.215ZM129.25 126.816C128.448 126.816 127.803 127.071 127.316 127.579C126.837 128.088 126.55 128.829 126.457 129.803H131.85C131.835 128.822 131.599 128.08 131.141 127.579C130.682 127.071 130.052 126.816 129.25 126.816ZM153.495 135.045H155.214V141.179H152.84V137H142.914V125.119H145.438V135.002H150.971V125.119H153.495V135.045ZM162.562 137.215C160.714 137.215 159.267 136.678 158.222 135.604C157.183 134.522 156.664 133.036 156.664 131.146C156.664 129.205 157.147 127.679 158.114 126.569C159.081 125.459 160.41 124.904 162.1 124.904C163.668 124.904 164.907 125.381 165.816 126.333C166.726 127.285 167.181 128.596 167.181 130.265V131.629H159.264C159.299 132.782 159.611 133.67 160.198 134.293C160.785 134.909 161.613 135.217 162.68 135.217C163.382 135.217 164.033 135.152 164.635 135.023C165.243 134.887 165.895 134.665 166.59 134.357V136.409C165.974 136.703 165.351 136.91 164.721 137.032C164.09 137.154 163.371 137.215 162.562 137.215ZM162.1 126.816C161.298 126.816 160.653 127.071 160.166 127.579C159.686 128.088 159.4 128.829 159.307 129.803H164.699C164.685 128.822 164.449 128.08 163.99 127.579C163.532 127.071 162.902 126.816 162.1 126.816ZM172.573 125.119V129.889H178.17V125.119H180.694V137H178.17V131.876H172.573V137H170.049V125.119H172.573ZM186.839 129.867H189.245C190.907 129.867 192.135 130.154 192.93 130.727C193.725 131.299 194.122 132.159 194.122 133.305C194.122 134.529 193.707 135.453 192.876 136.076C192.052 136.692 190.842 137 189.245 137H184.314V125.119H186.839V129.867ZM191.619 133.369C191.619 132.775 191.397 132.359 190.953 132.123C190.516 131.887 189.886 131.769 189.062 131.769H186.839V135.131H188.74C189.757 135.131 190.491 134.988 190.942 134.701C191.394 134.415 191.619 133.971 191.619 133.369ZM198.526 137H195.991V125.119H198.526V137Z" fill="black"/>
<path d="M124.268 47.5687C123.545 47.5687 122.958 48.1551 122.958 48.8784C122.958 49.7955 122.212 50.5415 121.295 50.5415C120.378 50.5415 119.632 49.7955 119.632 48.8784C119.632 48.1549 119.046 47.5687 118.322 47.5687C117.599 47.5687 117.013 48.1551 117.013 48.8784C117.013 51.2399 118.934 53.161 121.295 53.161C123.657 53.161 125.578 51.2397 125.578 48.8784C125.578 48.1547 124.991 47.5687 124.268 47.5687Z" fill="#DEA033"/>
<path d="M136.562 47.7826L132.876 46.6017C132.404 46.4504 132.032 46.0735 131.881 45.5935C131.104 43.1232 129.931 40.8041 128.396 38.7004C127.696 37.7415 126.918 36.8258 126.068 35.9541C126.612 33.5683 126.907 30.8681 126.869 28.5353C126.814 25.1981 126.147 23.2408 124.83 22.551C124.121 22.179 121.962 21.0491 110.279 26.3974C110.002 26.524 109.744 26.6799 109.504 26.8585C108.717 26.6469 107.912 26.4511 107.102 26.2753C107.004 26.254 106.904 26.2352 106.805 26.2144C107.752 24.1462 108.305 21.8999 108.409 19.581C108.441 18.8582 107.882 18.2461 107.159 18.2139C106.438 18.1781 105.824 18.7409 105.792 19.4637C105.621 23.2766 104.039 26.8641 101.338 29.5654C99.7245 31.1792 97.8348 32.3515 95.8209 33.0898C92.3283 32.5997 88.7708 32.5997 85.2782 33.0898C83.2641 32.3515 81.3747 31.1792 79.7608 29.5654C76.8791 26.6836 75.2919 22.8521 75.2919 18.7766C75.2919 14.701 76.8791 10.8696 79.7608 7.98787C82.6426 5.10594 86.4743 3.51881 90.5496 3.51881C94.6249 3.51881 98.4566 5.10594 101.338 7.98787C102.496 9.14592 103.453 10.4674 104.183 11.9153C104.508 12.5615 105.296 12.8217 105.942 12.4961C106.588 12.1709 106.848 11.3833 106.522 10.7373C105.668 9.03939 104.547 7.49129 103.191 6.13531C99.8143 2.75873 95.3248 0.899139 90.5497 0.899139C85.7746 0.899139 81.2852 2.75873 77.9086 6.13531C74.532 9.51207 72.6724 14.0013 72.6724 18.7764C72.6724 23.5515 74.532 28.041 77.9086 31.4176C78.8826 32.3916 79.9422 33.2292 81.063 33.9309C81.0634 33.9309 81.0637 33.9307 81.0641 33.9307C80.2497 34.1424 79.4414 34.38 78.6421 34.6472C77.9561 34.8766 77.5859 35.6186 77.8153 36.3048C78.0445 36.9909 78.7868 37.3611 79.4727 37.1319C86.6158 34.7439 94.4837 34.7439 101.627 37.1319C101.765 37.1779 101.905 37.1997 102.042 37.1997C102.59 37.1997 103.101 36.8531 103.284 36.3048C103.514 35.6187 103.143 34.8766 102.457 34.6472C101.658 34.38 100.85 34.1422 100.035 33.9307C100.036 33.9307 100.036 33.9309 100.036 33.9309C101.157 33.2292 102.217 32.3916 103.191 31.4176C104.053 30.5559 104.813 29.6149 105.474 28.6149C105.835 28.6851 106.193 28.7585 106.546 28.8352C107.017 28.9373 107.485 29.047 107.949 29.1621C107.934 29.2191 107.919 29.2759 107.907 29.3337C107.268 32.365 107.31 35.046 108.03 37.3018C108.678 39.3295 109.847 40.9722 111.504 42.1845C113.457 43.6133 115.815 44.2304 117.951 44.2304C119.558 44.2304 121.04 43.8806 122.129 43.2642C123.36 42.5668 124.392 41.0975 125.208 38.8914C125.585 39.3319 125.943 39.7832 126.28 40.2451C127.647 42.1179 128.691 44.1819 129.382 46.3795C129.788 47.6703 130.796 48.686 132.077 49.0968L135.764 50.2777C136.731 50.5876 137.381 51.4779 137.381 52.4936V58.6064C137.381 59.622 136.731 60.5124 135.764 60.8223L129.824 62.7247C128.874 63.0294 128.07 63.6824 127.56 64.5638C125.226 68.5965 121.558 71.9337 116.655 74.4827C116.088 74.7775 115.696 75.3047 115.578 75.9294L113.676 86.0022C113.623 86.2798 113.38 86.481 113.098 86.481H106.912C106.63 86.481 106.387 86.2796 106.334 86.0022L105.281 80.4354C105.073 79.3401 104.046 78.6125 102.94 78.7801C100.276 79.183 97.5305 79.387 94.7808 79.387C92.7351 79.387 90.7155 79.273 88.7779 79.0478C87.7065 78.9246 86.7084 79.6549 86.5082 80.7128L85.5069 86.0022C85.4544 86.2798 85.2113 86.481 84.9288 86.481H78.7436C78.4611 86.481 78.218 86.2796 78.1647 85.998L76.3331 76.4844C76.2151 75.8714 75.8302 75.3502 75.2763 75.0544C66.9189 70.5929 62.5016 63.1391 62.5016 53.4992C62.5016 48.6287 63.5671 44.3218 65.6686 40.6979C67.6296 37.3161 70.4938 34.5199 74.1815 32.3868C74.8077 32.0245 75.0216 31.2233 74.6595 30.597C74.2974 29.9709 73.4962 29.7573 72.8698 30.1191C65.7192 34.2556 61.4064 40.6371 60.219 48.7424V48.7422C60.093 48.7308 59.9668 48.7199 59.8411 48.7069C59.864 47.8324 59.7058 46.95 59.3612 46.0936C58.6013 44.2046 57.0404 42.8412 55.3844 42.6203C54.0794 42.4456 52.8375 42.9996 51.9756 44.1383C50.726 45.7896 50.9297 47.0964 51.3205 47.9018C51.9802 49.2611 53.6759 50.2227 56.49 50.8272C56.4127 50.943 56.3276 51.0594 56.2344 51.1763C54.5717 53.2616 52.6128 53.7226 51.3409 53.766C50.5962 53.7912 50 54.389 50 55.1342V55.1405C50 55.8754 50.5799 56.4748 51.3141 56.5084C51.4082 56.5128 51.5064 56.5151 51.6088 56.5151C53.2182 56.5151 55.8013 55.9215 58.283 52.8096C58.6748 52.3185 58.994 51.8003 59.2394 51.2649C59.4866 51.2928 59.724 51.3167 59.9515 51.3378C59.9515 51.3373 59.9515 51.3369 59.9517 51.3364C59.907 52.0462 59.8822 52.7664 59.8822 53.4992C59.8822 58.9534 61.1825 63.8163 63.7466 67.9537C66.1109 71.7682 69.4959 74.8914 73.811 77.2402L75.5916 86.4891C75.878 88.0023 77.2036 89.1005 78.7436 89.1005H84.9288C86.4688 89.1005 87.7944 88.0023 88.0807 86.4891L88.986 81.7065C90.8662 81.9056 92.8128 82.0065 94.7806 82.0065C97.4806 82.0065 100.177 81.8185 102.806 81.4472L103.76 86.4895C104.047 88.0026 105.372 89.1007 106.912 89.1007H113.097C114.637 89.1007 115.963 88.0024 116.249 86.4888L118.102 76.6818C123.334 73.9148 127.278 70.28 129.827 65.8756C130.011 65.5582 130.293 65.3252 130.623 65.2196L136.562 63.3171C138.619 62.6581 140 60.7651 140 58.606V52.4932C140 50.3343 138.619 48.4413 136.562 47.7826ZM124.053 32.216C123.549 36.5272 122.196 40.2151 120.838 40.9846C119.293 41.8595 115.727 42.0284 113.05 40.0701C110.37 38.1094 109.478 34.5836 110.47 29.8737C110.47 29.8735 110.47 29.8735 110.47 29.8735C110.57 29.4005 110.906 28.9913 111.369 28.7793C117.926 25.7776 121.707 24.7959 123.111 24.7959C123.323 24.7959 123.481 24.8182 123.586 24.8594C124.008 25.309 124.562 27.865 124.053 32.216ZM53.6775 46.758C53.542 46.4785 53.8619 45.9872 54.0648 45.719C54.3863 45.2943 54.6825 45.2074 54.9062 45.2074C54.9535 45.2074 54.9976 45.2113 55.0381 45.2168C55.6403 45.2971 56.484 45.9598 56.9311 47.0709C57.0363 47.3325 57.1731 47.7658 57.2051 48.3061C55.3919 47.9305 53.9832 47.3889 53.6775 46.758Z" fill="#DEA033"/>
<path d="M91.8215 17.2753V12.5883C93.4379 12.7037 94.0383 13.4426 94.5924 13.4426C95.2851 13.4426 95.6084 12.5652 95.6084 12.1265C95.6084 10.995 93.3916 10.5102 91.8215 10.4639V9.84027C91.8215 9.56324 91.4751 9.30923 91.1288 9.30923C90.7361 9.30923 90.4591 9.56324 90.4591 9.84027V10.5098C88.2655 10.7408 86.0719 11.8953 86.0719 14.8047C86.0719 17.7603 88.381 18.5915 90.4591 19.3303V24.7565C88.1038 24.5718 87.4805 22.9555 86.7184 22.9555C86.1412 22.9555 85.6564 23.7175 85.6564 24.2717C85.6564 25.4031 87.5959 26.9501 90.4591 26.9963V27.7121C90.4591 27.9892 90.7363 28.2432 91.1288 28.2432C91.4753 28.2432 91.8215 27.9892 91.8215 27.7121V26.9271C94.3154 26.5806 96.024 25.0105 96.024 22.1704C96.024 19.0303 93.8304 18.0141 91.8215 17.2753ZM90.5976 16.8367C89.3738 16.3749 88.381 15.8901 88.381 14.5741C88.381 13.3733 89.3045 12.796 90.5976 12.6345V16.8367ZM91.6829 24.7103V19.8384C92.8142 20.3232 93.7147 20.9697 93.7147 22.4243C93.7147 23.7407 92.9297 24.4795 91.6829 24.7103Z" fill="#DEA033"/>
</svg>
