<svg width="200" height="143" viewBox="0 0 200 143" fill="none" xmlns="http://www.w3.org/2000/svg">
<path d="M9.90527 137L5.35059 123.884H5.26465C5.38639 125.832 5.44727 127.658 5.44727 129.362V137H3.11621V121.295H6.73633L11.0977 133.788H11.1621L15.6523 121.295H19.2832V137H16.8125V129.233C16.8125 128.453 16.8304 127.436 16.8662 126.183C16.9092 124.929 16.945 124.17 16.9736 123.905H16.8877L12.1719 137H9.90527ZM25.6748 129.867H28.0811C29.7425 129.867 30.9707 130.154 31.7656 130.727C32.5605 131.299 32.958 132.159 32.958 133.305C32.958 134.529 32.5426 135.453 31.7119 136.076C30.8883 136.692 29.6781 137 28.0811 137H23.1504V125.119H25.6748V129.867ZM30.4551 133.369C30.4551 132.775 30.2331 132.359 29.7891 132.123C29.3522 131.887 28.722 131.769 27.8984 131.769H25.6748V135.131H27.5762C28.5931 135.131 29.3271 134.988 29.7783 134.701C30.2295 134.415 30.4551 133.971 30.4551 133.369ZM37.3623 137H34.8271V125.119H37.3623V137ZM48.9639 137.215C47.639 137.215 46.5182 136.989 45.6016 136.538V134.465C46.7402 134.966 47.8467 135.217 48.9209 135.217C50.9691 135.217 52.0612 134.096 52.1973 131.854H46.9658V130.007H52.1973C52.1113 128.94 51.8213 128.156 51.3271 127.654C50.833 127.153 50.1169 126.902 49.1787 126.902C48.4769 126.902 47.5531 127.106 46.4072 127.515L45.709 125.646C46.1888 125.424 46.7402 125.244 47.3633 125.108C47.9935 124.972 48.613 124.904 49.2217 124.904C51.0908 124.904 52.4909 125.42 53.4219 126.451C54.3529 127.482 54.8184 128.997 54.8184 130.995C54.8184 132.993 54.3171 134.529 53.3145 135.604C52.319 136.678 50.8688 137.215 48.9639 137.215ZM71.6406 131.06C71.6406 132.843 71.0999 134.264 70.0186 135.324C68.9443 136.384 67.4548 136.986 65.5498 137.129V142.285H63.1543V137.129C61.2708 136.986 59.7777 136.377 58.6748 135.303C57.5791 134.221 57.0312 132.807 57.0312 131.06C57.0312 129.248 57.5648 127.819 58.6318 126.773C59.6989 125.721 61.2135 125.126 63.1758 124.99V120.285H65.5498V124.99C67.4548 125.162 68.9443 125.782 70.0186 126.849C71.0999 127.916 71.6406 129.319 71.6406 131.06ZM59.6523 131.06C59.6523 132.234 59.946 133.179 60.5332 133.896C61.1204 134.612 62.0013 135.031 63.1758 135.152V126.967C61.9941 127.103 61.1097 127.525 60.5225 128.234C59.9424 128.943 59.6523 129.885 59.6523 131.06ZM69.0303 131.06C69.0303 129.899 68.7367 128.968 68.1494 128.267C67.5693 127.565 66.7028 127.146 65.5498 127.01V135.152C66.7171 135.016 67.5872 134.594 68.1602 133.885C68.7402 133.169 69.0303 132.227 69.0303 131.06ZM88.4629 131.06C88.4629 132.843 87.9222 134.264 86.8408 135.324C85.7666 136.384 84.277 136.986 82.3721 137.129V142.285H79.9766V137.129C78.0931 136.986 76.5999 136.377 75.4971 135.303C74.4014 134.221 73.8535 132.807 73.8535 131.06C73.8535 129.248 74.387 127.819 75.4541 126.773C76.5212 125.721 78.0358 125.126 79.998 124.99V120.285H82.3721V124.99C84.277 125.162 85.7666 125.782 86.8408 126.849C87.9222 127.916 88.4629 129.319 88.4629 131.06ZM76.4746 131.06C76.4746 132.234 76.7682 133.179 77.3555 133.896C77.9427 134.612 78.8236 135.031 79.998 135.152V126.967C78.8164 127.103 77.932 127.525 77.3447 128.234C76.7646 128.943 76.4746 129.885 76.4746 131.06ZM85.8525 131.06C85.8525 129.899 85.5589 128.968 84.9717 128.267C84.3916 127.565 83.5251 127.146 82.3721 127.01V135.152C83.5394 135.016 84.4095 134.594 84.9824 133.885C85.5625 133.169 85.8525 132.227 85.8525 131.06ZM96.5732 137.215C94.7256 137.215 93.279 136.678 92.2334 135.604C91.195 134.522 90.6758 133.036 90.6758 131.146C90.6758 129.205 91.1592 127.679 92.126 126.569C93.0928 125.459 94.4212 124.904 96.1113 124.904C97.6797 124.904 98.9186 125.381 99.8281 126.333C100.738 127.285 101.192 128.596 101.192 130.265V131.629H93.2754C93.3112 132.782 93.6227 133.67 94.21 134.293C94.7972 134.909 95.6243 135.217 96.6914 135.217C97.3932 135.217 98.0449 135.152 98.6465 135.023C99.2552 134.887 99.9069 134.665 100.602 134.357V136.409C99.9857 136.703 99.3626 136.91 98.7324 137.032C98.1022 137.154 97.3825 137.215 96.5732 137.215ZM96.1113 126.816C95.3092 126.816 94.6647 127.071 94.1777 127.579C93.6979 128.088 93.4115 128.829 93.3184 129.803H98.7109C98.6966 128.822 98.4603 128.08 98.002 127.579C97.5436 127.071 96.9134 126.816 96.1113 126.816ZM111.43 125.119H114.201L109.292 130.845L114.62 137H111.72L106.585 130.974V137H104.061V125.119H106.585V130.888L111.43 125.119ZM125.513 125.119V127.096H121.646V137H119.11V127.096H115.243V125.119H125.513ZM130.218 125.119V131.21C130.218 131.919 130.16 132.961 130.046 134.336L136.008 125.119H139.091V137H136.663V131.017C136.663 130.687 136.681 130.154 136.717 129.416C136.76 128.678 136.796 128.141 136.824 127.805L130.884 137H127.801V125.119H130.218ZM153.002 128.159C153.002 129.563 152.182 130.411 150.542 130.705V130.791C151.459 130.898 152.16 131.188 152.647 131.661C153.134 132.134 153.378 132.746 153.378 133.498C153.378 134.622 152.948 135.489 152.089 136.098C151.237 136.699 149.994 137 148.361 137H142.689V125.119H148.34C151.448 125.119 153.002 126.132 153.002 128.159ZM150.789 133.348C150.789 132.775 150.567 132.37 150.123 132.134C149.679 131.89 149.013 131.769 148.125 131.769H145.214V135.131H148.189C149.923 135.131 150.789 134.536 150.789 133.348ZM150.478 128.374C150.478 127.901 150.291 127.561 149.919 127.354C149.554 127.139 149.006 127.031 148.275 127.031H145.214V129.889H147.899C148.744 129.889 149.385 129.781 149.822 129.566C150.259 129.344 150.478 128.947 150.478 128.374ZM158.513 125.119V129.889H164.109V125.119H166.634V137H164.109V131.876H158.513V137H155.988V125.119H158.513ZM172.778 129.867H175.185C176.846 129.867 178.074 130.154 178.869 130.727C179.664 131.299 180.062 132.159 180.062 133.305C180.062 134.529 179.646 135.453 178.815 136.076C177.992 136.692 176.782 137 175.185 137H170.254V125.119H172.778V129.867ZM177.559 133.369C177.559 132.775 177.337 132.359 176.893 132.123C176.456 131.887 175.826 131.769 175.002 131.769H172.778V135.131H174.68C175.697 135.131 176.431 134.988 176.882 134.701C177.333 134.415 177.559 133.971 177.559 133.369ZM184.466 137H181.931V125.119H184.466V137ZM193.274 137.215C191.427 137.215 189.98 136.678 188.935 135.604C187.896 134.522 187.377 133.036 187.377 131.146C187.377 129.205 187.86 127.679 188.827 126.569C189.794 125.459 191.122 124.904 192.812 124.904C194.381 124.904 195.62 125.381 196.529 126.333C197.439 127.285 197.894 128.596 197.894 130.265V131.629H189.977C190.012 132.782 190.324 133.67 190.911 134.293C191.498 134.909 192.326 135.217 193.393 135.217C194.094 135.217 194.746 135.152 195.348 135.023C195.956 134.887 196.608 134.665 197.303 134.357V136.409C196.687 136.703 196.064 136.91 195.434 137.032C194.803 137.154 194.084 137.215 193.274 137.215ZM192.812 126.816C192.01 126.816 191.366 127.071 190.879 127.579C190.399 128.088 190.113 128.829 190.02 129.803H195.412C195.398 128.822 195.161 128.08 194.703 127.579C194.245 127.071 193.615 126.816 192.812 126.816Z" fill="black"/>
<path d="M55.2677 32.5354C64.2376 32.5354 71.5354 25.2376 71.5354 16.2677C71.5354 7.29773 64.2376 0 55.2677 0C46.2977 0 39 7.29773 39 16.2677C39 25.2376 46.2977 32.5354 55.2677 32.5354ZM55.2677 3.51562C62.2991 3.51562 68.0197 9.23625 68.0197 16.2677C68.0197 23.2991 62.2991 29.0197 55.2677 29.0197C48.2362 29.0197 42.5156 23.2991 42.5156 16.2677C42.5156 9.23625 48.2362 3.51562 55.2677 3.51562Z" fill="#DEA033"/>
<path d="M56.6661 20.1315C57.0092 20.4734 57.4582 20.6443 57.9071 20.6443C58.3578 20.6443 58.8089 20.472 59.1522 20.1275C59.8374 19.4398 59.8356 18.3268 59.1481 17.6414L57.0374 15.5377V7.73438C57.0374 6.76371 56.2502 5.97656 55.2795 5.97656C54.3089 5.97656 53.5217 6.76371 53.5217 7.73438V16.2677C53.5217 16.7349 53.7079 17.183 54.0385 17.5127L56.6661 20.1315Z" fill="#DEA033"/>
<path d="M127.242 58.3594H116.423C114.936 56.244 112.702 54.7457 110.153 54.1884L102.425 52.4986C105.588 50.3657 107.672 46.7502 107.672 42.657V38.365V36.3792V35.9323C107.672 29.3911 102.35 24.0695 95.8088 24.0695C89.2676 24.0695 83.946 29.3911 83.946 35.9323V36.3792V38.365V42.657C83.946 46.745 86.0247 50.3568 89.1805 52.4907L81.4573 54.1851C81.1274 54.2575 80.8031 54.3463 80.4844 54.4491V39.9023C80.4844 38.9317 79.6972 38.1445 78.7266 38.1445H66.7734C65.8028 38.1445 65.0156 38.9317 65.0156 39.9023C65.0156 40.873 65.8028 41.6602 66.7734 41.6602H76.9688V66.2695H65.0156V57.4805C65.0156 54.5727 62.65 52.207 59.7422 52.207C56.8344 52.207 54.4688 54.5727 54.4688 57.4805V66.2695H42.5156V41.6602H52.7109C53.6816 41.6602 54.4688 40.873 54.4688 39.9023C54.4688 38.9317 53.6816 38.1445 52.7109 38.1445H40.7578C39.7871 38.1445 39 38.9317 39 39.9023V68.0273C39 68.998 39.7871 69.7851 40.7578 69.7851H54.4688V73.125H54.293C51.2882 73.125 48.8438 75.5694 48.8438 78.5742V79.4531H40.7578C39.7871 79.4531 39 80.2403 39 81.2109V88.2422C39 89.2128 39.7871 90 40.7578 90H127.242C128.213 90 129 89.2128 129 88.2422V81.2109V74.1797V67.1484V60.1172C129 59.1465 128.213 58.3594 127.242 58.3594ZM116.551 79.4531H106.5V75.9375H125.484V79.4531H116.551ZM125.484 72.4219H106.5V68.9062H125.484V72.4219ZM125.484 65.3906H106.5V61.875H115.443C115.448 61.875 115.453 61.876 115.458 61.876C115.464 61.876 115.469 61.875 115.475 61.875H125.484V65.3906ZM87.4615 35.9325C87.4615 31.3298 91.2062 27.5853 95.8086 27.5853C100.191 27.5853 103.796 30.9804 104.13 35.2788L100.044 32.8781C99.304 32.4431 98.358 32.6067 97.8066 33.2647C96.0266 35.389 93.4161 36.6075 90.6445 36.6075H87.4617V36.3795V35.9325H87.4615ZM87.4615 40.1229H90.6445C93.9536 40.1229 97.0957 38.861 99.4696 36.6179L104.156 39.3711V42.6572C104.156 47.2598 100.411 51.0043 95.8088 51.0043C91.2063 51.0043 87.4617 47.2597 87.4617 42.6572V40.1229H87.4615ZM98.5624 54.1939L95.7824 61.6284L92.9974 54.1805C93.8991 54.4006 94.8401 54.52 95.8086 54.52C96.7568 54.52 97.6781 54.405 98.5624 54.1939ZM78.7266 69.7851C79.6972 69.7851 80.4844 68.998 80.4844 68.0273V58.2499C81.0267 57.964 81.6048 57.752 82.2105 57.6192L89.8992 55.9324L94.1361 67.2627C94.3929 67.9495 95.0491 68.4047 95.7824 68.4047C96.5158 68.4047 97.172 67.9495 97.4288 67.2625L101.666 55.9315L109.402 57.623C110.081 57.7714 110.726 58.0227 111.319 58.3592H104.742C103.772 58.3592 102.984 59.1463 102.984 60.117V67.1483V74.1795V79.4529H76.8244V69.785H78.7266V69.7851ZM73.3088 69.7851V79.4531H70.6406V78.5742C70.6406 75.5694 68.1962 73.125 65.1914 73.125H65.0156V69.7851H73.3088ZM57.9844 57.4805C57.9844 56.5112 58.7729 55.7226 59.7422 55.7226C60.7114 55.7226 61.5 56.5112 61.5 57.4805V73.125H57.9844V57.4805ZM52.3594 78.5742C52.3594 77.5081 53.2269 76.6406 54.293 76.6406H56.2266H63.2578H65.1914C66.2575 76.6406 67.125 77.5081 67.125 78.5742V79.4531H52.3594V78.5742ZM125.484 86.4844H42.5156V82.9687H125.484V86.4844Z" fill="#DEA033"/>
<path d="M58.4994 38.6596C58.1725 38.9865 57.9844 39.44 57.9844 39.9023C57.9844 40.3646 58.1723 40.8182 58.4994 41.1449C58.8264 41.4719 59.2799 41.6602 59.7422 41.6602C60.2045 41.6602 60.658 41.4721 60.9848 41.1449C61.3119 40.8182 61.5 40.3646 61.5 39.9023C61.5 39.44 61.3119 38.9865 60.9848 38.6596C60.658 38.3326 60.2045 38.1445 59.7422 38.1445C59.2799 38.1445 58.8264 38.3324 58.4994 38.6596Z" fill="#DEA033"/>
</svg>
