<svg width="230" height="143" viewBox="0 0 230 143" fill="none" xmlns="http://www.w3.org/2000/svg">
<path d="M8.8623 138L4.30762 124.884H4.22168C4.34342 126.832 4.4043 128.658 4.4043 130.362V138H2.07324V122.295H5.69336L10.0547 134.788H10.1191L14.6094 122.295H18.2402V138H15.7695V130.233C15.7695 129.453 15.7874 128.436 15.8232 127.183C15.8662 125.929 15.902 125.17 15.9307 124.905H15.8447L11.1289 138H8.8623ZM24.6318 130.867H27.0381C28.6995 130.867 29.9277 131.154 30.7227 131.727C31.5176 132.299 31.915 133.159 31.915 134.305C31.915 135.529 31.4997 136.453 30.6689 137.076C29.8454 137.692 28.6351 138 27.0381 138H22.1074V126.119H24.6318V130.867ZM29.4121 134.369C29.4121 133.775 29.1901 133.359 28.7461 133.123C28.3092 132.887 27.679 132.769 26.8555 132.769H24.6318V136.131H26.5332C27.5501 136.131 28.2842 135.988 28.7354 135.701C29.1865 135.415 29.4121 134.971 29.4121 134.369ZM36.3193 138H33.7842V126.119H36.3193V138ZM48.2754 130.867C49.4284 130.867 50.277 130.742 50.8213 130.491C51.3656 130.233 51.6377 129.84 51.6377 129.31C51.6377 128.343 50.7783 127.859 49.0596 127.859C47.9137 127.859 46.7428 128.117 45.5469 128.633L44.7305 126.753C46.1126 126.187 47.638 125.904 49.3066 125.904C50.7819 125.904 51.9277 126.176 52.7441 126.721C53.5605 127.258 53.9688 128.031 53.9688 129.041C53.9688 130.373 53.2061 131.247 51.6807 131.662V131.748C52.6331 132.006 53.3135 132.375 53.7217 132.854C54.137 133.334 54.3447 133.929 54.3447 134.638C54.3447 135.726 53.8649 136.596 52.9053 137.248C51.9528 137.893 50.6208 138.215 48.9092 138.215C47.04 138.215 45.6113 137.968 44.623 137.474V135.293C45.9336 135.909 47.2907 136.217 48.6943 136.217C49.7041 136.217 50.4811 136.077 51.0254 135.798C51.5768 135.511 51.8525 135.078 51.8525 134.498C51.8525 133.904 51.5768 133.467 51.0254 133.188C50.474 132.908 49.6217 132.769 48.4688 132.769H47.0186V130.867H48.2754ZM59.6084 126.119V130.889H65.2051V126.119H67.7295V138H65.2051V132.876H59.6084V138H57.084V126.119H59.6084ZM78.7832 138L78.2783 136.346H78.1924C77.6195 137.069 77.043 137.563 76.4629 137.828C75.8828 138.086 75.138 138.215 74.2285 138.215C73.0612 138.215 72.1481 137.9 71.4893 137.27C70.8376 136.639 70.5117 135.748 70.5117 134.595C70.5117 133.37 70.9665 132.446 71.876 131.823C72.7855 131.2 74.1712 130.86 76.0332 130.803L78.085 130.738V130.104C78.085 129.345 77.9059 128.78 77.5479 128.407C77.1969 128.028 76.6491 127.838 75.9043 127.838C75.2956 127.838 74.7119 127.927 74.1533 128.106C73.5947 128.285 73.0576 128.497 72.542 128.74L71.7256 126.936C72.3701 126.599 73.0755 126.345 73.8418 126.173C74.6081 125.994 75.3314 125.904 76.0117 125.904C77.5228 125.904 78.6615 126.234 79.4277 126.893C80.2012 127.551 80.5879 128.586 80.5879 129.997V138H78.7832ZM75.0234 136.281C75.9401 136.281 76.6742 136.027 77.2256 135.519C77.7842 135.003 78.0635 134.283 78.0635 133.359V132.328L76.5381 132.393C75.3493 132.436 74.4827 132.636 73.9385 132.994C73.4014 133.345 73.1328 133.886 73.1328 134.616C73.1328 135.146 73.2904 135.558 73.6055 135.852C73.9206 136.138 74.3932 136.281 75.0234 136.281ZM89.2998 138.215C87.4521 138.215 86.0055 137.678 84.96 136.604C83.9215 135.522 83.4023 134.036 83.4023 132.146C83.4023 130.205 83.8857 128.679 84.8525 127.569C85.8193 126.459 87.1478 125.904 88.8379 125.904C90.4062 125.904 91.6452 126.381 92.5547 127.333C93.4642 128.285 93.9189 129.596 93.9189 131.265V132.629H86.002C86.0378 133.782 86.3493 134.67 86.9365 135.293C87.5238 135.909 88.3509 136.217 89.418 136.217C90.1198 136.217 90.7715 136.152 91.373 136.023C91.9818 135.887 92.6335 135.665 93.3281 135.357V137.409C92.7122 137.703 92.0892 137.91 91.459 138.032C90.8288 138.154 90.109 138.215 89.2998 138.215ZM88.8379 127.816C88.0358 127.816 87.3913 128.071 86.9043 128.579C86.4245 129.088 86.138 129.829 86.0449 130.803H91.4375C91.4232 129.822 91.1868 129.08 90.7285 128.579C90.2702 128.071 89.64 127.816 88.8379 127.816ZM103.608 135.583L103.748 135.067C104.042 134 104.296 133.18 104.511 132.607L107.175 126.119H110.537V138H108.206V128.407L108.013 129.052C107.69 130.205 107.418 131.053 107.196 131.598L104.597 138H102.685L100.085 131.555C99.7269 130.624 99.3975 129.575 99.0967 128.407V138H96.7871V126.119H100.128L102.706 132.414C102.935 132.994 103.236 134.05 103.608 135.583ZM124.652 138.215C122.855 138.215 121.487 137.692 120.549 136.646C119.618 135.594 119.152 134.086 119.152 132.124C119.152 130.126 119.639 128.59 120.613 127.516C121.594 126.441 123.009 125.904 124.856 125.904C126.11 125.904 127.238 126.137 128.24 126.603L127.478 128.633C126.41 128.217 125.53 128.01 124.835 128.01C122.78 128.01 121.752 129.374 121.752 132.103C121.752 133.435 122.006 134.437 122.515 135.11C123.03 135.776 123.782 136.109 124.771 136.109C125.895 136.109 126.958 135.83 127.961 135.271V137.474C127.51 137.739 127.026 137.928 126.511 138.043C126.002 138.158 125.383 138.215 124.652 138.215ZM141.066 129.159C141.066 130.563 140.246 131.411 138.606 131.705V131.791C139.523 131.898 140.225 132.188 140.712 132.661C141.199 133.134 141.442 133.746 141.442 134.498C141.442 135.622 141.013 136.489 140.153 137.098C139.301 137.699 138.059 138 136.426 138H130.754V126.119H136.404C139.512 126.119 141.066 127.132 141.066 129.159ZM138.854 134.348C138.854 133.775 138.632 133.37 138.188 133.134C137.743 132.89 137.077 132.769 136.189 132.769H133.278V136.131H136.254C137.987 136.131 138.854 135.536 138.854 134.348ZM138.542 129.374C138.542 128.901 138.356 128.561 137.983 128.354C137.618 128.139 137.07 128.031 136.34 128.031H133.278V130.889H135.964C136.809 130.889 137.45 130.781 137.887 130.566C138.324 130.344 138.542 129.947 138.542 129.374ZM154.591 132.038C154.591 133.979 154.093 135.493 153.098 136.582C152.102 137.671 150.716 138.215 148.94 138.215C147.83 138.215 146.849 137.964 145.997 137.463C145.145 136.962 144.49 136.242 144.031 135.304C143.573 134.366 143.344 133.277 143.344 132.038C143.344 130.112 143.838 128.608 144.826 127.526C145.814 126.445 147.207 125.904 149.005 125.904C150.724 125.904 152.084 126.459 153.087 127.569C154.09 128.672 154.591 130.162 154.591 132.038ZM145.943 132.038C145.943 134.781 146.957 136.152 148.983 136.152C150.989 136.152 151.991 134.781 151.991 132.038C151.991 129.324 150.981 127.967 148.962 127.967C147.902 127.967 147.132 128.318 146.652 129.02C146.18 129.721 145.943 130.728 145.943 132.038ZM162.69 138.215C160.843 138.215 159.396 137.678 158.351 136.604C157.312 135.522 156.793 134.036 156.793 132.146C156.793 130.205 157.276 128.679 158.243 127.569C159.21 126.459 160.538 125.904 162.229 125.904C163.797 125.904 165.036 126.381 165.945 127.333C166.855 128.285 167.31 129.596 167.31 131.265V132.629H159.393C159.428 133.782 159.74 134.67 160.327 135.293C160.914 135.909 161.742 136.217 162.809 136.217C163.51 136.217 164.162 136.152 164.764 136.023C165.372 135.887 166.024 135.665 166.719 135.357V137.409C166.103 137.703 165.48 137.91 164.85 138.032C164.219 138.154 163.5 138.215 162.69 138.215ZM162.229 127.816C161.426 127.816 160.782 128.071 160.295 128.579C159.815 129.088 159.529 129.829 159.436 130.803H164.828C164.814 129.822 164.577 129.08 164.119 128.579C163.661 128.071 163.031 127.816 162.229 127.816ZM187.29 142.2H184.938V138H176.795V142.2H174.464V136.045H175.431C176.276 134.835 176.945 133.374 177.439 131.662C177.941 129.943 178.238 128.096 178.331 126.119H185.55V136.045H187.29V142.2ZM183.068 136.045V128.053H180.512C180.376 129.528 180.089 130.982 179.652 132.414C179.223 133.846 178.696 135.057 178.073 136.045H183.068ZM194.681 138.215C192.833 138.215 191.386 137.678 190.341 136.604C189.302 135.522 188.783 134.036 188.783 132.146C188.783 130.205 189.267 128.679 190.233 127.569C191.2 126.459 192.529 125.904 194.219 125.904C195.787 125.904 197.026 126.381 197.936 127.333C198.845 128.285 199.3 129.596 199.3 131.265V132.629H191.383C191.419 133.782 191.73 134.67 192.317 135.293C192.905 135.909 193.732 136.217 194.799 136.217C195.501 136.217 196.152 136.152 196.754 136.023C197.363 135.887 198.014 135.665 198.709 135.357V137.409C198.093 137.703 197.47 137.91 196.84 138.032C196.21 138.154 195.49 138.215 194.681 138.215ZM194.219 127.816C193.417 127.816 192.772 128.071 192.285 128.579C191.805 129.088 191.519 129.829 191.426 130.803H196.818C196.804 129.822 196.568 129.08 196.109 128.579C195.651 128.071 195.021 127.816 194.219 127.816ZM211.933 138H209.387V128.096H206.11C205.91 130.645 205.638 132.636 205.294 134.068C204.957 135.501 204.513 136.546 203.962 137.205C203.418 137.864 202.709 138.193 201.835 138.193C201.284 138.193 200.822 138.115 200.449 137.957V135.98C200.714 136.081 200.979 136.131 201.244 136.131C201.975 136.131 202.548 135.311 202.963 133.671C203.385 132.024 203.715 129.507 203.951 126.119H211.933V138ZM226.091 132.038C226.091 133.979 225.593 135.493 224.598 136.582C223.602 137.671 222.216 138.215 220.44 138.215C219.33 138.215 218.349 137.964 217.497 137.463C216.645 136.962 215.99 136.242 215.531 135.304C215.073 134.366 214.844 133.277 214.844 132.038C214.844 130.112 215.338 128.608 216.326 127.526C217.314 126.445 218.707 125.904 220.505 125.904C222.224 125.904 223.584 126.459 224.587 127.569C225.59 128.672 226.091 130.162 226.091 132.038ZM217.443 132.038C217.443 134.781 218.457 136.152 220.483 136.152C222.489 136.152 223.491 134.781 223.491 132.038C223.491 129.324 222.481 127.967 220.462 127.967C219.402 127.967 218.632 128.318 218.152 129.02C217.68 129.721 217.443 130.728 217.443 132.038Z" fill="black"/>
<path d="M153.238 51.8563L129.864 45.2097C132.587 41.7653 134.215 37.417 134.215 32.6953V22.1484C134.215 11.002 125.146 1.93359 114 1.93359C102.854 1.93359 93.7852 11.002 93.7852 22.1484V32.6953C93.7852 37.417 95.4127 41.7653 98.1357 45.2099L74.7621 51.8565L69 72.7683V74.7874L70.2435 75.5613C83.3873 83.7422 98.5181 88.0664 114 88.0664C129.482 88.0664 144.613 83.7422 157.757 75.5613L159 74.7874V72.7683L153.238 51.8563ZM114 7.20703C116.12 7.20703 118.136 7.65352 119.965 8.45297C118.596 14.2741 109.881 19.0373 99.2507 19.7659C100.395 12.6559 106.572 7.20703 114 7.20703ZM99.0586 25.0632C105.586 24.7018 111.672 23.0033 116.416 20.1881C118.796 18.7761 120.737 17.1478 122.201 15.3636C122.477 15.8748 122.777 16.3659 123.105 16.8302C124.648 19.0158 126.685 20.5058 128.902 21.1236C128.925 21.4627 128.941 32.6953 128.941 32.6953C128.941 40.934 122.239 47.6367 114 47.6367C105.761 47.6367 99.0586 40.934 99.0586 32.6953V25.0632ZM129.53 50.5976L122.496 63.8914L121.91 60.5885V51.2975C123.124 50.7795 124.277 50.1458 125.356 49.4105L129.53 50.5976ZM116.637 52.9102V58.1836H111.363V52.9102H116.637ZM102.644 49.4107C103.723 50.1456 104.876 50.7793 106.09 51.2975V60.5885L105.504 63.8916L98.4697 50.5978L102.644 49.4107ZM74.6616 72.073L79.058 56.1175L93.2838 52.0722L109.514 82.7462C97.4641 82.0392 85.531 78.4832 74.6616 72.073ZM114 79.9483L109.515 71.4716L110.937 63.457H117.063L118.485 71.4716L114 79.9483ZM118.486 82.7462L134.716 52.0722L148.942 56.1175L153.338 72.0731C142.469 78.4832 130.536 82.0392 118.486 82.7462Z" fill="#DEA033"/>
</svg>
