<svg width="99" height="71" viewBox="0 0 99 71" fill="none" xmlns="http://www.w3.org/2000/svg">
<g filter="url(#filter0_d)">
<g filter="url(#filter1_d)">
<path d="M4 6C4 2.68629 6.68629 0 10 0H78C81.3137 0 84 2.68629 84 6V45.6822C84 46.5504 84.1884 47.4082 84.5522 48.1965L90 60L79.4011 53.8173C78.4835 53.2821 77.4402 53 76.3779 53H10C6.68629 53 4 50.3137 4 47V6Z" fill="#DEA033"/>
</g>
<path d="M44.5811 44V11.5889H18.2119V44H23.2432V15.9238H39.5498V44H44.5811ZM48.707 44H56.1445V42.75H50.6367V42.7188L53.3164 39.9688C55.3867 37.8516 55.957 36.9219 55.957 35.6875V35.6719C55.957 33.9062 54.4648 32.5391 52.4258 32.5391C50.3242 32.5391 48.6367 33.9844 48.6367 35.9375V35.9844H49.9961V35.9453C49.9961 34.7344 51.043 33.7656 52.4492 33.7656C53.6758 33.7656 54.543 34.5938 54.5508 35.7422V35.7578C54.5508 36.6953 54.1992 37.3047 52.6758 38.8906L48.707 43.0312V44ZM62.7383 44H64.0977V41.6562H65.6914V40.4219H64.0977V32.7266H62.0195L57.0742 40.3828V41.6562H62.7383V44ZM58.4648 40.4219V40.3906L62.6914 33.9297H62.7383V40.4219H58.4648Z" fill="white"/>
<path d="M47.9009 30.5635H49.1753V26.7256H49.2046C49.6807 27.6045 50.5669 28.1465 51.6436 28.1465C53.5552 28.1465 54.8589 26.6011 54.8589 24.1987V24.1914C54.8589 21.7891 53.5698 20.2363 51.6216 20.2363C50.5303 20.2363 49.6807 20.7856 49.2046 21.6719H49.1753V20.3828H47.9009V30.5635ZM51.3726 27.0186C50.0908 27.0186 49.168 25.8979 49.168 24.1987V24.1914C49.168 22.4849 50.0835 21.3643 51.3726 21.3643C52.7202 21.3643 53.5552 22.4409 53.5552 24.1914V24.1987C53.5552 25.9346 52.7202 27.0186 51.3726 27.0186ZM58.521 28.1465C59.5391 28.1465 60.4546 27.5972 60.9014 26.7622H60.9307V28H62.2051V22.7339C62.2051 21.2104 61.0771 20.2363 59.2754 20.2363C57.481 20.2363 56.3896 21.2471 56.2798 22.4995L56.2725 22.5801H57.5029L57.5176 22.5142C57.6641 21.833 58.2793 21.3643 59.2607 21.3643C60.3228 21.3643 60.9307 21.9282 60.9307 22.8584V23.4956L58.748 23.6201C56.9976 23.7227 55.9868 24.5356 55.9868 25.832V25.8467C55.9868 27.231 57.0049 28.1465 58.521 28.1465ZM57.2905 25.8467V25.832C57.2905 25.1216 57.8765 24.6675 58.8945 24.6089L60.9307 24.4844V25.1069C60.9307 26.2129 60.0078 27.0405 58.8066 27.0405C57.8911 27.0405 57.2905 26.5791 57.2905 25.8467ZM63.9629 28H67.2441C68.8628 28 69.8589 27.1577 69.8589 25.8174V25.8027C69.8589 24.8726 69.229 24.1987 68.2695 24.0669V24.0083C68.9727 23.8618 69.522 23.144 69.522 22.3604V22.3457C69.522 21.1372 68.6504 20.3828 67.2222 20.3828H63.9629V28ZM65.2373 23.5688V21.4375H67.0317C67.8301 21.4375 68.2549 21.7964 68.2549 22.4775V22.4922C68.2549 23.2246 67.8008 23.5688 66.8413 23.5688H65.2373ZM65.2373 26.9453V24.6235H66.9072C68.0205 24.6235 68.5552 24.9897 68.5552 25.7734V25.7881C68.5552 26.5498 68.0571 26.9453 67.1343 26.9453H65.2373ZM74.4805 28.1465C76.5825 28.1465 78.0034 26.623 78.0034 24.1914V24.1768C78.0034 21.7451 76.5752 20.2363 74.4731 20.2363C72.3711 20.2363 70.9502 21.7524 70.9502 24.1768V24.1914C70.9502 26.6157 72.3638 28.1465 74.4805 28.1465ZM74.4878 27.0186C73.1401 27.0186 72.2539 25.9858 72.2539 24.1914V24.1768C72.2539 22.397 73.1475 21.3643 74.4731 21.3643C75.8208 21.3643 76.6997 22.3896 76.6997 24.1768V24.1914C76.6997 25.9785 75.8281 27.0186 74.4878 27.0186Z" fill="white"/>
</g>
<defs>
<filter id="filter0_d" x="4" y="0" width="95" height="71" filterUnits="userSpaceOnUse" color-interpolation-filters="sRGB">
<feFlood flood-opacity="0" result="BackgroundImageFix"/>
<feColorMatrix in="SourceAlpha" type="matrix" values="0 0 0 0 0 0 0 0 0 0 0 0 0 0 0 0 0 0 127 0"/>
<feOffset dx="5" dy="7"/>
<feGaussianBlur stdDeviation="2"/>
<feColorMatrix type="matrix" values="0 0 0 0 0 0 0 0 0 0 0 0 0 0 0 0 0 0 0.25 0"/>
<feBlend mode="normal" in2="BackgroundImageFix" result="effect1_dropShadow"/>
<feBlend mode="normal" in="SourceGraphic" in2="effect1_dropShadow" result="shape"/>
</filter>
<filter id="filter1_d" x="0" y="0" width="94" height="68" filterUnits="userSpaceOnUse" color-interpolation-filters="sRGB">
<feFlood flood-opacity="0" result="BackgroundImageFix"/>
<feColorMatrix in="SourceAlpha" type="matrix" values="0 0 0 0 0 0 0 0 0 0 0 0 0 0 0 0 0 0 127 0"/>
<feOffset dy="4"/>
<feGaussianBlur stdDeviation="2"/>
<feColorMatrix type="matrix" values="0 0 0 0 0 0 0 0 0 0 0 0 0 0 0 0 0 0 0.25 0"/>
<feBlend mode="normal" in2="BackgroundImageFix" result="effect1_dropShadow"/>
<feBlend mode="normal" in="SourceGraphic" in2="effect1_dropShadow" result="shape"/>
</filter>
</defs>
</svg>
