<svg width="54" height="70" viewBox="0 0 54 70" fill="none" xmlns="http://www.w3.org/2000/svg">
<path d="M22.2807 65.8984H14.6952C13.5627 65.8984 12.6444 66.8166 12.6444 67.9492C12.6444 69.0818 13.5627 70 14.6952 70H39.3048C40.4373 70 41.3556 69.0818 41.3556 67.9492C41.3556 66.8166 40.4373 65.8984 39.3048 65.8984H31.7193C34.2733 63.1521 37.975 58.9496 41.5958 54.0441C49.5194 43.3097 53.537 34.0962 53.537 26.6599C53.537 12.0317 41.6371 0.0720512 27.01 0C27.0033 0 26.9964 0 26.9899 0C12.3629 0.0720512 0.463013 12.0317 0.463013 26.6599C0.463013 34.0964 4.48065 43.3097 12.4042 54.0441C16.025 58.9496 19.7267 63.1523 22.2807 65.8984ZM27 4.10159C39.3724 4.16749 49.4354 14.2851 49.4354 26.6599C49.4354 33.1086 45.5835 41.7356 38.2959 51.6084C33.8327 57.6548 29.2568 62.5858 27 64.9161C24.7432 62.5858 20.1673 57.6549 15.7041 51.6084C8.41654 41.7356 4.5646 33.1086 4.5646 26.6599C4.5646 14.2851 14.6276 4.16749 27 4.10159Z" fill="black"/>
</svg>
