<svg width="26" height="23" viewBox="0 0 26 23" fill="none" xmlns="http://www.w3.org/2000/svg">
<path d="M5.40906 22C5.99915 21.8915 6.58536 21.7016 7.16769 21.4303C7.75002 21.1589 8.28964 20.8644 8.78656 20.5465C9.28349 20.2287 9.71441 19.9186 10.0793 19.6163C10.4443 19.3139 10.6888 19.0853 10.8131 18.9302C11.0771 18.9767 11.3061 19.0039 11.5002 19.0116C11.6943 19.0194 11.9001 19.0232 12.1175 19.0232H12.7464V19.0232C14.3924 19.0232 15.9414 18.7907 17.3934 18.3256C18.8453 17.8604 20.1109 17.2209 21.1902 16.4069C22.2694 15.593 23.1196 14.6472 23.7408 13.5697C24.3619 12.4921 24.6725 11.3332 24.6725 10.0929C24.6725 8.85256 24.3619 7.69363 23.7408 6.6161C23.1196 5.53857 22.2694 4.59282 21.1902 3.77885C20.1109 2.96489 18.8453 2.32534 17.3934 1.86022C15.9414 1.3951 14.3924 1.16254 12.7464 1.16254C11.1003 1.16254 9.55136 1.3951 8.09942 1.86022C6.64748 2.32534 5.38188 2.96489 4.30264 3.77885C3.22339 4.59282 2.37319 5.53857 1.75204 6.6161C1.13089 7.69363 0.820312 8.85256 0.820312 10.0929C0.820312 10.8681 0.932896 11.6084 1.15806 12.3139C1.38323 13.0193 1.70545 13.686 2.12473 14.3139C2.544 14.9418 3.06422 15.5193 3.68537 16.0465C4.30652 16.5736 5.01308 17.0387 5.80504 17.4418C5.80504 17.4573 5.80116 17.469 5.7934 17.4767C5.78563 17.4845 5.78175 17.4961 5.78175 17.5116C5.78175 18.1783 5.63811 18.8411 5.35083 19.5C5.06355 20.1589 4.8112 20.6822 4.5938 21.0698C4.57827 21.1008 4.56663 21.1396 4.55886 21.1861C4.5511 21.2326 4.54721 21.2791 4.54721 21.3256C4.54721 21.5117 4.61321 21.6706 4.74521 21.8024C4.8772 21.9341 5.03637 22 5.22272 22H5.40906V22Z" stroke="#DEA033"/>
</svg>
