<svg width="29" height="29" viewBox="0 0 29 29" fill="none" xmlns="http://www.w3.org/2000/svg">
<path fill-rule="evenodd" clip-rule="evenodd" d="M25.7109 22.1251C25.4609 22.3671 25.1641 22.488 24.8203 22.488H22.3359C22.2422 22.1602 22.1445 21.8714 22.043 21.6217C21.9414 21.3719 21.7812 21.1612 21.5625 20.9895H24.5859V19.6549C24.5391 19.6236 24.4844 19.5885 24.4219 19.5495C24.3594 19.5105 24.2969 19.4832 24.2344 19.4675C24.2188 19.4519 24.1992 19.4402 24.1758 19.4324C24.1523 19.4246 24.125 19.4129 24.0938 19.3973L19.3125 16.7983C19.0938 16.6734 18.9141 16.5056 18.7734 16.2949C18.6328 16.0841 18.5547 15.8539 18.5391 15.6041C18.5078 15.3544 18.543 15.1124 18.6445 14.8783C18.7461 14.6441 18.8984 14.449 19.1016 14.2929C19.7422 13.7778 20.1914 13.0558 20.4492 12.1271C20.707 11.1983 20.8359 10.4451 20.8359 9.86755V6.70657C20.8359 6.14462 20.4141 5.51242 19.5703 4.80998C18.7266 4.10755 17.7578 3.75633 16.6641 3.75633C16.1328 3.75633 15.6211 3.84218 15.1289 4.01389C14.6367 4.18559 14.1953 4.41974 13.8047 4.71633C13.5078 4.62267 13.1953 4.56803 12.8672 4.55242C12.5391 4.53681 12.2188 4.5212 11.9062 4.50559C12.4531 3.86559 13.1562 3.32706 14.0156 2.88998C14.875 2.45291 15.7578 2.23438 16.6641 2.23438C17.3672 2.23438 18.0586 2.37096 18.7383 2.64413C19.418 2.9173 20.0234 3.26462 20.5547 3.68608C21.0859 4.10755 21.5156 4.58364 21.8438 5.11438C22.1719 5.64511 22.3359 6.17584 22.3359 6.70657V9.86755C22.3359 10.6168 22.1719 11.5651 21.8438 12.7124C21.5156 13.8597 20.9141 14.7768 20.0391 15.4636L24.8203 18.0861L25.4531 18.4373C25.875 18.6714 26.0859 18.9758 26.0859 19.3505V21.2236C26.0859 21.5827 25.9609 21.8832 25.7109 22.1251ZM20.4609 25.8714C20.2109 26.1134 19.9141 26.2344 19.5703 26.2344H3.35156C3.00781 26.2344 2.71094 26.1134 2.46094 25.8714C2.21094 25.6295 2.08594 25.329 2.08594 24.97V23.0734C2.08594 22.73 2.29688 22.4334 2.71875 22.1836L3.35156 21.809L8.20312 19.1866C7.3125 18.4841 6.69531 17.5475 6.35156 16.3768C6.00781 15.2061 5.83594 14.2773 5.83594 13.5905V10.4295C5.83594 9.89877 6 9.37194 6.32812 8.84901C6.65625 8.32608 7.08594 7.85389 7.61719 7.43242C8.14844 7.01096 8.75391 6.66755 9.43359 6.40218C10.1133 6.13681 10.7969 6.00413 11.4844 6.00413C12.1875 6.00413 12.875 6.13681 13.5469 6.40218C14.2188 6.66755 14.8164 7.01096 15.3398 7.43242C15.8633 7.85389 16.2852 8.32608 16.6055 8.84901C16.9258 9.37194 17.0859 9.89877 17.0859 10.4295V13.5905C17.0859 14.3554 16.9336 15.3075 16.6289 16.4471C16.3242 17.5866 15.7344 18.5075 14.8594 19.21L19.5703 21.809L20.2031 22.1602C20.625 22.3944 20.8359 22.6988 20.8359 23.0734V24.97C20.8359 25.329 20.7109 25.6295 20.4609 25.8714Z" fill="#DEA033"/>
</svg>
