<svg width="26" height="30" viewBox="0 0 26 30" fill="none" xmlns="http://www.w3.org/2000/svg">
<path d="M11.1042 14.062H0.812501C0.363999 14.062 0 13.642 0 13.1245C0 12.607 0.363999 12.187 0.812501 12.187H11.1042C11.5527 12.187 11.9167 12.607 11.9167 13.1245C11.9167 13.642 11.5527 14.062 11.1042 14.062Z" fill="#DEA033"/>
<path d="M7.04277 18.7494C6.83469 18.7494 6.6268 18.6581 6.46851 18.4745C6.15112 18.1081 6.15112 17.5144 6.46851 17.1482L9.95695 13.1234L6.46851 9.09982C6.15112 8.73339 6.15112 8.13969 6.46851 7.77349C6.78589 7.40729 7.30045 7.40729 7.61803 7.77349L11.6805 12.4608C11.9979 12.827 11.9979 13.4207 11.6805 13.7872L7.61803 18.4745C7.45874 18.6581 7.25066 18.7494 7.04277 18.7494Z" fill="#DEA033"/>
<path d="M17.3335 30.0001C16.1386 30.0001 15.167 28.8788 15.167 27.5001V5.00087C15.167 3.93226 15.7563 2.97854 16.6337 2.62722L23.1424 0.123573C24.5984 -0.391393 26.0002 0.854825 26.0002 2.50111V25.0003C26.0002 26.0678 25.4109 27.0201 24.5345 27.3726L18.0236 29.8776C17.7864 29.9625 17.5666 30.0001 17.3335 30.0001ZM23.8335 1.87606C23.7631 1.87606 23.7036 1.88613 23.6397 1.90856L17.1582 4.40214C16.9457 4.48728 16.792 4.73469 16.792 5.00087V27.5001C16.792 27.9265 17.1927 28.2139 17.5275 28.0926L24.0091 25.5991C24.2203 25.5139 24.3752 25.2665 24.3752 25.0003V2.50111C24.3752 2.15735 24.1326 1.87606 23.8335 1.87606Z" fill="#DEA033"/>
<path d="M9.47949 6.24985C9.03099 6.24985 8.66699 5.82987 8.66699 5.31239V3.43745C8.66699 1.54124 10.0026 0 11.646 0L23.8335 0C24.282 0 24.646 0.419983 24.646 0.937467C24.646 1.45495 24.282 1.87493 23.8335 1.87493H11.646C10.8996 1.87493 10.292 2.5762 10.292 3.43745V5.31239C10.292 5.82987 9.92799 6.24985 9.47949 6.24985Z" fill="#DEA033"/>
<path d="M15.9785 26.249H11.645C10.0016 26.249 8.66602 24.7078 8.66602 22.8116V20.9367C8.66602 20.4192 9.03001 19.9992 9.47852 19.9992C9.92702 19.9992 10.291 20.4192 10.291 20.9367V22.8116C10.291 23.6728 10.8986 24.3741 11.645 24.3741H15.9785C16.427 24.3741 16.791 24.7941 16.791 25.3116C16.791 25.829 16.427 26.249 15.9785 26.249Z" fill="#DEA033"/>
<path d="M16.5 4.61522L24.5 1.15381V25.9606L16.5 28.8451V4.61522Z" fill="#DEA033"/>
</svg>
