<svg width="28" height="28" viewBox="0 0 28 28" fill="none" xmlns="http://www.w3.org/2000/svg">
<path fill-rule="evenodd" clip-rule="evenodd" d="M20.623 4.56548C21.0527 4.56548 21.4661 4.65337 21.8633 4.82915C22.2604 5.00494 22.6217 5.25558 22.9473 5.58111C23.6634 6.29726 24.0215 7.16639 24.0215 8.18853C24.0215 9.21067 23.6634 10.0798 22.9473 10.796L11.7168 22.71C11.2871 23.1527 10.8021 23.475 10.2617 23.6768C9.72135 23.8786 9.16797 23.9633 8.60156 23.9307C8.03515 23.8982 7.47201 23.7484 6.91211 23.4815C6.35221 23.2146 5.82487 22.8402 5.33008 22.3585C4.90039 21.9157 4.56511 21.3917 4.32422 20.7862C4.08333 20.1807 3.9694 19.546 3.98242 18.8819C3.99544 18.2178 4.12565 17.5863 4.37305 16.9874C4.62044 16.3884 4.95898 15.8676 5.38867 15.4249L13.8848 6.40142C14.002 6.27121 14.1452 6.20285 14.3145 6.19634C14.4837 6.18983 14.6335 6.24517 14.7637 6.36236C14.8809 6.47955 14.9427 6.62603 14.9492 6.80181C14.9557 6.97759 14.9004 7.13059 14.7832 7.2608L6.28711 16.2842C5.96159 16.6228 5.70768 17.0199 5.52539 17.4756C5.3431 17.9314 5.24544 18.4066 5.23242 18.9014C5.23242 19.3962 5.31706 19.8682 5.48633 20.3174C5.6556 20.7667 5.90299 21.1475 6.22852 21.46C6.82748 22.072 7.56315 22.4724 8.43555 22.6612C9.30795 22.85 10.1022 22.5798 10.8184 21.8506L22.0488 9.93658C22.5306 9.4548 22.7715 8.87538 22.7715 8.1983C22.7715 7.52121 22.5306 6.94179 22.0488 6.46001C21.8275 6.23866 21.5866 6.07265 21.3262 5.96197C21.0658 5.85129 20.7923 5.80897 20.5059 5.83501C20.2324 5.84804 19.9557 5.9229 19.6758 6.05962C19.3958 6.19634 19.1387 6.3884 18.9043 6.6358L9.97852 16.128C9.80924 16.2973 9.63021 16.5544 9.44141 16.8995C9.2526 17.2445 9.32747 17.5798 9.66602 17.9053C9.84831 18.1006 10.0046 18.2081 10.1348 18.2276C10.265 18.2471 10.3496 18.2569 10.3887 18.2569C10.5059 18.2439 10.6361 18.195 10.7793 18.1104C10.9225 18.0258 11.0723 17.9118 11.2285 17.7686L17.9473 10.6202C18.0645 10.49 18.2077 10.4249 18.377 10.4249C18.5462 10.4249 18.696 10.4835 18.8262 10.6006C18.9564 10.7178 19.0215 10.8611 19.0215 11.0303C19.0215 11.1996 18.9629 11.3493 18.8457 11.4795L12.127 18.6475C11.8535 18.9079 11.5833 19.1098 11.3164 19.253C11.0495 19.3962 10.7793 19.4808 10.5059 19.5069C10.2845 19.5199 10.0241 19.4874 9.72461 19.4092C9.42513 19.3311 9.11263 19.1293 8.78711 18.8038C8.29232 18.322 8.07422 17.7556 8.13281 17.1045C8.19141 16.4535 8.50716 15.8415 9.08008 15.2686L18.0059 5.75689C18.3574 5.40532 18.7415 5.12864 19.1582 4.92681C19.5749 4.72499 20.0046 4.61106 20.4473 4.58501C20.4733 4.58501 20.5026 4.58176 20.5352 4.57525C20.5677 4.56874 20.597 4.56548 20.623 4.56548Z" fill="#DEA033"/>
</svg>
