<svg width="6" height="20" viewBox="0 0 6 20" fill="none" xmlns="http://www.w3.org/2000/svg">
<path fill-rule="evenodd" clip-rule="evenodd" d="M3.27344 5.46484C3.83333 5.4388 4.32161 5.22721 4.73828 4.83008C5.15495 4.43294 5.40234 3.95443 5.48047 3.39453C5.49349 3.38151 5.50326 3.36198 5.50977 3.33594C5.51628 3.3099 5.51953 3.29036 5.51953 3.27734V2.75C5.50651 2.69792 5.49349 2.64909 5.48047 2.60352C5.46745 2.55794 5.46094 2.51562 5.46094 2.47656C5.34375 1.96875 5.10286 1.54557 4.73828 1.20703C4.3737 0.86849 3.9375 0.660156 3.42969 0.582031C3.41667 0.582031 3.40039 0.575521 3.38086 0.5625C3.36133 0.549479 3.34505 0.542969 3.33203 0.542969H2.78516C2.72005 0.55599 2.65495 0.572266 2.58984 0.591797C2.52474 0.611328 2.45964 0.627604 2.39453 0.640625C1.89974 0.796875 1.50586 1.04102 1.21289 1.37305C0.919922 1.70508 0.727865 2.125 0.636719 2.63281L0.607422 2.69141C0.600911 2.70443 0.597656 2.72396 0.597656 2.75V3.27734C0.610677 3.34245 0.626953 3.41406 0.646484 3.49219C0.666016 3.57031 0.682292 3.64193 0.695312 3.70703C0.864583 4.27995 1.18685 4.72591 1.66211 5.04492C2.07796 5.32406 2.54117 5.46612 3.05173 5.4711C3.12466 5.47181 3.19857 5.46973 3.27344 5.46484ZM3.25391 12.7109C3.80078 12.6849 4.28581 12.4733 4.70898 12.0762C5.13216 11.679 5.38932 11.2005 5.48047 10.6406C5.49349 10.6146 5.50326 10.5918 5.50977 10.5723C5.51628 10.5527 5.51953 10.5365 5.51953 10.5234V9.97656C5.50651 9.92448 5.49349 9.86589 5.48047 9.80078C5.46745 9.73568 5.45443 9.67708 5.44141 9.625C5.29818 9.05208 4.98893 8.59635 4.51367 8.25781C4.03841 7.91927 3.48828 7.76302 2.86328 7.78906C2.31641 7.8151 1.82812 8.02669 1.39844 8.42383C0.96875 8.82096 0.714844 9.29948 0.636719 9.85938C0.636719 9.88542 0.630208 9.9082 0.617188 9.92773C0.604167 9.94727 0.597656 9.96354 0.597656 9.97656V10.5234C0.610677 10.5755 0.623698 10.6341 0.636719 10.6992C0.64974 10.7643 0.66276 10.8229 0.675781 10.875C0.81901 11.4479 1.12826 11.9036 1.60352 12.2422C2.02597 12.5431 2.50758 12.7 3.04835 12.7129C3.11594 12.7145 3.18446 12.7138 3.25391 12.7109ZM3.44922 19.9277C3.41016 19.9342 3.37109 19.944 3.33203 19.957H2.80469C2.77865 19.957 2.75911 19.9538 2.74609 19.9473L2.6875 19.918C2.17969 19.8398 1.74674 19.6315 1.38867 19.293C1.0306 18.9544 0.792969 18.5378 0.675781 18.043C0.66276 17.9909 0.64974 17.9421 0.636719 17.8965C0.623698 17.8509 0.610677 17.8021 0.597656 17.75V17.2227C0.597656 17.2096 0.600911 17.1901 0.607422 17.1641C0.613932 17.138 0.623698 17.1185 0.636719 17.1055C0.714844 16.5456 0.96224 16.0671 1.37891 15.6699C1.79557 15.2728 2.27734 15.0612 2.82422 15.0352C3.4362 14.9831 3.97656 15.1165 4.44531 15.4355C4.91406 15.7546 5.23307 16.2005 5.40234 16.7734C5.42839 16.8385 5.45117 16.9102 5.4707 16.9883C5.49023 17.0664 5.50651 17.1445 5.51953 17.2227V17.75C5.51953 17.776 5.51628 17.7956 5.50977 17.8086L5.48047 17.8672C5.40234 18.375 5.19076 18.8145 4.8457 19.1855C4.50065 19.5566 4.07422 19.7943 3.56641 19.8984C3.52734 19.9115 3.48828 19.9212 3.44922 19.9277Z" fill="white"/>
</svg>
