<svg width="28" height="28" viewBox="0 0 28 28" fill="none" xmlns="http://www.w3.org/2000/svg">
<path fill-rule="evenodd" clip-rule="evenodd" d="M4.15829 22.201C4.24116 22.2839 4.35164 22.3345 4.48975 22.3529C4.62785 22.3713 4.78438 22.3391 4.95931 22.2563L23.7833 14.7294C24.0319 14.6282 24.1884 14.5085 24.2528 14.3704C24.3173 14.2323 24.2851 14.0988 24.1562 13.9699C24.1101 13.9238 24.0549 13.8824 23.9904 13.8456C23.926 13.8087 23.8569 13.7719 23.7833 13.7351L5.00074 6.1392C4.66929 6.0103 4.41149 6.02411 4.22735 6.18063C4.0432 6.33715 3.98796 6.59035 4.06162 6.94022L5.47031 12.9893C5.55317 13.3484 5.5946 13.7811 5.5946 14.2875C5.5946 14.7939 5.54857 15.222 5.4565 15.5719L4.034 21.4691C3.99717 21.6348 3.99026 21.7798 4.01328 21.9041C4.0363 22.0284 4.08463 22.1274 4.15829 22.201ZM6.85137 13.7075C6.84217 13.5141 6.82836 13.33 6.80994 13.155C6.79153 12.9801 6.76391 12.819 6.72708 12.6716L5.58079 7.76886L20.0268 13.597L6.85137 13.7075ZM6.69946 15.9033L5.56698 20.6542L20.0544 14.8399L6.85137 14.9504C6.84217 15.1253 6.82605 15.2934 6.80304 15.4545C6.78002 15.6156 6.74549 15.7652 6.69946 15.9033Z" fill="#DEA033"/>
</svg>
