<svg width="28" height="28" viewBox="0 0 28 28" fill="none" xmlns="http://www.w3.org/2000/svg">
<path fill-rule="evenodd" clip-rule="evenodd" d="M6.015 12.097C6.015 10.714 6.485 9.439 7.267 8.416C8.261 7.115 9.763 6.221 11.477 6.046C11.681 6.025 11.888 6.015 12.098 6.015C13.049 6.015 13.947 6.24 14.75 6.631C16.778 7.618 18.183 9.694 18.183 12.098C18.183 15.453 15.453 18.183 12.099 18.183C10.428 18.183 8.912 17.506 7.812 16.41C7.808 16.406 7.803 16.404 7.799 16.398C7.792 16.392 7.787 16.386 7.781 16.379C6.691 15.279 6.015 13.765 6.015 12.097ZM22.972 21.539L17.779 16.344C17.887 16.199 17.992 16.05 18.089 15.897C18.788 14.798 19.199 13.497 19.199 12.098C19.199 8.178 16.02 5 12.099 5C9.685 5 7.557 6.207 6.274 8.048C5.473 9.197 5 10.592 5 12.097C5 16.02 8.18 19.197 12.098 19.197C13.693 19.197 15.16 18.666 16.344 17.778L21.539 22.972L22.972 21.539Z" fill="#DEA033"/>
</svg>
