<svg width="28" height="28" viewBox="0 0 28 28" fill="none" xmlns="http://www.w3.org/2000/svg">
<path d="M2.75896 18.1648C3.02728 18.362 3.29222 18.4511 3.55378 18.4319L3.7939 18.3987C3.9133 18.38 4.10284 18.3451 4.36251 18.294L6.82275 17.7953L8.46277 17.4466C8.56405 17.419 8.66302 17.3798 8.7597 17.3292C8.85637 17.2786 8.94614 17.2118 9.02901 17.129C9.13949 17.0185 9.23617 16.8896 9.31903 16.7423C9.37427 16.644 9.42338 16.5377 9.46634 16.4231L9.58143 16.0692C9.62352 15.9294 9.67614 15.7445 9.73927 15.5145L10.0786 14.284L10.3017 14.2481C10.5616 14.211 10.9314 14.17 11.4113 14.1251C12.0512 14.0653 12.9236 14.0354 14.0285 14.0354L14.7197 14.0398C15.3778 14.0487 15.9367 14.0708 16.3964 14.1063L17.0612 14.1687C17.4678 14.211 17.7643 14.2494 17.9507 14.284L18.1197 14.8541L18.5031 16.2451C18.6136 16.5765 18.7655 16.8481 18.9589 17.0599C19.1522 17.2717 19.3594 17.4052 19.5804 17.4604L19.8911 17.526L22.7689 18.1009L24.3312 18.3995C24.5154 18.4364 24.6995 18.4179 24.8837 18.3443C25.0678 18.2706 25.2335 18.1602 25.3808 18.0128C25.5005 17.8931 25.6018 17.755 25.6847 17.5985C25.7675 17.442 25.8274 17.2717 25.8642 17.0875L25.9402 16.4868C25.9908 16.1047 26.0253 15.665 26.0438 15.1678C26.0622 14.6707 26.0461 14.1804 25.9954 13.697C25.9448 13.2136 25.8044 12.8661 25.5742 12.6543C24.9573 12.0742 24.1908 11.6024 23.2747 11.2387C22.3586 10.875 21.3781 10.5896 20.333 10.3824C19.288 10.1753 18.22 10.0326 17.129 9.9543C16.0379 9.87604 15.0044 9.83691 14.0285 9.83691C13.0525 9.83691 12.0167 9.87374 10.9211 9.9474C9.82542 10.0211 8.75509 10.1615 7.71009 10.3686C6.66508 10.5758 5.68222 10.8635 4.76151 11.2318C3.95588 11.554 3.26305 11.9609 2.683 12.4523L2.4275 12.6819C2.21574 12.8937 2.08223 13.2435 2.02699 13.7315C1.97175 14.2195 1.95333 14.7121 1.97175 15.2093C1.98648 15.607 2.01152 15.9679 2.04688 16.292L2.15129 17.1013C2.24336 17.5801 2.44592 17.9346 2.75896 18.1648Z" fill="white"/>
</svg>
