<svg width="28" height="28" viewBox="0 0 28 28" fill="none" xmlns="http://www.w3.org/2000/svg">
<path fill-rule="evenodd" clip-rule="evenodd" d="M14.1172 17C14.9896 17 15.709 16.7135 16.2754 16.1406C16.8418 15.5677 17.125 14.8385 17.125 13.9531V6.51172C17.125 5.60026 16.8353 4.82878 16.2559 4.19727C15.6764 3.56576 14.9635 3.25 14.1172 3.25H13.9805C13.1211 3.25 12.3887 3.56901 11.7832 4.20703C11.1777 4.84505 10.875 5.61328 10.875 6.51172V13.9531C10.875 14.8255 11.1712 15.5514 11.7637 16.1309C12.3561 16.7103 13.0951 17 13.9805 17H14.1172ZM14.1172 15.75H13.9805C13.4336 15.75 12.9876 15.584 12.6426 15.252C12.2975 14.9199 12.125 14.487 12.125 13.9531V6.51172C12.125 5.95182 12.3073 5.47656 12.6719 5.08594C13.0365 4.69531 13.4727 4.5 13.9805 4.5H14.1172C14.625 4.5 15.0449 4.69206 15.377 5.07617C15.709 5.46029 15.875 5.9388 15.875 6.51172V13.9531C15.875 14.487 15.7155 14.9199 15.3965 15.252C15.0775 15.584 14.651 15.75 14.1172 15.75ZM18.1895 23.0645C18.0658 23.1882 17.9193 23.25 17.75 23.25H10.25C10.0807 23.25 9.93424 23.1882 9.81055 23.0645C9.68685 22.9408 9.625 22.7943 9.625 22.625C9.625 22.4557 9.68685 22.3092 9.81055 22.1855C9.93424 22.0618 10.0807 22 10.25 22H13.375V20.125H13.082C12.1966 20.125 11.4219 19.9753 10.7578 19.6758C10.0938 19.3763 9.53711 18.9368 9.08789 18.3574C8.63867 17.778 8.30339 17.0684 8.08203 16.2285C7.86068 15.3887 7.75 14.4284 7.75 13.3477V10.75C7.75 10.5807 7.81185 10.4342 7.93555 10.3105C8.05924 10.1868 8.20573 10.125 8.375 10.125C8.54427 10.125 8.69076 10.1868 8.81445 10.3105C8.93815 10.4342 9 10.5807 9 10.75V13.3477C9 13.9727 9.04557 14.6139 9.13672 15.2715C9.22786 15.929 9.41667 16.5247 9.70312 17.0586C9.98958 17.5924 10.403 18.0286 10.9434 18.3672C11.4837 18.7057 12.1966 18.875 13.082 18.875H14.9375C15.6276 18.875 16.2266 18.7611 16.7344 18.5332C17.2422 18.3053 17.6621 17.9635 17.9941 17.5078C18.3262 17.0521 18.5768 16.4759 18.7461 15.7793C18.9154 15.0827 19 14.2721 19 13.3477V10.75C19 10.5807 19.0618 10.4342 19.1855 10.3105C19.3092 10.1868 19.4557 10.125 19.625 10.125C19.7943 10.125 19.9408 10.1868 20.0645 10.3105C20.1882 10.4342 20.25 10.5807 20.25 10.75V13.3477C20.25 14.7539 20.0872 15.8965 19.7617 16.7754C19.4362 17.6543 19.0163 18.3411 18.502 18.8359C17.9876 19.3307 17.418 19.6693 16.793 19.8516C16.168 20.0339 15.5495 20.125 14.9375 20.125H14.625V22H17.75C17.9193 22 18.0658 22.0618 18.1895 22.1855C18.3132 22.3092 18.375 22.4557 18.375 22.625C18.375 22.7943 18.3132 22.9408 18.1895 23.0645Z" fill="#6C7A92"/>
</svg>
