<svg width="28" height="28" viewBox="0 0 28 28" fill="none" xmlns="http://www.w3.org/2000/svg">
<path fill-rule="evenodd" clip-rule="evenodd" d="M17.3691 20.7637C17.1152 21.0176 16.8125 21.1445 16.4609 21.1445H5.28906C4.9375 21.1445 4.63477 21.0176 4.38086 20.7637C4.12695 20.5098 4 20.2005 4 19.8359V8.66406C4 8.29948 4.12695 7.99023 4.38086 7.73633C4.63477 7.48242 4.9375 7.35547 5.28906 7.35547H16.4609C16.8255 7.35547 17.1315 7.48242 17.3789 7.73633C17.6263 7.99023 17.75 8.29948 17.75 8.66406V11.1445L22.7891 8.17578C22.8672 8.09766 22.9616 8.04557 23.0723 8.01953C23.1829 7.99349 23.2708 7.98047 23.3359 7.98047C23.4141 7.98047 23.4759 7.99023 23.5215 8.00977C23.5671 8.0293 23.5964 8.03906 23.6094 8.03906C23.7266 8.09115 23.821 8.16927 23.8926 8.27344C23.9642 8.3776 24 8.5013 24 8.64453V19.875C24 20.0052 23.9642 20.1224 23.8926 20.2266C23.821 20.3307 23.7266 20.4089 23.6094 20.4609C23.5964 20.4609 23.5671 20.4707 23.5215 20.4902C23.4759 20.5098 23.4206 20.5195 23.3555 20.5195C23.2773 20.5195 23.1992 20.5163 23.1211 20.5098C23.043 20.5033 22.9648 20.4609 22.8867 20.3828L17.75 17.3945V19.8359C17.75 20.2005 17.623 20.5098 17.3691 20.7637ZM5.28906 19.8945H16.4609C16.474 19.8945 16.4837 19.888 16.4902 19.875C16.4967 19.862 16.5 19.849 16.5 19.8359V17.3945C16.5 17.1602 16.5618 16.9421 16.6855 16.7402C16.8092 16.5384 16.9753 16.3854 17.1836 16.2812C17.2747 16.2292 17.3691 16.1934 17.4668 16.1738C17.5645 16.1543 17.6589 16.1445 17.75 16.1445C17.8802 16.1445 18.0072 16.1608 18.1309 16.1934C18.2546 16.2259 18.3685 16.2812 18.4727 16.3594L22.75 18.7031V9.77734L18.4922 12.1797C18.388 12.2578 18.2708 12.3132 18.1406 12.3457C18.0104 12.3783 17.8802 12.3945 17.75 12.3945C17.6589 12.3945 17.5645 12.3848 17.4668 12.3652C17.3691 12.3457 17.2682 12.3099 17.1641 12.2578C16.9688 12.1536 16.8092 12.0007 16.6855 11.7988C16.5618 11.597 16.5 11.3789 16.5 11.1445V8.66406C16.5 8.65104 16.4967 8.63802 16.4902 8.625C16.4837 8.61198 16.474 8.60547 16.4609 8.60547H5.28906C5.27604 8.60547 5.26628 8.61198 5.25977 8.625C5.25326 8.63802 5.25 8.65104 5.25 8.66406V19.8359C5.25 19.849 5.25326 19.862 5.25977 19.875C5.26628 19.888 5.27604 19.8945 5.28906 19.8945Z" fill="#6C7A92"/>
</svg>
