<svg width="30" height="31" viewBox="0 0 30 31" fill="none" xmlns="http://www.w3.org/2000/svg">
<path d="M15.0001 0.732422C6.71586 0.732422 0 7.44828 0 15.7325C0 23.1625 5.40783 29.3158 12.4984 30.5073V18.8619H8.87992V14.6712H12.4984V11.5812C12.4984 7.99582 14.6882 6.04201 17.8871 6.04201C19.4191 6.04201 20.7357 6.15617 21.1179 6.20646V9.95411L18.8993 9.95518C17.16 9.95518 16.8247 10.7815 16.8247 11.9945V14.6691H20.9748L20.4335 18.8598H16.8247V30.6075C24.2463 29.7043 30 23.3942 30 15.7282C30 7.44828 23.2841 0.732422 15.0001 0.732422Z" fill="#DEA033"/>
</svg>
