<svg width="30" height="31" viewBox="0 0 30 31" fill="none" xmlns="http://www.w3.org/2000/svg">
<path d="M15 0.820312C6.717 0.820312 0 7.53731 0 15.8203C0 24.1033 6.717 30.8203 15 30.8203C23.283 30.8203 30 24.1033 30 15.8203C30 7.53731 23.283 0.820312 15 0.820312ZM10.6412 23.4961H6.98799V12.5054H10.6412V23.4961ZM8.8147 11.0046H8.79089C7.565 11.0046 6.77216 10.1608 6.77216 9.10606C6.77216 8.02757 7.58926 7.20703 8.83896 7.20703C10.0887 7.20703 10.8577 8.02757 10.8815 9.10606C10.8815 10.1608 10.0887 11.0046 8.8147 11.0046ZM23.8138 23.4961H20.1611V17.6163C20.1611 16.1387 19.6321 15.1309 18.3103 15.1309C17.3012 15.1309 16.7001 15.8107 16.436 16.4669C16.3394 16.7017 16.3158 17.03 16.3158 17.3584V23.4961H12.6629C12.6629 23.4961 12.7107 13.5365 12.6629 12.5054H16.3158V14.0616C16.8013 13.3127 17.6699 12.2475 19.6081 12.2475C22.0116 12.2475 23.8138 13.8183 23.8138 17.1941V23.4961Z" fill="#DEA033"/>
</svg>
