<svg width="30" height="22" viewBox="0 0 30 22" fill="none" xmlns="http://www.w3.org/2000/svg">
<path d="M13.9402 12.6893C14.1897 12.9469 14.6072 13.1103 15.0533 13.1098C15.4987 13.1133 15.9174 12.944 16.1546 12.6998L27.1582 1.62177C27.8944 0.88092 27.6443 0.280212 26.5994 0.280212H3.58554C2.54122 0.280212 2.2894 0.882674 3.02265 1.62576L13.9402 12.6893Z" fill="#DEA033"/>
<path d="M1.32236 18.615L8.812 10.9573L1.32869 3.37338C0.59486 2.63019 0 2.87441 0 3.91883V18.0765C0 19.1203 0.591937 19.3616 1.32236 18.615Z" fill="#DEA033"/>
<path d="M3.57677 21.7196H26.4226C27.467 21.7196 27.7222 21.1137 26.9925 20.367L19.5412 12.7373L17.8793 14.4132C17.1001 15.193 16.0639 15.5407 15.0521 15.5425C14.0437 15.5413 13 15.1918 12.2109 14.401L10.5216 12.6885L3.00871 20.3683C2.27829 21.1142 2.53245 21.7196 3.57677 21.7196Z" fill="#DEA033"/>
<path d="M30.0001 18.0741V4.10423C30.0001 3.05991 29.4035 2.81394 28.6673 3.55468L21.259 11.0118L28.6795 18.6119C29.4086 19.3592 30.0001 19.1185 30.0001 18.0741Z" fill="#DEA033"/>
</svg>
