<svg width="30" height="30" viewBox="0 0 30 30" fill="none" xmlns="http://www.w3.org/2000/svg">
<path d="M13.9402 16.6893C14.1897 16.9469 14.6072 17.1103 15.0533 17.1098C15.4987 17.1133 15.9174 16.944 16.1546 16.6998L27.1582 5.62177C27.8944 4.88092 27.6443 4.28021 26.5994 4.28021H3.58554C2.54122 4.28021 2.2894 4.88267 3.02265 5.62576L13.9402 16.6893Z" fill="#DEA033"/>
<path d="M1.32236 22.615L8.812 14.9573L1.32869 7.37338C0.59486 6.63019 0 6.87441 0 7.91883V22.0765C0 23.1203 0.591937 23.3616 1.32236 22.615Z" fill="#DEA033"/>
<path d="M3.57677 25.7196H26.4226C27.467 25.7196 27.7222 25.1137 26.9925 24.367L19.5412 16.7373L17.8793 18.4132C17.1001 19.193 16.0639 19.5407 15.0521 19.5425C14.0437 19.5413 13 19.1918 12.2109 18.401L10.5216 16.6885L3.00871 24.3683C2.27829 25.1142 2.53245 25.7196 3.57677 25.7196Z" fill="#DEA033"/>
<path d="M30.0001 22.0741V8.10423C30.0001 7.05991 29.4035 6.81394 28.6673 7.55468L21.259 15.0118L28.6795 22.6119C29.4086 23.3592 30.0001 23.1185 30.0001 22.0741Z" fill="#DEA033"/>
</svg>
