<svg width="30" height="31" viewBox="0 0 30 31" fill="none" xmlns="http://www.w3.org/2000/svg">
<path d="M29.1363 18.5184C31.3088 8.75589 22.7563 -0.112865 12.7125 1.58963C7.26 -1.79412 0 2.02963 0 8.51713C0 10.0259 0.41625 11.4384 1.14 12.6559C-0.87875 22.4409 7.74375 31.1821 17.7788 29.3634C24.8725 33.1146 32.7113 25.6334 29.1363 18.5184ZM19.5888 24.4059C16.9538 25.4896 12.6175 25.4959 9.99375 24.1221C6.2525 22.1271 5.5875 17.6359 8.815 17.6359C11.2475 17.6359 10.4775 20.4721 12.9338 21.6284C14.0613 22.1496 16.485 22.2034 17.8938 21.2534C19.285 20.3221 19.1575 18.8571 18.4013 18.1571C16.3975 16.3071 10.6638 17.0421 8.0425 13.8034C6.90375 12.3984 6.68875 9.91963 8.08875 8.12213C10.5288 4.98213 17.6888 4.79088 20.7675 7.16213C23.61 9.36213 22.8425 12.2821 20.5488 12.2821C17.79 12.2821 19.24 8.67213 14.7863 8.67213C11.5575 8.67213 10.2875 10.9684 12.5613 12.0859C15.6438 13.6171 23.4988 13.1059 23.4988 19.0896C23.4925 21.5796 21.9663 23.4359 19.5888 24.4059Z" fill="#DEA033"/>
</svg>
